CharisSIL-Bold.ufo
<glyph name="ExclamationMrk" format="2">
  <advance width="696"/>
  <unicode hex="0021"/>
  <outline>
    <contour>
      <point x="516" y="1241" type="line"/>
      <point x="516" y="1358"/>
      <point x="442" y="1407"/>
      <point x="350" y="1407" type="curve" smooth="yes"/>
      <point x="258" y="1407"/>
      <point x="182" y="1356"/>
      <point x="182" y="1241" type="curve"/>
      <point x="295" y="426" type="line"/>
      <point x="406" y="426" type="line"/>
    </contour>
    <contour>
      <point x="514" y="143" type="curve" smooth="yes"/>
      <point x="514" y="244"/>
      <point x="426" y="305"/>
      <point x="350" y="305" type="curve" smooth="yes"/>
      <point x="274" y="305"/>
      <point x="184" y="250"/>
      <point x="184" y="143" type="curve" smooth="yes"/>
      <point x="184" y="23"/>
      <point x="283" y="-25"/>
      <point x="350" y="-25" type="curve" smooth="yes"/>
      <point x="438" y="-25"/>
      <point x="514" y="49"/>
    </contour>
  </outline>
</glyph>
<glyph name="NumSgn" format="2">
  <advance width="1518"/>
  <unicode hex="0023"/>
  <outline>
    <contour>
      <point x="1391" y="848" type="line"/>
      <point x="1391" y="983" type="line"/>
      <point x="1122" y="983" type="line"/>
      <point x="1276" y="1415" type="line"/>
      <point x="1135" y="1454" type="line"/>
      <point x="983" y="983" type="line"/>
      <point x="717" y="983" type="line"/>
      <point x="868" y="1417" type="line"/>
      <point x="731" y="1454" type="line"/>
      <point x="573" y="983" type="line"/>
      <point x="227" y="983" type="line"/>
      <point x="227" y="848" type="line"/>
      <point x="530" y="848" type="line"/>
      <point x="442" y="578" type="line"/>
      <point x="127" y="578" type="line"/>
      <point x="127" y="449" type="line"/>
      <point x="401" y="449" type="line"/>
      <point x="248" y="-12" type="line"/>
      <point x="385" y="-49" type="line"/>
      <point x="545" y="449" type="line"/>
      <point x="801" y="449" type="line"/>
      <point x="649" y="-14" type="line"/>
      <point x="791" y="-49" type="line"/>
      <point x="946" y="449" type="line"/>
      <point x="1309" y="449" type="line"/>
      <point x="1309" y="578" type="line"/>
      <point x="991" y="578" type="line"/>
      <point x="1079" y="848" type="line"/>
    </contour>
    <contour>
      <point x="936" y="848" type="line"/>
      <point x="842" y="578" type="line"/>
      <point x="588" y="578" type="line"/>
      <point x="678" y="848" type="line"/>
    </contour>
  </outline>
</glyph>
<glyph name="Apos" format="2">
  <advance width="360"/>
  <unicode hex="0027"/>
  <outline>
    <contour>
      <point x="299" y="1333" type="line"/>
      <point x="299" y="1409"/>
      <point x="262" y="1462"/>
      <point x="180" y="1462" type="curve" smooth="yes"/>
      <point x="96" y="1462"/>
      <point x="63" y="1409"/>
      <point x="63" y="1333" type="curve"/>
      <point x="143" y="854" type="line"/>
      <point x="217" y="854" type="line"/>
    </contour>
  </outline>
</glyph>
<glyph name="HyphenMinus" format="1">
  <advance width="672"/>
  <unicode hex="002D"/>
  <outline>
    <contour>
      <point x="604" y="385" type="line"/>
      <point x="604" y="602" type="line"/>
      <point x="68" y="602" type="line"/>
      <point x="68" y="385" type="line"/>
    </contour>
    <contour>
      <point x="336" y="1100" type="move" name="U"/>
    </contour>
  </outline>
</glyph>
<glyph name="DigitOne" format="1">
  <advance width="1202"/>
  <unicode hex="0031"/>
  <outline>
    <contour>
      <point x="952" y="0" type="line"/>
      <point x="952" y="106" type="line"/>
      <point x="791" y="113" type="line" smooth="yes"/>
      <point x="766" y="115"/>
      <point x="745" y="133"/>
      <point x="745" y="158" type="curve" smooth="yes"/>
      <point x="745" y="1407" type="line"/>
      <point x="594" y="1407" type="line"/>
      <point x="152" y="1247" type="line"/>
      <point x="152" y="1139" type="line"/>
      <point x="457" y="1182" type="line"/>
      <point x="457" y="158" type="line" smooth="yes"/>
      <point x="457" y="133"/>
      <point x="436" y="115"/>
      <point x="412" y="113" type="curve" smooth="yes"/>
      <point x="236" y="106" type="line"/>
      <point x="236" y="0" type="line"/>
    </contour>
    <contour>
      <point x="595" y="1500" type="move" name="U"/>
    </contour>
    <contour>
      <point x="595" y="-100" type="move" name="L"/>
    </contour>
  </outline>
</glyph>
<glyph name="DigitTwo" format="2">
  <advance width="1202"/>
  <unicode hex="0032"/>
  <anchor x="600" y="-100" name="L"/>
  <anchor x="600" y="1500" name="U"/>
  <outline>
    <contour>
      <point x="1112" y="0" type="line"/>
      <point x="1112" y="401" type="line"/>
      <point x="981" y="401" type="line"/>
      <point x="942" y="221" type="line"/>
      <point x="360" y="221" type="line"/>
      <point x="766" y="487"/>
      <point x="1069" y="709"/>
      <point x="1069" y="1001" type="curve" smooth="yes"/>
      <point x="1069" y="1247"/>
      <point x="864" y="1407"/>
      <point x="604" y="1407" type="curve" smooth="yes"/>
      <point x="426" y="1407"/>
      <point x="104" y="1337"/>
      <point x="104" y="1079" type="curve" smooth="yes"/>
      <point x="104" y="989"/>
      <point x="158" y="928"/>
      <point x="258" y="928" type="curve" smooth="yes"/>
      <point x="304" y="928"/>
      <point x="362" y="951"/>
      <point x="397" y="967" type="curve"/>
      <point x="397" y="1243" type="line"/>
      <point x="422" y="1254"/>
      <point x="463" y="1270"/>
      <point x="514" y="1270" type="curve" smooth="yes"/>
      <point x="670" y="1270"/>
      <point x="768" y="1145"/>
      <point x="768" y="983" type="curve" smooth="yes"/>
      <point x="768" y="723"/>
      <point x="514" y="480"/>
      <point x="88" y="170" type="curve"/>
      <point x="88" y="0" type="line"/>
    </contour>
  </outline>
</glyph>
<glyph name="DigitFour" format="1">
  <advance width="1202"/>
  <unicode hex="0034"/>
  <outline>
    <contour>
      <point x="1130" y="385" type="line"/>
      <point x="1130" y="551" type="line"/>
      <point x="963" y="551" type="line"/>
      <point x="963" y="1407" type="line"/>
      <point x="741" y="1407" type="line"/>
      <point x="74" y="559" type="line"/>
      <point x="74" y="383" type="line"/>
      <point x="702" y="383" type="line"/>
      <point x="702" y="-33" type="line"/>
      <point x="963" y="-33" type="line"/>
      <point x="963" y="385" type="line"/>
    </contour>
    <contour>
      <point x="702" y="551" type="line"/>
      <point x="272" y="551" type="line"/>
      <point x="702" y="1090" type="line"/>
    </contour>
    <contour>
      <point x="602" y="1500" type="move" name="U"/>
    </contour>
    <contour>
      <point x="602" y="-100" type="move" name="L"/>
    </contour>
  </outline>
</glyph>
<glyph name="DigitFive" format="2">
  <advance width="1202"/>
  <unicode hex="0035"/>
  <anchor x="602" y="-100" name="L"/>
  <anchor x="602" y="1500" name="U"/>
  <outline>
    <contour>
      <point x="1120" y="465" type="curve" smooth="yes"/>
      <point x="1120" y="702"/>
      <point x="911" y="866"/>
      <point x="618" y="866" type="curve" smooth="yes"/>
      <point x="481" y="866"/>
      <point x="336" y="817"/>
      <point x="336" y="817" type="curve"/>
      <point x="336" y="1147" type="line"/>
      <point x="1042" y="1147" type="line"/>
      <point x="1042" y="1374" type="line"/>
      <point x="162" y="1374" type="line"/>
      <point x="162" y="657" type="line"/>
      <point x="162" y="657"/>
      <point x="324" y="690"/>
      <point x="463" y="690" type="curve" smooth="yes"/>
      <point x="664" y="690"/>
      <point x="827" y="578"/>
      <point x="827" y="395" type="curve" smooth="yes"/>
      <point x="827" y="299"/>
      <point x="735" y="90"/>
      <point x="498" y="90" type="curve" smooth="yes"/>
      <point x="477" y="90"/>
      <point x="391" y="106"/>
      <point x="391" y="106" type="curve"/>
      <point x="326" y="350" type="line"/>
      <point x="289" y="362"/>
      <point x="260" y="369"/>
      <point x="233" y="369" type="curve" smooth="yes"/>
      <point x="135" y="369"/>
      <point x="84" y="297"/>
      <point x="84" y="236" type="curve" smooth="yes"/>
      <point x="84" y="59"/>
      <point x="299" y="-33"/>
      <point x="508" y="-33" type="curve" smooth="yes"/>
      <point x="821" y="-33"/>
      <point x="1120" y="156"/>
    </contour>
  </outline>
</glyph>
<glyph name="DigitSeven" format="1">
  <advance width="1202"/>
  <unicode hex="0037"/>
  <outline>
    <contour>
      <point x="1000" y="1229" type="line"/>
      <point x="1000" y="1374" type="line"/>
      <point x="-50" y="1374" type="line"/>
      <point x="-50" y="938" type="line"/>
      <point x="93" y="938" type="line"/>
      <point x="124" y="1128" type="line"/>
      <point x="716" y="1128" type="line"/>
      <point x="48" y="-33" type="line"/>
      <point x="310" y="-33" type="line"/>
      <point x="310" y="29" type="line"/>
    </contour>
    <contour>
      <point x="475" y="-100" type="move" name="L"/>
    </contour>
    <contour>
      <point x="475" y="1500" type="move" name="U"/>
    </contour>
  </outline>
</glyph>
<glyph name="DigitNine" format="2">
  <advance width="1202"/>
  <unicode hex="0039"/>
  <anchor x="602" y="-100" name="L"/>
  <anchor x="602" y="1500" name="U"/>
  <outline>
    <contour>
      <point x="1130" y="776" type="curve" smooth="yes"/>
      <point x="1130" y="1182"/>
      <point x="926" y="1407"/>
      <point x="584" y="1407" type="curve" smooth="yes"/>
      <point x="307" y="1407"/>
      <point x="74" y="1196"/>
      <point x="74" y="879" type="curve" smooth="yes"/>
      <point x="74" y="684"/>
      <point x="215" y="463"/>
      <point x="504" y="463" type="curve" smooth="yes"/>
      <point x="680" y="463"/>
      <point x="819" y="565"/>
      <point x="819" y="565" type="curve"/>
      <point x="778" y="299"/>
      <point x="635" y="137"/>
      <point x="338" y="117" type="curve"/>
      <point x="248" y="127" type="line"/>
      <point x="248" y="-33" type="line"/>
      <point x="776" y="-39"/>
      <point x="1130" y="240"/>
    </contour>
    <contour>
      <point x="836" y="852" type="curve"/>
      <point x="836" y="852"/>
      <point x="840" y="770"/>
      <point x="834" y="680" type="curve"/>
      <point x="834" y="680"/>
      <point x="750" y="637"/>
      <point x="635" y="637" type="curve" smooth="yes"/>
      <point x="451" y="637"/>
      <point x="367" y="760"/>
      <point x="367" y="940" type="curve" smooth="yes"/>
      <point x="367" y="1114"/>
      <point x="438" y="1274"/>
      <point x="582" y="1274" type="curve" smooth="yes"/>
      <point x="760" y="1274"/>
      <point x="836" y="1047"/>
    </contour>
  </outline>
</glyph>
<glyph name="LtnCapC" format="2">
  <advance width="1303"/>
  <unicode hex="0043"/>
  <anchor x="742" y="0" name="H"/>
  <anchor x="763" y="-100" name="L"/>
  <anchor x="763" y="1500" name="U"/>
  <outline>
    <contour>
      <point x="1229" y="49" type="curve"/>
      <point x="1229" y="408" type="line"/>
      <point x="1067" y="408" type="line"/>
      <point x="1022" y="166" type="line"/>
      <point x="1018" y="154"/>
      <point x="997" y="131"/>
      <point x="987" y="127" type="curve" smooth="yes"/>
      <point x="965" y="117"/>
      <point x="918" y="100"/>
      <point x="868" y="100" type="curve" smooth="yes"/>
      <point x="524" y="100"/>
      <point x="397" y="397"/>
      <point x="397" y="684" type="curve" smooth="yes"/>
      <point x="397" y="1038"/>
      <point x="571" y="1268"/>
      <point x="852" y="1268" type="curve" smooth="yes"/>
      <point x="903" y="1268"/>
      <point x="975" y="1245"/>
      <point x="997" y="1235" type="curve" smooth="yes"/>
      <point x="1012" y="1229"/>
      <point x="1024" y="1208"/>
      <point x="1024" y="1202" type="curve" smooth="yes"/>
      <point x="1069" y="973" type="line"/>
      <point x="1229" y="973" type="line"/>
      <point x="1229" y="1321" type="line"/>
      <point x="1038" y="1382"/>
      <point x="952" y="1407"/>
      <point x="797" y="1407" type="curve" smooth="yes"/>
      <point x="391" y="1407"/>
      <point x="76" y="1114"/>
      <point x="76" y="688" type="curve" smooth="yes"/>
      <point x="76" y="266"/>
      <point x="375" y="-33"/>
      <point x="795" y="-33" type="curve" smooth="yes"/>
      <point x="1006" y="-33"/>
      <point x="1178" y="29"/>
    </contour>
  </outline>
</glyph>
<glyph name="LtnCapD" format="2">
  <advance width="1483"/>
  <unicode hex="0044"/>
  <anchor x="713" y="-100" name="L"/>
  <anchor x="713" y="1500" name="U"/>
  <outline>
    <contour>
      <point x="1407" y="702" type="curve" smooth="yes"/>
      <point x="1407" y="1102"/>
      <point x="1147" y="1374"/>
      <point x="680" y="1374" type="curve" smooth="yes"/>
      <point x="53" y="1374" type="line"/>
      <point x="53" y="1270" type="line"/>
      <point x="166" y="1260" type="line" smooth="yes"/>
      <point x="190" y="1257"/>
      <point x="213" y="1241"/>
      <point x="213" y="1214" type="curve" smooth="yes"/>
      <point x="213" y="160" type="line" smooth="yes"/>
      <point x="213" y="133"/>
      <point x="190" y="117"/>
      <point x="166" y="115" type="curve" smooth="yes"/>
      <point x="53" y="104" type="line"/>
      <point x="53" y="0" type="line"/>
      <point x="692" y="0" type="line" smooth="yes"/>
      <point x="1126" y="0"/>
      <point x="1407" y="233"/>
    </contour>
    <contour>
      <point x="1077" y="680" type="curve" smooth="yes"/>
      <point x="1077" y="242"/>
      <point x="852" y="129"/>
      <point x="676" y="125" type="curve" smooth="yes"/>
      <point x="506" y="121" type="line"/>
      <point x="506" y="1255" type="line"/>
      <point x="635" y="1255" type="line" smooth="yes"/>
      <point x="846" y="1255"/>
      <point x="1077" y="1151"/>
    </contour>
  </outline>
</glyph>
<glyph name="LtnCapG" format="2">
  <advance width="1466"/>
  <unicode hex="0047"/>
  <anchor x="789" y="0" name="H"/>
  <anchor x="789" y="-100" name="L"/>
  <anchor x="789" y="1500" name="U"/>
  <outline>
    <contour>
      <point x="1419" y="575" type="line"/>
      <point x="1419" y="680" type="line"/>
      <point x="801" y="680" type="line"/>
      <point x="801" y="575" type="line"/>
      <point x="938" y="565" type="line"/>
      <point x="963" y="565"/>
      <point x="985" y="547"/>
      <point x="985" y="520" type="curve" smooth="yes"/>
      <point x="985" y="121" type="line"/>
      <point x="936" y="117"/>
      <point x="911" y="121"/>
      <point x="893" y="121" type="curve" smooth="yes"/>
      <point x="571" y="121"/>
      <point x="393" y="346"/>
      <point x="393" y="698" type="curve" smooth="yes"/>
      <point x="393" y="989"/>
      <point x="528" y="1272"/>
      <point x="885" y="1272" type="curve" smooth="yes"/>
      <point x="907" y="1272"/>
      <point x="969" y="1261"/>
      <point x="1032" y="1237" type="curve" smooth="yes"/>
      <point x="1049" y="1231"/>
      <point x="1066" y="1208"/>
      <point x="1069" y="1194" type="curve"/>
      <point x="1110" y="973" type="line"/>
      <point x="1270" y="973" type="line"/>
      <point x="1270" y="1327" type="line"/>
      <point x="1270" y="1327"/>
      <point x="1077" y="1407"/>
      <point x="809" y="1407" type="curve" smooth="yes"/>
      <point x="385" y="1407"/>
      <point x="76" y="1133"/>
      <point x="76" y="690" type="curve" smooth="yes"/>
      <point x="76" y="254"/>
      <point x="383" y="-33"/>
      <point x="793" y="-33" type="curve" smooth="yes"/>
      <point x="1067" y="-33"/>
      <point x="1268" y="63"/>
      <point x="1268" y="63" type="curve"/>
      <point x="1268" y="520" type="line" smooth="yes"/>
      <point x="1268" y="547"/>
      <point x="1290" y="563"/>
      <point x="1315" y="565" type="curve" smooth="yes"/>
    </contour>
  </outline>
</glyph>
<glyph name="LtnCapI" format="2">
  <advance width="735"/>
  <unicode hex="0049"/>
  <anchor x="366" y="0" name="H"/>
  <anchor x="366" y="-100" name="L"/>
  <anchor x="551" y="0" name="O"/>
  <anchor x="735" y="1200" name="R"/>
  <anchor x="366" y="1500" name="U"/>
  <outline>
    <contour>
      <point x="686" y="0" type="line"/>
      <point x="686" y="104" type="line"/>
      <point x="559" y="115" type="line" smooth="yes"/>
      <point x="537" y="117"/>
      <point x="512" y="133"/>
      <point x="512" y="160" type="curve" smooth="yes"/>
      <point x="512" y="1214" type="line" smooth="yes"/>
      <point x="512" y="1241"/>
      <point x="537" y="1257"/>
      <point x="559" y="1260" type="curve" smooth="yes"/>
      <point x="686" y="1270" type="line"/>
      <point x="686" y="1374" type="line"/>
      <point x="47" y="1374" type="line"/>
      <point x="47" y="1270" type="line"/>
      <point x="174" y="1260" type="line" smooth="yes"/>
      <point x="199" y="1257"/>
      <point x="219" y="1241"/>
      <point x="219" y="1214" type="curve" smooth="yes"/>
      <point x="219" y="160" type="line" smooth="yes"/>
      <point x="219" y="133"/>
      <point x="199" y="117"/>
      <point x="174" y="115" type="curve" smooth="yes"/>
      <point x="47" y="104" type="line"/>
      <point x="47" y="0" type="line"/>
    </contour>
  </outline>
</glyph>
<glyph name="LtnCapN" format="2">
  <advance width="1524"/>
  <unicode hex="004E"/>
  <anchor x="1177" y="0" name="H"/>
  <anchor x="759" y="-100" name="L"/>
  <anchor x="759" y="1500" name="U"/>
  <outline>
    <contour>
      <point x="1464" y="1270" type="line"/>
      <point x="1464" y="1374" type="line"/>
      <point x="989" y="1374" type="line"/>
      <point x="989" y="1270" type="line"/>
      <point x="1106" y="1260" type="line" smooth="yes"/>
      <point x="1130" y="1257"/>
      <point x="1153" y="1241"/>
      <point x="1153" y="1214" type="curve" smooth="yes"/>
      <point x="1153" y="395" type="line"/>
      <point x="563" y="1319" type="line"/>
      <point x="563" y="1374" type="line"/>
      <point x="57" y="1374" type="line"/>
      <point x="57" y="1270" type="line"/>
      <point x="168" y="1260" type="line" smooth="yes"/>
      <point x="193" y="1257"/>
      <point x="213" y="1241"/>
      <point x="213" y="1214" type="curve" smooth="yes"/>
      <point x="213" y="160" type="line" smooth="yes"/>
      <point x="213" y="133"/>
      <point x="193" y="117"/>
      <point x="168" y="115" type="curve" smooth="yes"/>
      <point x="55" y="104" type="line"/>
      <point x="55" y="0" type="line"/>
      <point x="528" y="0" type="line"/>
      <point x="528" y="104" type="line"/>
      <point x="414" y="115" type="line" smooth="yes"/>
      <point x="391" y="117"/>
      <point x="369" y="133"/>
      <point x="369" y="160" type="curve" smooth="yes"/>
      <point x="369" y="1083" type="line"/>
      <point x="1059" y="0" type="line"/>
      <point x="1309" y="0" type="line"/>
      <point x="1309" y="1214" type="line" smooth="yes"/>
      <point x="1309" y="1241"/>
      <point x="1331" y="1257"/>
      <point x="1354" y="1260" type="curve" smooth="yes"/>
    </contour>
  </outline>
</glyph>
<glyph name="LtnCapS" format="2">
  <advance width="1098"/>
  <unicode hex="0053"/>
  <anchor x="558" y="0" name="H"/>
  <anchor x="558" y="-100" name="L"/>
  <anchor x="579" y="1500" name="U"/>
  <outline>
    <contour>
      <point x="1022" y="401" type="curve" smooth="yes"/>
      <point x="1022" y="617"/>
      <point x="852" y="709"/>
      <point x="666" y="801" type="curve" smooth="yes"/>
      <point x="522" y="872"/>
      <point x="389" y="940"/>
      <point x="389" y="1085" type="curve" smooth="yes"/>
      <point x="389" y="1206"/>
      <point x="506" y="1270"/>
      <point x="641" y="1270" type="curve" smooth="yes"/>
      <point x="705" y="1270"/>
      <point x="749" y="1251"/>
      <point x="764" y="1237" type="curve"/>
      <point x="776" y="1229"/>
      <point x="792" y="1216"/>
      <point x="793" y="1208" type="curve" smooth="yes"/>
      <point x="827" y="989" type="line"/>
      <point x="985" y="989" type="line"/>
      <point x="985" y="1325" type="line"/>
      <point x="908" y="1360"/>
      <point x="751" y="1407"/>
      <point x="598" y="1407" type="curve" smooth="yes"/>
      <point x="334" y="1407"/>
      <point x="104" y="1257"/>
      <point x="104" y="991" type="curve" smooth="yes"/>
      <point x="104" y="799"/>
      <point x="237" y="702"/>
      <point x="383" y="627" type="curve" smooth="yes"/>
      <point x="607" y="512"/>
      <point x="721" y="443"/>
      <point x="721" y="299" type="curve" smooth="yes"/>
      <point x="721" y="162"/>
      <point x="578" y="106"/>
      <point x="457" y="106" type="curve" smooth="yes"/>
      <point x="400" y="106"/>
      <point x="333" y="126"/>
      <point x="299" y="141" type="curve"/>
      <point x="293" y="141"/>
      <point x="274" y="156"/>
      <point x="272" y="172" type="curve" smooth="yes"/>
      <point x="238" y="420" type="line"/>
      <point x="76" y="420" type="line"/>
      <point x="76" y="45" type="line"/>
      <point x="156" y="11"/>
      <point x="320" y="-33"/>
      <point x="475" y="-33" type="curve" smooth="yes"/>
      <point x="764" y="-33"/>
      <point x="1022" y="113"/>
    </contour>
  </outline>
</glyph>
<glyph name="CircumAccent" format="1">
  <advance width="696"/>
  <unicode hex="005E"/>
  <outline>
    <component base="CombCircum" xOffset="946"/>
    <contour>
      <point x="348" y="1500" type="move" name="U"/>
    </contour>
  </outline>
</glyph>
<glyph name="GraveAccent" format="1">
  <advance width="766"/>
  <unicode hex="0060"/>
  <outline>
    <component base="CombGrave" xOffset="923"/>
    <contour>
      <point x="325" y="1500" type="move" name="U"/>
    </contour>
  </outline>
</glyph>
<glyph name="LtnSmB" format="1">
  <advance width="1225"/>
  <unicode hex="0062"/>
  <outline>
    <contour>
      <point x="1159" y="561" type="curve" smooth="yes"/>
      <point x="1159" y="854"/>
      <point x="975" y="1024"/>
      <point x="756" y="1024" type="curve" smooth="yes"/>
      <point x="602" y="1024"/>
      <point x="459" y="930"/>
      <point x="459" y="930" type="curve"/>
      <point x="459" y="1516" type="line"/>
      <point x="354" y="1516" type="line"/>
      <point x="41" y="1413" type="line"/>
      <point x="41" y="1329" type="line"/>
      <point x="184" y="1329" type="line"/>
      <point x="184" y="0" type="line"/>
      <point x="559" y="0" type="line" smooth="yes"/>
      <point x="942" y="0"/>
      <point x="1159" y="246"/>
    </contour>
    <contour>
      <point x="862" y="500" type="curve" smooth="yes"/>
      <point x="862" y="209"/>
      <point x="729" y="113"/>
      <point x="502" y="113" type="curve" smooth="yes"/>
      <point x="489" y="113"/>
      <point x="483" y="115"/>
      <point x="459" y="115" type="curve"/>
      <point x="459" y="842" type="line"/>
      <point x="459" y="842"/>
      <point x="518" y="854"/>
      <point x="567" y="854" type="curve" smooth="yes"/>
      <point x="760" y="854"/>
      <point x="862" y="721"/>
    </contour>
    <contour>
      <point x="613" y="0" type="move" name="H"/>
    </contour>
    <contour>
      <point x="656" y="-100" type="move" name="L"/>
    </contour>
    <contour>
      <point x="1225" y="1000" type="move" name="R"/>
    </contour>
    <contour>
      <point x="656" y="1540" type="move" name="U"/>
    </contour>
  </outline>
</glyph>
<glyph name="LtnSmF" format="1">
  <advance width="711"/>
  <unicode hex="0066"/>
  <outline>
    <contour>
      <point x="860" y="1352" type="curve" smooth="yes"/>
      <point x="860" y="1468"/>
      <point x="745" y="1516"/>
      <point x="664" y="1516" type="curve" smooth="yes"/>
      <point x="496" y="1516"/>
      <point x="360" y="1419"/>
      <point x="279" y="1286" type="curve" smooth="yes"/>
      <point x="221" y="1196"/>
      <point x="190" y="1100"/>
      <point x="190" y="993" type="curve"/>
      <point x="59" y="926" type="line"/>
      <point x="59" y="844" type="line"/>
      <point x="193" y="844" type="line"/>
      <point x="193" y="150" type="line" smooth="yes"/>
      <point x="193" y="125"/>
      <point x="172" y="104"/>
      <point x="147" y="102" type="curve" smooth="yes"/>
      <point x="43" y="96" type="line"/>
      <point x="43" y="0" type="line"/>
      <point x="637" y="0" type="line"/>
      <point x="637" y="96" type="line"/>
      <point x="512" y="102" type="line"/>
      <point x="485" y="102"/>
      <point x="467" y="125"/>
      <point x="467" y="150" type="curve" smooth="yes"/>
      <point x="467" y="844" type="line"/>
      <point x="688" y="844" type="line"/>
      <point x="688" y="975" type="line"/>
      <point x="465" y="975" type="line"/>
      <point x="465" y="1094" type="line" smooth="yes"/>
      <point x="465" y="1280"/>
      <point x="489" y="1346"/>
      <point x="530" y="1407" type="curve"/>
      <point x="733" y="1217" type="line"/>
      <point x="799" y="1239"/>
      <point x="860" y="1288"/>
    </contour>
    <contour>
      <point x="330" y="0" type="move" name="H"/>
    </contour>
    <contour>
      <point x="330" y="-100" type="move" name="L"/>
    </contour>
    <contour>
      <point x="537" y="1480" type="move" name="U"/>
    </contour>
  </outline>
</glyph>
<glyph name="LtnSmM" format="2">
  <advance width="1855"/>
  <unicode hex="006D"/>
  <anchor x="1543" y="0" name="H"/>
  <anchor x="921" y="-100" name="L"/>
  <anchor x="921" y="1100" name="U"/>
  <outline>
    <contour>
      <point x="1798" y="0" type="line"/>
      <point x="1798" y="96" type="line"/>
      <point x="1724" y="102" type="line" smooth="yes"/>
      <point x="1700" y="104"/>
      <point x="1679" y="125"/>
      <point x="1679" y="150" type="curve" smooth="yes"/>
      <point x="1679" y="711" type="line" smooth="yes"/>
      <point x="1679" y="807"/>
      <point x="1645" y="1024"/>
      <point x="1397" y="1024" type="curve" smooth="yes"/>
      <point x="1237" y="1024"/>
      <point x="1032" y="885"/>
      <point x="1032" y="885" type="curve"/>
      <point x="995" y="930"/>
      <point x="940" y="1024"/>
      <point x="784" y="1024" type="curve" smooth="yes"/>
      <point x="625" y="1024"/>
      <point x="449" y="899"/>
      <point x="449" y="899" type="curve"/>
      <point x="449" y="1024" type="line"/>
      <point x="346" y="1024" type="line"/>
      <point x="45" y="920" type="line"/>
      <point x="45" y="836" type="line"/>
      <point x="176" y="836" type="line"/>
      <point x="176" y="150" type="line" smooth="yes"/>
      <point x="176" y="125"/>
      <point x="156" y="104"/>
      <point x="131" y="102" type="curve" smooth="yes"/>
      <point x="55" y="96" type="line"/>
      <point x="55" y="0" type="line"/>
      <point x="559" y="0" type="line"/>
      <point x="559" y="96" type="line"/>
      <point x="496" y="102" type="line" smooth="yes"/>
      <point x="471" y="104"/>
      <point x="449" y="125"/>
      <point x="449" y="150" type="curve" smooth="yes"/>
      <point x="449" y="803" type="line"/>
      <point x="449" y="803"/>
      <point x="502" y="836"/>
      <point x="614" y="836" type="curve" smooth="yes"/>
      <point x="741" y="836"/>
      <point x="791" y="743"/>
      <point x="791" y="643" type="curve" smooth="yes"/>
      <point x="791" y="150" type="line" smooth="yes"/>
      <point x="791" y="125"/>
      <point x="770" y="104"/>
      <point x="745" y="102" type="curve" smooth="yes"/>
      <point x="682" y="96" type="line"/>
      <point x="682" y="0" type="line"/>
      <point x="1174" y="0" type="line"/>
      <point x="1174" y="96" type="line"/>
      <point x="1110" y="102" type="line" smooth="yes"/>
      <point x="1085" y="104"/>
      <point x="1065" y="125"/>
      <point x="1065" y="150" type="curve" smooth="yes"/>
      <point x="1065" y="803" type="line"/>
      <point x="1065" y="803"/>
      <point x="1141" y="836"/>
      <point x="1229" y="836" type="curve" smooth="yes"/>
      <point x="1364" y="836"/>
      <point x="1407" y="743"/>
      <point x="1407" y="643" type="curve" smooth="yes"/>
      <point x="1407" y="150" type="line" smooth="yes"/>
      <point x="1407" y="125"/>
      <point x="1384" y="104"/>
      <point x="1360" y="102" type="curve" smooth="yes"/>
      <point x="1296" y="96" type="line"/>
      <point x="1296" y="0" type="line"/>
    </contour>
  </outline>
</glyph>
<glyph name="LtnSmN" format="2">
  <advance width="1280"/>
  <unicode hex="006E"/>
  <anchor x="960" y="0" name="H"/>
  <anchor x="624" y="-100" name="L"/>
  <anchor x="624" y="1100" name="U"/>
  <outline>
    <contour>
      <point x="1206" y="0" type="line"/>
      <point x="1206" y="96" type="line"/>
      <point x="1143" y="102" type="line" smooth="yes"/>
      <point x="1118" y="104"/>
      <point x="1096" y="125"/>
      <point x="1096" y="150" type="curve" smooth="yes"/>
      <point x="1096" y="668" type="line" smooth="yes"/>
      <point x="1096" y="846"/>
      <point x="1053" y="1024"/>
      <point x="817" y="1024" type="curve" smooth="yes"/>
      <point x="689" y="1024"/>
      <point x="537" y="953"/>
      <point x="459" y="899" type="curve"/>
      <point x="459" y="1024" type="line"/>
      <point x="352" y="1024" type="line"/>
      <point x="43" y="920" type="line"/>
      <point x="43" y="836" type="line"/>
      <point x="184" y="836" type="line"/>
      <point x="184" y="150" type="line" smooth="yes"/>
      <point x="184" y="125"/>
      <point x="164" y="104"/>
      <point x="139" y="102" type="curve" smooth="yes"/>
      <point x="66" y="96" type="line"/>
      <point x="66" y="0" type="line"/>
      <point x="567" y="0" type="line"/>
      <point x="567" y="96" type="line"/>
      <point x="506" y="102" type="line" smooth="yes"/>
      <point x="481" y="104"/>
      <point x="459" y="125"/>
      <point x="459" y="150" type="curve" smooth="yes"/>
      <point x="459" y="809" type="line"/>
      <point x="495" y="821"/>
      <point x="573" y="836"/>
      <point x="655" y="836" type="curve" smooth="yes"/>
      <point x="778" y="836"/>
      <point x="823" y="735"/>
      <point x="823" y="631" type="curve" smooth="yes"/>
      <point x="823" y="150" type="line" smooth="yes"/>
      <point x="823" y="125"/>
      <point x="803" y="104"/>
      <point x="778" y="102" type="curve" smooth="yes"/>
      <point x="702" y="96" type="line"/>
      <point x="702" y="0" type="line"/>
    </contour>
  </outline>
</glyph>
<glyph name="LtnSmQ" format="2">
  <advance width="1235"/>
  <unicode hex="0071"/>
  <anchor x="349" y="-100" name="L"/>
  <anchor x="1235" y="1000" name="R"/>
  <anchor x="623" y="1100" name="U"/>
  <outline>
    <contour>
      <point x="1180" y="-449" type="line"/>
      <point x="1180" y="-352" type="line"/>
      <point x="1096" y="-346" type="line"/>
      <point x="1071" y="-346"/>
      <point x="1051" y="-326"/>
      <point x="1051" y="-299" type="curve" smooth="yes"/>
      <point x="1051" y="999" type="line"/>
      <point x="1051" y="999"/>
      <point x="866" y="1024"/>
      <point x="727" y="1024" type="curve" smooth="yes"/>
      <point x="340" y="1024"/>
      <point x="66" y="856"/>
      <point x="66" y="469" type="curve" smooth="yes"/>
      <point x="66" y="205"/>
      <point x="221" y="-25"/>
      <point x="467" y="-25" type="curve" smooth="yes"/>
      <point x="633" y="-25"/>
      <point x="776" y="80"/>
      <point x="776" y="80" type="curve"/>
      <point x="776" y="-299" type="line" smooth="yes"/>
      <point x="776" y="-326"/>
      <point x="758" y="-346"/>
      <point x="731" y="-346" type="curve"/>
      <point x="618" y="-352" type="line"/>
      <point x="618" y="-449" type="line"/>
    </contour>
    <contour>
      <point x="776" y="162" type="line"/>
      <point x="776" y="162"/>
      <point x="705" y="154"/>
      <point x="645" y="154" type="curve" smooth="yes"/>
      <point x="469" y="154"/>
      <point x="365" y="293"/>
      <point x="365" y="516" type="curve" smooth="yes"/>
      <point x="365" y="735"/>
      <point x="451" y="903"/>
      <point x="694" y="903" type="curve" smooth="yes"/>
      <point x="741" y="903"/>
      <point x="776" y="895"/>
      <point x="776" y="895" type="curve"/>
    </contour>
  </outline>
</glyph>
<glyph name="LtnSmR" format="1">
  <advance width="885"/>
  <unicode hex="0072"/>
  <outline>
    <contour>
      <point x="864" y="676" type="line"/>
      <point x="864" y="987" type="line"/>
      <point x="840" y="1006"/>
      <point x="782" y="1024"/>
      <point x="735" y="1024" type="curve" smooth="yes"/>
      <point x="641" y="1024"/>
      <point x="510" y="872"/>
      <point x="459" y="807" type="curve"/>
      <point x="459" y="1024" type="line"/>
      <point x="352" y="1024" type="line"/>
      <point x="35" y="920" type="line"/>
      <point x="35" y="836" type="line"/>
      <point x="184" y="836" type="line"/>
      <point x="184" y="147" type="line" smooth="yes"/>
      <point x="184" y="123"/>
      <point x="164" y="102"/>
      <point x="139" y="100" type="curve" smooth="yes"/>
      <point x="49" y="94" type="line"/>
      <point x="49" y="-2" type="line"/>
      <point x="635" y="-2" type="line"/>
      <point x="635" y="94" type="line"/>
      <point x="504" y="100" type="line" smooth="yes"/>
      <point x="477" y="100"/>
      <point x="459" y="123"/>
      <point x="459" y="147" type="curve" smooth="yes"/>
      <point x="459" y="721" type="line"/>
      <point x="459" y="721"/>
      <point x="514" y="758"/>
      <point x="592" y="758" type="curve" smooth="yes"/>
      <point x="672" y="758"/>
      <point x="707" y="702"/>
      <point x="725" y="676" type="curve"/>
    </contour>
    <contour>
      <point x="480" y="1100" type="move" name="U"/>
    </contour>
    <contour>
      <point x="309" y="-100" type="move" name="L"/>
    </contour>
    <contour>
      <point x="309" y="0" type="move" name="H"/>
    </contour>
  </outline>
</glyph>
<glyph name="LtnSmT" format="1">
  <advance width="768"/>
  <unicode hex="0074"/>
  <outline>
    <contour>
      <point x="760" y="45" type="curve"/>
      <point x="760" y="147" type="line"/>
      <point x="760" y="147"/>
      <point x="692" y="133"/>
      <point x="627" y="133" type="curve" smooth="yes"/>
      <point x="518" y="133"/>
      <point x="459" y="180"/>
      <point x="459" y="311" type="curve" smooth="yes"/>
      <point x="459" y="868" type="line"/>
      <point x="743" y="868" type="line"/>
      <point x="743" y="999" type="line"/>
      <point x="459" y="999" type="line"/>
      <point x="459" y="1262" type="line"/>
      <point x="317" y="1262" type="line"/>
      <point x="207" y="1044" type="line"/>
      <point x="49" y="950" type="line"/>
      <point x="49" y="868" type="line"/>
      <point x="184" y="868" type="line"/>
      <point x="184" y="227" type="line" smooth="yes"/>
      <point x="184" y="55"/>
      <point x="250" y="-25"/>
      <point x="432" y="-25" type="curve" smooth="yes"/>
      <point x="598" y="-25"/>
      <point x="760" y="45"/>
    </contour>
    <contour>
      <point x="392" y="1363" type="move" name="U"/>
    </contour>
    <contour>
      <point x="404" y="-100" type="move" name="L"/>
    </contour>
    <contour>
      <point x="768" y="1000" type="move" name="R"/>
    </contour>
    <contour>
      <point x="404" y="0" type="move" name="H"/>
    </contour>
  </outline>
</glyph>
<glyph name="RtCurlyBrac" format="1">
  <advance width="1014"/>
  <unicode hex="007D"/>
  <outline>
    <contour>
      <point x="930" y="537" type="curve"/>
      <point x="930" y="659" type="line"/>
      <point x="930" y="659"/>
      <point x="784" y="635"/>
      <point x="705" y="715" type="curve" smooth="yes"/>
      <point x="584" y="836"/>
      <point x="739" y="1196"/>
      <point x="555" y="1362" type="curve" smooth="yes"/>
      <point x="453" y="1454"/>
      <point x="197" y="1446"/>
      <point x="150" y="1446" type="curve"/>
      <point x="150" y="1333" type="line"/>
      <point x="150" y="1333"/>
      <point x="281" y="1339"/>
      <point x="344" y="1278" type="curve" smooth="yes"/>
      <point x="467" y="1159"/>
      <point x="322" y="848"/>
      <point x="489" y="688" type="curve" smooth="yes"/>
      <point x="586" y="596"/>
      <point x="711" y="598"/>
      <point x="711" y="598" type="curve"/>
      <point x="711" y="598"/>
      <point x="586" y="598"/>
      <point x="489" y="506" type="curve" smooth="yes"/>
      <point x="322" y="346"/>
      <point x="467" y="37"/>
      <point x="344" y="-82" type="curve" smooth="yes"/>
      <point x="281" y="-143"/>
      <point x="150" y="-137"/>
      <point x="150" y="-137" type="curve"/>
      <point x="150" y="-250" type="line"/>
      <point x="197" y="-250"/>
      <point x="453" y="-258"/>
      <point x="555" y="-166" type="curve" smooth="yes"/>
      <point x="739" y="0"/>
      <point x="584" y="356"/>
      <point x="705" y="479" type="curve" smooth="yes"/>
      <point x="784" y="559"/>
      <point x="930" y="537"/>
    </contour>
  </outline>
</glyph>
<glyph name="PoundSgn" format="2">
  <advance width="1202"/>
  <unicode hex="00A3"/>
  <outline>
    <contour>
      <point x="1114" y="0" type="line"/>
      <point x="1114" y="217" type="line"/>
      <point x="481" y="217" type="line" smooth="yes"/>
      <point x="472" y="217"/>
      <point x="399" y="208"/>
      <point x="346" y="201" type="curve"/>
      <point x="539" y="330"/>
      <point x="567" y="463"/>
      <point x="567" y="608" type="curve"/>
      <point x="934" y="608" type="line"/>
      <point x="934" y="739" type="line"/>
      <point x="563" y="739" type="line"/>
      <point x="561" y="758"/>
      <point x="559" y="802"/>
      <point x="559" y="850" type="curve" smooth="yes"/>
      <point x="559" y="981"/>
      <point x="560" y="1294"/>
      <point x="799" y="1294" type="curve" smooth="yes"/>
      <point x="833" y="1294"/>
      <point x="854" y="1289"/>
      <point x="860" y="1286" type="curve"/>
      <point x="860" y="1036" type="line"/>
      <point x="883" y="1028"/>
      <point x="922" y="1018"/>
      <point x="948" y="1018" type="curve" smooth="yes"/>
      <point x="1032" y="1018"/>
      <point x="1114" y="1067"/>
      <point x="1114" y="1161" type="curve" smooth="yes"/>
      <point x="1114" y="1335"/>
      <point x="907" y="1407"/>
      <point x="762" y="1407" type="curve" smooth="yes"/>
      <point x="428" y="1407"/>
      <point x="287" y="1163"/>
      <point x="287" y="842" type="curve" smooth="yes"/>
      <point x="287" y="812"/>
      <point x="292" y="766"/>
      <point x="295" y="739" type="curve"/>
      <point x="154" y="739" type="line"/>
      <point x="154" y="608" type="line"/>
      <point x="299" y="608" type="line"/>
      <point x="299" y="518" type="line" smooth="yes"/>
      <point x="299" y="261"/>
      <point x="217" y="180"/>
      <point x="86" y="156" type="curve"/>
      <point x="86" y="0" type="line"/>
    </contour>
  </outline>
</glyph>
<glyph name="PoundSgn" format="1">
  <advance width="1202"/>
  <unicode hex="00A3"/>
  <outline>
    <contour>
      <point x="1114" y="0" type="line"/>
      <point x="1114" y="217" type="line"/>
      <point x="481" y="217" type="line" smooth="yes"/>
      <point x="469" y="217"/>
      <point x="346" y="201"/>
      <point x="346" y="201" type="curve"/>
      <point x="539" y="330"/>
      <point x="567" y="463"/>
      <point x="567" y="608" type="curve"/>
      <point x="934" y="608" type="line"/>
      <point x="934" y="739" type="line"/>
      <point x="563" y="739" type="line"/>
      <point x="563" y="739"/>
      <point x="559" y="784"/>
      <point x="559" y="850" type="curve" smooth="yes"/>
      <point x="559" y="981"/>
      <point x="551" y="1294"/>
      <point x="799" y="1294" type="curve" smooth="yes"/>
      <point x="846" y="1294"/>
      <point x="860" y="1286"/>
      <point x="860" y="1286" type="curve"/>
      <point x="860" y="1036" type="line"/>
      <point x="860" y="1036"/>
      <point x="913" y="1018"/>
      <point x="948" y="1018" type="curve" smooth="yes"/>
      <point x="1032" y="1018"/>
      <point x="1114" y="1067"/>
      <point x="1114" y="1161" type="curve" smooth="yes"/>
      <point x="1114" y="1335"/>
      <point x="907" y="1407"/>
      <point x="762" y="1407" type="curve" smooth="yes"/>
      <point x="428" y="1407"/>
      <point x="287" y="1163"/>
      <point x="287" y="842" type="curve" smooth="yes"/>
      <point x="287" y="801"/>
      <point x="295" y="739"/>
      <point x="295" y="739" type="curve"/>
      <point x="154" y="739" type="line"/>
      <point x="154" y="608" type="line"/>
      <point x="297" y="608" type="line"/>
      <point x="299" y="518" type="line" smooth="yes"/>
      <point x="305" y="160"/>
      <point x="125" y="174"/>
      <point x="86" y="156" type="curve"/>
      <point x="86" y="0" type="line"/>
    </contour>
  </outline>
</glyph>
<glyph name="YenSgn" format="2">
  <advance width="1300"/>
  <unicode hex="00A5"/>
  <outline>
    <contour>
      <point x="1286" y="1270" type="line"/>
      <point x="1286" y="1374" type="line"/>
      <point x="848" y="1374" type="line"/>
      <point x="848" y="1272" type="line"/>
      <point x="948" y="1251" type="line" smooth="yes"/>
      <point x="985" y="1243"/>
      <point x="983" y="1219"/>
      <point x="975" y="1206" type="curve" smooth="yes"/>
      <point x="713" y="725" type="line"/>
      <point x="457" y="1217" type="line" smooth="yes"/>
      <point x="446" y="1237"/>
      <point x="463" y="1260"/>
      <point x="483" y="1262" type="curve" smooth="yes"/>
      <point x="578" y="1270" type="line"/>
      <point x="578" y="1374" type="line"/>
      <point x="14" y="1374" type="line"/>
      <point x="14" y="1270" type="line"/>
      <point x="139" y="1249" type="line"/>
      <point x="328" y="883" type="line"/>
      <point x="78" y="883" type="line"/>
      <point x="78" y="776" type="line"/>
      <point x="393" y="776" type="line"/>
      <point x="492" y="584" type="line"/>
      <point x="78" y="584" type="line"/>
      <point x="78" y="479" type="line"/>
      <point x="516" y="479" type="line"/>
      <point x="516" y="162" type="line" smooth="yes"/>
      <point x="516" y="147"/>
      <point x="502" y="121"/>
      <point x="465" y="117" type="curve" smooth="yes"/>
      <point x="342" y="106" type="line"/>
      <point x="342" y="0" type="line"/>
      <point x="977" y="0" type="line"/>
      <point x="977" y="106" type="line"/>
      <point x="856" y="117" type="line" smooth="yes"/>
      <point x="819" y="121"/>
      <point x="803" y="147"/>
      <point x="803" y="162" type="curve" smooth="yes"/>
      <point x="803" y="479" type="line"/>
      <point x="1233" y="479" type="line"/>
      <point x="1233" y="584" type="line"/>
      <point x="797" y="584" type="line"/>
      <point x="903" y="776" type="line"/>
      <point x="1233" y="776" type="line"/>
      <point x="1233" y="883" type="line"/>
      <point x="967" y="883" type="line"/>
      <point x="1169" y="1247" type="line"/>
    </contour>
  </outline>
</glyph>
<glyph name="SectionSgn" format="2">
  <advance width="1024"/>
  <unicode hex="00A7"/>
  <outline>
    <contour>
      <point x="471" y="-293" type="curve" smooth="yes"/>
      <point x="672" y="-293"/>
      <point x="897" y="-211"/>
      <point x="897" y="27" type="curve" smooth="yes"/>
      <point x="897" y="195"/>
      <point x="735" y="264"/>
      <point x="690" y="293" type="curve"/>
      <point x="705" y="301"/>
      <point x="938" y="381"/>
      <point x="938" y="627" type="curve" smooth="yes"/>
      <point x="938" y="993"/>
      <point x="365" y="991"/>
      <point x="365" y="1206" type="curve" smooth="yes"/>
      <point x="365" y="1309"/>
      <point x="459" y="1364"/>
      <point x="551" y="1364" type="curve" smooth="yes"/>
      <point x="668" y="1364"/>
      <point x="739" y="1309"/>
      <point x="739" y="1309" type="curve"/>
      <point x="762" y="1141" type="line"/>
      <point x="874" y="1141" type="line"/>
      <point x="874" y="1423" type="line"/>
      <point x="874" y="1423"/>
      <point x="739" y="1475"/>
      <point x="545" y="1475" type="curve" smooth="yes"/>
      <point x="324" y="1475"/>
      <point x="127" y="1380"/>
      <point x="127" y="1178" type="curve" smooth="yes"/>
      <point x="127" y="1006"/>
      <point x="272" y="940"/>
      <point x="326" y="907" type="curve"/>
      <point x="285" y="889"/>
      <point x="86" y="809"/>
      <point x="86" y="586" type="curve" smooth="yes"/>
      <point x="86" y="195"/>
      <point x="668" y="219"/>
      <point x="668" y="-20" type="curve" smooth="yes"/>
      <point x="668" y="-115"/>
      <point x="578" y="-178"/>
      <point x="475" y="-178" type="curve" smooth="yes"/>
      <point x="430" y="-178"/>
      <point x="338" y="-164"/>
      <point x="285" y="-131" type="curve"/>
      <point x="276" y="-68"/>
      <point x="267" y="-4"/>
      <point x="258" y="59" type="curve"/>
      <point x="133" y="59" type="line"/>
      <point x="133" y="-225" type="line"/>
      <point x="133" y="-225"/>
      <point x="276" y="-293"/>
    </contour>
    <contour>
      <point x="584" y="354" type="curve"/>
      <point x="465" y="414"/>
      <point x="268" y="481"/>
      <point x="268" y="651" type="curve" smooth="yes"/>
      <point x="268" y="801"/>
      <point x="432" y="842"/>
      <point x="438" y="846" type="curve"/>
      <point x="483" y="815"/>
      <point x="750" y="743"/>
      <point x="750" y="557" type="curve" smooth="yes"/>
      <point x="750" y="426"/>
      <point x="563" y="344"/>
    </contour>
  </outline>
</glyph>
<glyph name="Diaer" format="1">
  <advance width="713"/>
  <unicode hex="00A8"/>
  <outline>
    <component base="CombDiaer" xOffset="954"/>
    <contour>
      <point x="356" y="1500" type="move" name="U"/>
    </contour>
  </outline>
</glyph>
<glyph name="FemOrdIndicator" format="2">
  <advance width="735"/>
  <unicode hex="00AA"/>
  <outline>
    <contour>
      <point x="715" y="784" type="line"/>
      <point x="715" y="842" type="line"/>
      <point x="655" y="846" type="line" smooth="yes"/>
      <point x="639" y="846"/>
      <point x="627" y="858"/>
      <point x="627" y="874" type="curve" smooth="yes"/>
      <point x="627" y="1190" type="line" smooth="yes"/>
      <point x="627" y="1366"/>
      <point x="522" y="1399"/>
      <point x="369" y="1399" type="curve" smooth="yes"/>
      <point x="227" y="1399"/>
      <point x="72" y="1343"/>
      <point x="72" y="1253" type="curve" smooth="yes"/>
      <point x="72" y="1202"/>
      <point x="131" y="1208"/>
      <point x="131" y="1208" type="curve"/>
      <point x="268" y="1208" type="line"/>
      <point x="268" y="1325" type="line"/>
      <point x="268" y="1325"/>
      <point x="291" y="1329"/>
      <point x="326" y="1329" type="curve" smooth="yes"/>
      <point x="434" y="1329"/>
      <point x="453" y="1262"/>
      <point x="451" y="1214" type="curve"/>
      <point x="451" y="1214"/>
      <point x="451" y="1186"/>
      <point x="451" y="1167" type="curve"/>
      <point x="84" y="1094"/>
      <point x="43" y="1038"/>
      <point x="43" y="928" type="curve" smooth="yes"/>
      <point x="43" y="829"/>
      <point x="121" y="770"/>
      <point x="215" y="770" type="curve" smooth="yes"/>
      <point x="334" y="770"/>
      <point x="449" y="846"/>
      <point x="449" y="846" type="curve"/>
      <point x="465" y="784" type="line"/>
    </contour>
    <contour>
      <point x="711" y="616" type="line"/>
      <point x="711" y="688" type="line"/>
      <point x="98" y="688" type="line"/>
      <point x="98" y="616" type="line"/>
    </contour>
    <contour>
      <point x="449" y="897" type="line"/>
      <point x="449" y="897"/>
      <point x="383" y="872"/>
      <point x="326" y="872" type="curve" smooth="yes"/>
      <point x="270" y="872"/>
      <point x="231" y="911"/>
      <point x="231" y="963" type="curve" smooth="yes"/>
      <point x="231" y="1036"/>
      <point x="276" y="1069"/>
      <point x="449" y="1102" type="curve"/>
    </contour>
  </outline>
</glyph>
<glyph name="SupOne" format="1">
  <advance width="780"/>
  <unicode hex="00B9"/>
  <outline>
    <contour>
      <point x="618" y="784" type="line"/>
      <point x="618" y="848" type="line"/>
      <point x="512" y="852" type="line" smooth="yes"/>
      <point x="498" y="852"/>
      <point x="483" y="864"/>
      <point x="483" y="879" type="curve" smooth="yes"/>
      <point x="483" y="1628" type="line"/>
      <point x="385" y="1628" type="line"/>
      <point x="98" y="1532" type="line"/>
      <point x="98" y="1466" type="line"/>
      <point x="297" y="1493" type="line"/>
      <point x="297" y="879" type="line" smooth="yes"/>
      <point x="297" y="864"/>
      <point x="285" y="852"/>
      <point x="268" y="852" type="curve" smooth="yes"/>
      <point x="154" y="848" type="line"/>
      <point x="154" y="784" type="line"/>
    </contour>
    <contour>
      <point x="358" y="1650" type="move" name="U"/>
    </contour>
    <contour>
      <point x="358" y="725" type="move" name="L"/>
    </contour>
  </outline>
</glyph>
<glyph name="VulgFracOneQuarter" format="2">
  <advance width="1858"/>
  <unicode hex="00BC"/>
  <outline>
    <contour>
      <point x="1769" y="219" type="line"/>
      <point x="1769" y="319" type="line"/>
      <point x="1620" y="319" type="line"/>
      <point x="1620" y="831" type="line"/>
      <point x="1477" y="831" type="line"/>
      <point x="1038" y="324" type="line"/>
      <point x="1038" y="219" type="line"/>
      <point x="1450" y="219" type="line"/>
      <point x="1450" y="-37" type="line"/>
      <point x="1620" y="-37" type="line"/>
      <point x="1620" y="219" type="line"/>
    </contour>
    <contour>
      <point x="1473" y="1423" type="line"/>
      <point x="1323" y="1423" type="line"/>
      <point x="418" y="0" type="line"/>
      <point x="567" y="0" type="line"/>
    </contour>
    <contour>
      <point x="608" y="604" type="line"/>
      <point x="608" y="668" type="line"/>
      <point x="504" y="672" type="line" smooth="yes"/>
      <point x="487" y="672"/>
      <point x="475" y="682"/>
      <point x="475" y="698" type="curve" smooth="yes"/>
      <point x="475" y="1440" type="line"/>
      <point x="377" y="1440" type="line"/>
      <point x="88" y="1348" type="line"/>
      <point x="88" y="1284" type="line"/>
      <point x="287" y="1309" type="line"/>
      <point x="287" y="698" type="line" smooth="yes"/>
      <point x="287" y="682"/>
      <point x="274" y="672"/>
      <point x="258" y="672" type="curve" smooth="yes"/>
      <point x="143" y="668" type="line"/>
      <point x="143" y="604" type="line"/>
    </contour>
    <contour>
      <point x="1450" y="319" type="line"/>
      <point x="1167" y="319" type="line"/>
      <point x="1450" y="653" type="line"/>
    </contour>
  </outline>
</glyph>
<glyph name="LtnCapARingAbv" format="1">
  <advance width="1405"/>
  <unicode hex="00C5"/>
  <outline>
    <component base="LtnCapA"/>
    <component base="RingAbv" xOffset="436" yOffset="400"/>
    <contour>
      <point x="695" y="0" type="move" name="H"/>
    </contour>
    <contour>
      <point x="695" y="2060" type="move" name="U"/>
    </contour>
    <contour>
      <point x="695" y="-100" type="move" name="L"/>
    </contour>
    <contour>
      <point x="1290" y="0" type="move" name="O"/>
    </contour>
  </outline>
</glyph>
<glyph name="LtnCapAe" format="2">
  <advance width="1985"/>
  <unicode hex="00C6"/>
  <anchor x="1146" y="-100" name="L"/>
  <anchor x="1146" y="1500" name="U"/>
  <outline>
    <contour>
      <point x="1923" y="0" type="line"/>
      <point x="1923" y="375" type="line"/>
      <point x="1774" y="375" type="line"/>
      <point x="1741" y="162" type="line" smooth="yes"/>
      <point x="1739" y="147"/>
      <point x="1722" y="123"/>
      <point x="1706" y="123" type="curve" smooth="yes"/>
      <point x="1274" y="123" type="line"/>
      <point x="1274" y="645" type="line"/>
      <point x="1501" y="645" type="line" smooth="yes"/>
      <point x="1518" y="645"/>
      <point x="1536" y="625"/>
      <point x="1538" y="610" type="curve" smooth="yes"/>
      <point x="1556" y="469" type="line"/>
      <point x="1683" y="469" type="line"/>
      <point x="1683" y="950" type="line"/>
      <point x="1556" y="950" type="line"/>
      <point x="1538" y="811" type="line" smooth="yes"/>
      <point x="1536" y="797"/>
      <point x="1520" y="774"/>
      <point x="1501" y="774" type="curve" smooth="yes"/>
      <point x="1274" y="774" type="line"/>
      <point x="1274" y="1255" type="line"/>
      <point x="1647" y="1255" type="line" smooth="yes"/>
      <point x="1667" y="1255"/>
      <point x="1677" y="1237"/>
      <point x="1681" y="1217" type="curve" smooth="yes"/>
      <point x="1710" y="1047" type="line"/>
      <point x="1858" y="1047" type="line"/>
      <point x="1858" y="1374" type="line"/>
      <point x="657" y="1374" type="line"/>
      <point x="657" y="1270" type="line"/>
      <point x="758" y="1260" type="line" smooth="yes"/>
      <point x="776" y="1257"/>
      <point x="799" y="1237"/>
      <point x="786" y="1217" type="curve" smooth="yes"/>
      <point x="135" y="119" type="line"/>
      <point x="10" y="104" type="line"/>
      <point x="10" y="0" type="line"/>
      <point x="457" y="0" type="line"/>
      <point x="457" y="104" type="line"/>
      <point x="340" y="115" type="line" smooth="yes"/>
      <point x="322" y="117"/>
      <point x="313" y="135"/>
      <point x="326" y="158" type="curve" smooth="yes"/>
      <point x="528" y="500" type="line"/>
      <point x="981" y="500" type="line"/>
      <point x="981" y="158" type="line" smooth="yes"/>
      <point x="981" y="139"/>
      <point x="956" y="115"/>
      <point x="928" y="113" type="curve" smooth="yes"/>
      <point x="821" y="104" type="line"/>
      <point x="821" y="0" type="line"/>
    </contour>
    <contour>
      <point x="981" y="627" type="line"/>
      <point x="604" y="627" type="line"/>
      <point x="981" y="1257" type="line"/>
    </contour>
  </outline>
</glyph>
<glyph name="LtnCapCCedilla" format="1">
  <advance width="1303"/>
  <unicode hex="00C7"/>
  <outline>
    <component base="LtnCapC"/>
    <component base="CombCedilla" xOffset="1340"/>
    <contour>
      <point x="742" y="-600" type="move" name="L"/>
    </contour>
    <contour>
      <point x="763" y="1500" type="move" name="U"/>
    </contour>
  </outline>
</glyph>
<glyph name="LtnCapIAcute" format="1">
  <advance width="735"/>
  <unicode hex="00CD"/>
  <outline>
    <component base="LtnCapI"/>
    <component base="CombAcute" xOffset="964" yOffset="400"/>
    <contour>
      <point x="366" y="0" type="move" name="H"/>
    </contour>
    <contour>
      <point x="366" y="-100" type="move" name="L"/>
    </contour>
    <contour>
      <point x="551" y="0" type="move" name="O"/>
    </contour>
    <contour>
      <point x="735" y="1200" type="move" name="R"/>
    </contour>
    <contour>
      <point x="366" y="1900" type="move" name="U"/>
    </contour>
  </outline>
</glyph>
<glyph name="LtnCapEth" format="1">
  <advance width="1483"/>
  <unicode hex="00D0"/>
  <outline>
    <contour>
      <point x="29" y="653" type="line"/>
      <point x="812" y="653" type="line"/>
      <point x="812" y="786" type="line"/>
      <point x="29" y="786" type="line"/>
    </contour>
    <component base="LtnCapD"/>
    <contour>
      <point x="718" y="-100" type="move" name="L"/>
    </contour>
    <contour>
      <point x="718" y="1500" type="move" name="U"/>
    </contour>
  </outline>
</glyph>
<glyph name="LtnCapOAcute" format="1">
  <advance width="1548"/>
  <unicode hex="00D3"/>
  <outline>
    <component base="LtnCapO"/>
    <component base="CombAcute" xOffset="1373" yOffset="400"/>
    <contour>
      <point x="775" y="0" type="move" name="H"/>
    </contour>
    <contour>
      <point x="1508" y="1250" type="move" name="R"/>
    </contour>
    <contour>
      <point x="775" y="1900" type="move" name="U"/>
    </contour>
    <contour>
      <point x="775" y="-100" type="move" name="L"/>
    </contour>
    <contour>
      <point x="1043" y="0" type="move" name="O"/>
    </contour>
  </outline>
</glyph>
<glyph name="LtnCapOTilde" format="1">
  <advance width="1548"/>
  <unicode hex="00D5"/>
  <outline>
    <component base="LtnCapO"/>
    <component base="SmTilde" xOffset="416" yOffset="400"/>
    <contour>
      <point x="775" y="0" type="move" name="H"/>
    </contour>
    <contour>
      <point x="1508" y="1250" type="move" name="R"/>
    </contour>
    <contour>
      <point x="775" y="1900" type="move" name="U"/>
    </contour>
    <contour>
      <point x="775" y="-100" type="move" name="L"/>
    </contour>
    <contour>
      <point x="1043" y="0" type="move" name="O"/>
    </contour>
  </outline>
</glyph>
<glyph name="LtnCapODiaer" format="1">
  <advance width="1548"/>
  <unicode hex="00D6"/>
  <outline>
    <component base="LtnCapO"/>
    <component base="CombDiaer" xOffset="1373" yOffset="400"/>
    <contour>
      <point x="775" y="0" type="move" name="H"/>
    </contour>
    <contour>
      <point x="775" y="-100" type="move" name="L"/>
    </contour>
    <contour>
      <point x="1043" y="0" type="move" name="O"/>
    </contour>
    <contour>
      <point x="1508" y="1250" type="move" name="R"/>
    </contour>
    <contour>
      <point x="775" y="1900" type="move" name="U"/>
    </contour>
  </outline>
</glyph>
<glyph name="LtnCapUAcute" format="1">
  <advance width="1493"/>
  <unicode hex="00DA"/>
  <outline>
    <component base="LtnCapU"/>
    <component base="CombAcute" xOffset="1358" yOffset="400"/>
    <contour>
      <point x="742" y="0" type="move" name="H"/>
    </contour>
    <contour>
      <point x="760" y="-100" type="move" name="L"/>
    </contour>
    <contour>
      <point x="1051" y="0" type="move" name="O"/>
    </contour>
    <contour>
      <point x="1543" y="1320" type="move" name="R"/>
    </contour>
    <contour>
      <point x="760" y="1900" type="move" name="U"/>
    </contour>
  </outline>
</glyph>
<glyph name="LtnCapUCircum" format="1">
  <advance width="1493"/>
  <unicode hex="00DB"/>
  <outline>
    <component base="LtnCapU"/>
    <component base="CombCircum" xOffset="1358" yOffset="400"/>
    <contour>
      <point x="742" y="0" type="move" name="H"/>
    </contour>
    <contour>
      <point x="760" y="-100" type="move" name="L"/>
    </contour>
    <contour>
      <point x="1051" y="0" type="move" name="O"/>
    </contour>
    <contour>
      <point x="1543" y="1320" type="move" name="R"/>
    </contour>
    <contour>
      <point x="760" y="1900" type="move" name="U"/>
    </contour>
  </outline>
</glyph>
<glyph name="LtnSmATilde" format="1">
  <advance width="1133"/>
  <unicode hex="00E3"/>
  <outline>
    <component base="LtnSmA"/>
    <component base="SmTilde" xOffset="191"/>
    <contour>
      <point x="550" y="0" type="move" name="H"/>
    </contour>
    <contour>
      <point x="550" y="-100" type="move" name="L"/>
    </contour>
    <contour>
      <point x="983" y="0" type="move" name="O"/>
    </contour>
    <contour>
      <point x="1133" y="1000" type="move" name="R"/>
    </contour>
    <contour>
      <point x="550" y="1500" type="move" name="U"/>
    </contour>
  </outline>
</glyph>
<glyph name="LtnSmARingAbv" format="1">
  <advance width="1133"/>
  <unicode hex="00E5"/>
  <outline>
    <component base="LtnSmA"/>
    <component base="RingAbv" xOffset="291"/>
    <contour>
      <point x="550" y="0" type="move" name="H"/>
    </contour>
    <contour>
      <point x="550" y="-100" type="move" name="L"/>
    </contour>
    <contour>
      <point x="983" y="0" type="move" name="O"/>
    </contour>
    <contour>
      <point x="1133" y="1000" type="move" name="R"/>
    </contour>
    <contour>
      <point x="550" y="1660" type="move" name="U"/>
    </contour>
  </outline>
</glyph>
<glyph name="LtnSmCCedilla" format="1">
  <advance width="1028"/>
  <unicode hex="00E7"/>
  <outline>
    <component base="LtnSmC"/>
    <component base="CombCedilla" xOffset="1165"/>
    <contour>
      <point x="1028" y="1000" type="move" name="R"/>
    </contour>
    <contour>
      <point x="575" y="1100" type="move" name="U"/>
    </contour>
    <contour>
      <point x="567" y="-600" type="move" name="L"/>
    </contour>
  </outline>
</glyph>
<glyph name="LtnSmECircum" format="1">
  <advance width="1083"/>
  <unicode hex="00EA"/>
  <outline>
    <component base="LtnSmE"/>
    <component base="CombCircum" xOffset="1168"/>
    <contour>
      <point x="543" y="0" type="move" name="H"/>
    </contour>
    <contour>
      <point x="1083" y="1000" type="move" name="R"/>
    </contour>
    <contour>
      <point x="570" y="1500" type="move" name="U"/>
    </contour>
    <contour>
      <point x="570" y="-100" type="move" name="L"/>
    </contour>
    <contour>
      <point x="863" y="0" type="move" name="O"/>
    </contour>
  </outline>
</glyph>
<glyph name="LtnSmIGrave" format="1">
  <advance width="682"/>
  <unicode hex="00EC"/>
  <outline>
    <component base="LtnSmDotlessI"/>
    <component base="CombGrave" xOffset="942"/>
    <contour>
      <point x="344" y="0" type="move" name="H"/>
    </contour>
    <contour>
      <point x="682" y="1000" type="move" name="R"/>
    </contour>
    <contour>
      <point x="344" y="1500" type="move" name="U"/>
    </contour>
    <contour>
      <point x="344" y="-100" type="move" name="L"/>
    </contour>
    <contour>
      <point x="525" y="0" type="move" name="O"/>
    </contour>
  </outline>
</glyph>
<glyph name="LtnSmIAcute" format="1">
  <advance width="682"/>
  <unicode hex="00ED"/>
  <outline>
    <component base="LtnSmDotlessI"/>
    <component base="CombAcute" xOffset="942"/>
    <contour>
      <point x="344" y="0" type="move" name="H"/>
    </contour>
    <contour>
      <point x="682" y="1000" type="move" name="R"/>
    </contour>
    <contour>
      <point x="344" y="1500" type="move" name="U"/>
    </contour>
    <contour>
      <point x="344" y="-100" type="move" name="L"/>
    </contour>
    <contour>
      <point x="525" y="0" type="move" name="O"/>
    </contour>
  </outline>
</glyph>
<glyph name="LtnSmEth" format="2">
  <advance width="1184"/>
  <unicode hex="00F0"/>
  <anchor x="592" y="-100" name="L"/>
  <anchor x="592" y="1540" name="U"/>
  <outline>
    <contour>
      <point x="1118" y="537" type="curve" smooth="yes"/>
      <point x="1118" y="950"/>
      <point x="788" y="1300"/>
      <point x="788" y="1300" type="curve"/>
      <point x="1008" y="1417" type="line"/>
      <point x="956" y="1511" type="line"/>
      <point x="723" y="1386" type="line"/>
      <point x="565" y="1540" type="line"/>
      <point x="244" y="1434" type="line"/>
      <point x="244" y="1343" type="line"/>
      <point x="426" y="1337" type="line"/>
      <point x="494" y="1266" type="line"/>
      <point x="272" y="1149" type="line"/>
      <point x="322" y="1055" type="line"/>
      <point x="567" y="1186" type="line"/>
      <point x="602" y="1151"/>
      <point x="696" y="1012"/>
      <point x="705" y="999" type="curve"/>
      <point x="692" y="999"/>
      <point x="612" y="1024"/>
      <point x="555" y="1024" type="curve" smooth="yes"/>
      <point x="244" y="1024"/>
      <point x="66" y="764"/>
      <point x="66" y="489" type="curve" smooth="yes"/>
      <point x="66" y="207"/>
      <point x="242" y="-25"/>
      <point x="612" y="-25" type="curve" smooth="yes"/>
      <point x="903" y="-25"/>
      <point x="1118" y="174"/>
    </contour>
    <contour>
      <point x="827" y="524" type="curve" smooth="yes"/>
      <point x="827" y="297"/>
      <point x="774" y="90"/>
      <point x="598" y="90" type="curve" smooth="yes"/>
      <point x="416" y="90"/>
      <point x="367" y="287"/>
      <point x="367" y="487" type="curve" smooth="yes"/>
      <point x="367" y="709"/>
      <point x="440" y="918"/>
      <point x="639" y="918" type="curve" smooth="yes"/>
      <point x="698" y="918"/>
      <point x="758" y="879"/>
      <point x="758" y="879" type="curve"/>
      <point x="774" y="846"/>
      <point x="827" y="733"/>
    </contour>
  </outline>
</glyph>
<glyph name="LtnSmNTilde" format="1">
  <advance width="1280"/>
  <unicode hex="00F1"/>
  <outline>
    <component base="LtnSmN"/>
    <component base="SmTilde" xOffset="265"/>
    <contour>
      <point x="960" y="0" type="move" name="H"/>
    </contour>
    <contour>
      <point x="624" y="1500" type="move" name="U"/>
    </contour>
    <contour>
      <point x="624" y="-100" type="move" name="L"/>
    </contour>
  </outline>
</glyph>
<glyph name="LtnSmOGrave" format="1">
  <advance width="1196"/>
  <unicode hex="00F2"/>
  <outline>
    <component base="LtnSmO"/>
    <component base="CombGrave" xOffset="1197"/>
    <contour>
      <point x="599" y="0" type="move" name="H"/>
    </contour>
    <contour>
      <point x="599" y="-100" type="move" name="L"/>
    </contour>
    <contour>
      <point x="847" y="0" type="move" name="O"/>
    </contour>
    <contour>
      <point x="1196" y="1000" type="move" name="R"/>
    </contour>
    <contour>
      <point x="599" y="1500" type="move" name="U"/>
    </contour>
  </outline>
</glyph>
<glyph name="LtnSmUAcute" format="1">
  <advance width="1270"/>
  <unicode hex="00FA"/>
  <outline>
    <component base="LtnSmU"/>
    <component base="CombAcute" xOffset="1235"/>
    <contour>
      <point x="637" y="0" type="move" name="H"/>
    </contour>
    <contour>
      <point x="1270" y="1000" type="move" name="R"/>
    </contour>
    <contour>
      <point x="637" y="1500" type="move" name="U"/>
    </contour>
    <contour>
      <point x="637" y="-100" type="move" name="L"/>
    </contour>
    <contour>
      <point x="1083" y="0" type="move" name="O"/>
    </contour>
  </outline>
</glyph>
<glyph name="LtnSmYAcute" format="1">
  <advance width="1159"/>
  <unicode hex="00FD"/>
  <outline>
    <component base="LtnSmY"/>
    <component base="CombAcute" xOffset="1198"/>
    <contour>
      <point x="1159" y="1000" type="move" name="R"/>
    </contour>
    <contour>
      <point x="600" y="1500" type="move" name="U"/>
    </contour>
    <contour>
      <point x="580" y="-500" type="move" name="L"/>
    </contour>
  </outline>
</glyph>
<glyph name="LtnCapAMacron" format="1">
  <advance width="1405"/>
  <unicode hex="0100"/>
  <outline>
    <component base="LtnCapA"/>
    <component base="CombMacron" xOffset="1293" yOffset="400"/>
    <contour>
      <point x="695" y="0" type="move" name="H"/>
    </contour>
    <contour>
      <point x="695" y="-100" type="move" name="L"/>
    </contour>
    <contour>
      <point x="1290" y="0" type="move" name="O"/>
    </contour>
    <contour>
      <point x="695" y="1870" type="move" name="U"/>
    </contour>
  </outline>
</glyph>
<glyph name="LtnSmAOgonek" format="1">
  <advance width="1133"/>
  <unicode hex="0105"/>
  <outline>
    <component base="LtnSmA"/>
    <component base="CombOgonek" xOffset="1333"/>
    <contour>
      <point x="550" y="0" type="move" name="H"/>
    </contour>
    <contour>
      <point x="671" y="-500" type="move" name="L"/>
    </contour>
    <contour>
      <point x="1133" y="1000" type="move" name="R"/>
    </contour>
    <contour>
      <point x="550" y="1100" type="move" name="U"/>
    </contour>
  </outline>
</glyph>
<glyph name="LtnCapCAcute" format="1">
  <advance width="1303"/>
  <unicode hex="0106"/>
  <outline>
    <component base="LtnCapC"/>
    <component base="CombAcute" xOffset="1361" yOffset="400"/>
    <contour>
      <point x="742" y="0" type="move" name="H"/>
    </contour>
    <contour>
      <point x="763" y="-100" type="move" name="L"/>
    </contour>
    <contour>
      <point x="763" y="1900" type="move" name="U"/>
    </contour>
  </outline>
</glyph>
<glyph name="LtnSmCAcute" format="1">
  <advance width="1028"/>
  <unicode hex="0107"/>
  <outline>
    <component base="LtnSmC"/>
    <component base="CombAcute" xOffset="1173"/>
    <contour>
      <point x="567" y="0" type="move" name="H"/>
    </contour>
    <contour>
      <point x="575" y="-100" type="move" name="L"/>
    </contour>
    <contour>
      <point x="1028" y="1000" type="move" name="R"/>
    </contour>
    <contour>
      <point x="575" y="1500" type="move" name="U"/>
    </contour>
  </outline>
</glyph>
<glyph name="LtnSmCCircum" format="1">
  <advance width="1028"/>
  <unicode hex="0109"/>
  <outline>
    <component base="LtnSmC"/>
    <component base="CombCircum" xOffset="1173"/>
    <contour>
      <point x="567" y="0" type="move" name="H"/>
    </contour>
    <contour>
      <point x="1028" y="1000" type="move" name="R"/>
    </contour>
    <contour>
      <point x="575" y="1500" type="move" name="U"/>
    </contour>
    <contour>
      <point x="575" y="-100" type="move" name="L"/>
    </contour>
  </outline>
</glyph>
<glyph name="LtnCapCDotAbv" format="1">
  <advance width="1303"/>
  <unicode hex="010A"/>
  <outline>
    <component base="LtnCapC"/>
    <component base="DotAbv" xOffset="624" yOffset="400"/>
    <contour>
      <point x="742" y="0" type="move" name="H"/>
    </contour>
    <contour>
      <point x="763" y="1900" type="move" name="U"/>
    </contour>
    <contour>
      <point x="763" y="-100" type="move" name="L"/>
    </contour>
  </outline>
</glyph>
<glyph name="LtnSmCDotAbv" format="1">
  <advance width="1028"/>
  <unicode hex="010B"/>
  <outline>
    <component base="LtnSmC"/>
    <component base="DotAbv" xOffset="436"/>
    <contour>
      <point x="567" y="0" type="move" name="H"/>
    </contour>
    <contour>
      <point x="1028" y="1000" type="move" name="R"/>
    </contour>
    <contour>
      <point x="575" y="1500" type="move" name="U"/>
    </contour>
    <contour>
      <point x="575" y="-100" type="move" name="L"/>
    </contour>
  </outline>
</glyph>
<glyph name="LtnCapCCaron" format="1">
  <advance width="1303"/>
  <unicode hex="010C"/>
  <outline>
    <component base="LtnCapC"/>
    <component base="CombCaron" xOffset="1361" yOffset="400"/>
    <contour>
      <point x="742" y="0" type="move" name="H"/>
    </contour>
    <contour>
      <point x="763" y="-100" type="move" name="L"/>
    </contour>
    <contour>
      <point x="763" y="1900" type="move" name="U"/>
    </contour>
  </outline>
</glyph>
<glyph name="LtnCapDCaron" format="1">
  <advance width="1483"/>
  <unicode hex="010E"/>
  <outline>
    <component base="LtnCapD"/>
    <component base="CombCaron" xOffset="1311" yOffset="400"/>
    <contour>
      <point x="713" y="1900" type="move" name="U"/>
    </contour>
    <contour>
      <point x="713" y="-100" type="move" name="L"/>
    </contour>
  </outline>
</glyph>
<glyph name="LtnSmDCaron" format="2">
  <advance width="1529"/>
  <unicode hex="010F"/>
  <anchor x="669" y="0" name="H"/>
  <anchor x="669" y="-100" name="L"/>
  <anchor x="665" y="1540" name="U"/>
  <outline>
    <contour>
      <point x="1194" y="0" type="line"/>
      <point x="1194" y="96" type="line"/>
      <point x="1108" y="102" type="line" smooth="yes"/>
      <point x="1083" y="104"/>
      <point x="1063" y="125"/>
      <point x="1063" y="150" type="curve" smooth="yes"/>
      <point x="1063" y="1516" type="line"/>
      <point x="958" y="1516" type="line"/>
      <point x="639" y="1413" type="line"/>
      <point x="639" y="1329" type="line"/>
      <point x="791" y="1329" type="line"/>
      <point x="791" y="999" type="line"/>
      <point x="791" y="999"/>
      <point x="678" y="1024"/>
      <point x="600" y="1024" type="curve" smooth="yes"/>
      <point x="291" y="1024"/>
      <point x="66" y="829"/>
      <point x="66" y="477" type="curve" smooth="yes"/>
      <point x="66" y="188"/>
      <point x="217" y="-25"/>
      <point x="467" y="-25" type="curve" smooth="yes"/>
      <point x="616" y="-25"/>
      <point x="760" y="102"/>
      <point x="791" y="119" type="curve"/>
      <point x="791" y="0" type="line"/>
    </contour>
    <contour>
      <point x="791" y="203" type="line"/>
      <point x="791" y="203"/>
      <point x="705" y="164"/>
      <point x="631" y="164" type="curve" smooth="yes"/>
      <point x="453" y="164"/>
      <point x="365" y="309"/>
      <point x="365" y="524" type="curve" smooth="yes"/>
      <point x="365" y="735"/>
      <point x="455" y="901"/>
      <point x="645" y="901" type="curve" smooth="yes"/>
      <point x="707" y="901"/>
      <point x="791" y="864"/>
      <point x="791" y="864" type="curve"/>
    </contour>
    <contour>
      <point x="1464" y="1389" type="curve" smooth="yes"/>
      <point x="1464" y="1485"/>
      <point x="1393" y="1561"/>
      <point x="1288" y="1561" type="curve" smooth="yes"/>
      <point x="1217" y="1561"/>
      <point x="1149" y="1524"/>
      <point x="1149" y="1442" type="curve" smooth="yes"/>
      <point x="1149" y="1409"/>
      <point x="1163" y="1376"/>
      <point x="1190" y="1352" type="curve"/>
      <point x="1319" y="1352" type="line"/>
      <point x="1319" y="1286"/>
      <point x="1253" y="1223"/>
      <point x="1174" y="1200" type="curve"/>
      <point x="1174" y="1118" type="line"/>
      <point x="1331" y="1149"/>
      <point x="1464" y="1247"/>
    </contour>
  </outline>
</glyph>
<glyph name="LtnCapEMacron" format="1">
  <advance width="1225"/>
  <unicode hex="0112"/>
  <outline>
    <component base="LtnCapE"/>
    <component base="CombMacron" xOffset="1206" yOffset="400"/>
    <contour>
      <point x="608" y="0" type="move" name="H"/>
    </contour>
    <contour>
      <point x="608" y="-100" type="move" name="L"/>
    </contour>
    <contour>
      <point x="1008" y="0" type="move" name="O"/>
    </contour>
    <contour>
      <point x="1225" y="1200" type="move" name="R"/>
    </contour>
    <contour>
      <point x="608" y="1870" type="move" name="U"/>
    </contour>
  </outline>
</glyph>
<glyph name="LtnSmEMacron" format="1">
  <advance width="1083"/>
  <unicode hex="0113"/>
  <outline>
    <component base="LtnSmE"/>
    <component base="CombMacron" xOffset="1168"/>
    <contour>
      <point x="543" y="0" type="move" name="H"/>
    </contour>
    <contour>
      <point x="1083" y="1000" type="move" name="R"/>
    </contour>
    <contour>
      <point x="570" y="1470" type="move" name="U"/>
    </contour>
    <contour>
      <point x="570" y="-100" type="move" name="L"/>
    </contour>
    <contour>
      <point x="863" y="0" type="move" name="O"/>
    </contour>
  </outline>
</glyph>
<glyph name="LtnCapEBreve" format="1">
  <advance width="1225"/>
  <unicode hex="0114"/>
  <outline>
    <component base="LtnCapE"/>
    <component base="CombBreve" xOffset="1206" yOffset="400"/>
    <contour>
      <point x="608" y="0" type="move" name="H"/>
    </contour>
    <contour>
      <point x="608" y="-100" type="move" name="L"/>
    </contour>
    <contour>
      <point x="1008" y="0" type="move" name="O"/>
    </contour>
    <contour>
      <point x="1225" y="1200" type="move" name="R"/>
    </contour>
    <contour>
      <point x="608" y="1900" type="move" name="U"/>
    </contour>
  </outline>
</glyph>
<glyph name="LtnCapEDotAbv" format="1">
  <advance width="1225"/>
  <unicode hex="0116"/>
  <outline>
    <component base="LtnCapE"/>
    <component base="DotAbv" xOffset="469" yOffset="400"/>
    <contour>
      <point x="608" y="0" type="move" name="H"/>
    </contour>
    <contour>
      <point x="608" y="-100" type="move" name="L"/>
    </contour>
    <contour>
      <point x="1008" y="0" type="move" name="O"/>
    </contour>
    <contour>
      <point x="1225" y="1200" type="move" name="R"/>
    </contour>
    <contour>
      <point x="608" y="1900" type="move" name="U"/>
    </contour>
  </outline>
</glyph>
<glyph name="LtnCapEOgonek" format="1">
  <advance width="1225"/>
  <unicode hex="0118"/>
  <outline>
    <component base="LtnCapE"/>
    <component base="CombOgonek" xOffset="1358"/>
    <contour>
      <point x="608" y="0" type="move" name="H"/>
    </contour>
    <contour>
      <point x="1225" y="1200" type="move" name="R"/>
    </contour>
    <contour>
      <point x="608" y="1500" type="move" name="U"/>
    </contour>
    <contour>
      <point x="696" y="-500" type="move" name="L"/>
    </contour>
  </outline>
</glyph>
<glyph name="LtnCapGCircum" format="1">
  <advance width="1466"/>
  <unicode hex="011C"/>
  <outline>
    <component base="LtnCapG"/>
    <component base="CombCircum" xOffset="1387" yOffset="400"/>
    <contour>
      <point x="789" y="0" type="move" name="H"/>
    </contour>
    <contour>
      <point x="789" y="1900" type="move" name="U"/>
    </contour>
    <contour>
      <point x="789" y="-100" type="move" name="L"/>
    </contour>
  </outline>
</glyph>
<glyph name="LtnCapGBreve" format="1">
  <advance width="1466"/>
  <unicode hex="011E"/>
  <outline>
    <component base="LtnCapG"/>
    <component base="CombBreve" xOffset="1387" yOffset="400"/>
    <contour>
      <point x="789" y="0" type="move" name="H"/>
    </contour>
    <contour>
      <point x="789" y="-100" type="move" name="L"/>
    </contour>
    <contour>
      <point x="789" y="1900" type="move" name="U"/>
    </contour>
  </outline>
</glyph>
<glyph name="LtnSmGBreve" format="1">
  <advance width="1137"/>
  <unicode hex="011F"/>
  <outline>
    <component base="LtnSmG"/>
    <component base="CombBreve" xOffset="1150"/>
    <contour>
      <point x="552" y="-432" type="move" name="H"/>
    </contour>
    <contour>
      <point x="1137" y="1000" type="move" name="R"/>
    </contour>
    <contour>
      <point x="552" y="1500" type="move" name="U"/>
    </contour>
    <contour>
      <point x="552" y="-500" type="move" name="L"/>
    </contour>
  </outline>
</glyph>
<glyph name="LtnCapGDotAbv" format="1">
  <advance width="1466"/>
  <unicode hex="0120"/>
  <outline>
    <component base="LtnCapG"/>
    <component base="DotAbv" xOffset="650" yOffset="400"/>
    <contour>
      <point x="789" y="0" type="move" name="H"/>
    </contour>
    <contour>
      <point x="789" y="1900" type="move" name="U"/>
    </contour>
    <contour>
      <point x="789" y="-100" type="move" name="L"/>
    </contour>
  </outline>
</glyph>
<glyph name="LtnSmGDotAbv" format="1">
  <advance width="1137"/>
  <unicode hex="0121"/>
  <outline>
    <component base="LtnSmG"/>
    <component base="DotAbv" xOffset="413"/>
    <contour>
      <point x="552" y="-432" type="move" name="H"/>
    </contour>
    <contour>
      <point x="552" y="-500" type="move" name="L"/>
    </contour>
    <contour>
      <point x="1137" y="1000" type="move" name="R"/>
    </contour>
    <contour>
      <point x="552" y="1500" type="move" name="U"/>
    </contour>
  </outline>
</glyph>
<glyph name="LtnCapGCedilla" format="1">
  <advance width="1466"/>
  <unicode hex="0122"/>
  <outline>
    <component base="LtnCapG"/>
    <component base="CombCommaBlw" xOffset="1387"/>
    <contour>
      <point x="789" y="0" type="move" name="H"/>
    </contour>
    <contour>
      <point x="789" y="-500" type="move" name="L"/>
    </contour>
    <contour>
      <point x="789" y="1500" type="move" name="U"/>
    </contour>
  </outline>
</glyph>
<glyph name="LtnSmITilde" format="1">
  <advance width="682"/>
  <unicode hex="0129"/>
  <outline>
    <component base="LtnSmDotlessI"/>
    <component base="SmTilde" xOffset="-15"/>
    <contour>
      <point x="344" y="0" type="move" name="H"/>
    </contour>
    <contour>
      <point x="682" y="1000" type="move" name="R"/>
    </contour>
    <contour>
      <point x="344" y="1500" type="move" name="U"/>
    </contour>
    <contour>
      <point x="344" y="-100" type="move" name="L"/>
    </contour>
    <contour>
      <point x="525" y="0" type="move" name="O"/>
    </contour>
  </outline>
</glyph>
<glyph name="LtnCapIMacron" format="1">
  <advance width="1231"/>
  <unicode hex="012A"/>
  <outline>
    <component base="LtnCapI"/>
    <component base="CombMacron.Short" xOffset="118" yOffset="400"/>
    <contour>
      <point x="366" y="0" type="move" name="H"/>
    </contour>
    <contour>
      <point x="735" y="1200" type="move" name="R"/>
    </contour>
    <contour>
      <point x="366" y="1870" type="move" name="U"/>
    </contour>
    <contour>
      <point x="366" y="-100" type="move" name="L"/>
    </contour>
    <contour>
      <point x="551" y="0" type="move" name="O"/>
    </contour>
  </outline>
</glyph>
<glyph name="LtnCapIOgonek" format="1">
  <advance width="735"/>
  <unicode hex="012E"/>
  <outline>
    <component base="LtnCapI"/>
    <component base="CombOgonek" xOffset="901"/>
    <contour>
      <point x="366" y="0" type="move" name="H"/>
    </contour>
    <contour>
      <point x="735" y="1200" type="move" name="R"/>
    </contour>
    <contour>
      <point x="366" y="1500" type="move" name="U"/>
    </contour>
    <contour>
      <point x="239" y="-500" type="move" name="L"/>
    </contour>
  </outline>
</glyph>
<glyph name="LtnCapLigIj" format="1">
  <advance width="1784"/>
  <unicode hex="0132"/>
  <outline>
    <component base="LtnCapI"/>
    <component base="LtnCapJ" xOffset="735"/>
    <contour>
      <point x="366" y="0" type="move" name="H"/>
    </contour>
    <contour>
      <point x="1169" y="-100" type="move" name="L"/>
    </contour>
    <contour>
      <point x="551" y="0" type="move" name="O"/>
    </contour>
    <contour>
      <point x="892" y="1500" type="move" name="U"/>
    </contour>
  </outline>
</glyph>
<glyph name="LtnSmLigIj" format="1">
  <advance width="1346"/>
  <unicode hex="0133"/>
  <outline>
    <component base="LtnSmI"/>
    <component base="LtnSmJ" xOffset="682"/>
    <contour>
      <point x="344" y="0" type="move" name="H"/>
    </contour>
    <contour>
      <point x="839" y="-500" type="move" name="L"/>
    </contour>
    <contour>
      <point x="524" y="0" type="move" name="O"/>
    </contour>
    <contour>
      <point x="673" y="1500" type="move" name="U"/>
    </contour>
  </outline>
</glyph>
<glyph name="LtnCapJCircum" format="1">
  <advance width="1049"/>
  <unicode hex="0134"/>
  <outline>
    <component base="LtnCapJ"/>
    <component base="CombCircum" xOffset="1317" yOffset="400"/>
    <contour>
      <point x="434" y="-100" type="move" name="L"/>
    </contour>
    <contour>
      <point x="719" y="1900" type="move" name="U"/>
    </contour>
  </outline>
</glyph>
<glyph name="LtnSmJCircum" format="1">
  <advance width="664"/>
  <unicode hex="0135"/>
  <outline>
    <component base="LtnSmJ.Dotless"/>
    <component base="CombCircum" xOffset="971"/>
    <contour>
      <point x="373" y="1500" type="move" name="U"/>
    </contour>
    <contour>
      <point x="146" y="-500" type="move" name="L"/>
    </contour>
  </outline>
</glyph>
<glyph name="LtnCapKCedilla" format="1">
  <advance width="1397"/>
  <unicode hex="0136"/>
  <outline>
    <component base="LtnCapK"/>
    <component base="CombCommaBlw" xOffset="1326"/>
    <contour>
      <point x="360" y="0" type="move" name="H"/>
    </contour>
    <contour>
      <point x="728" y="-500" type="move" name="L"/>
    </contour>
    <contour>
      <point x="728" y="1500" type="move" name="U"/>
    </contour>
  </outline>
</glyph>
<glyph name="LtnCapLAcute" format="1">
  <advance width="1135"/>
  <unicode hex="0139"/>
  <outline>
    <component base="LtnCapL"/>
    <component base="CombAcute" xOffset="1176" yOffset="400"/>
    <contour>
      <point x="578" y="0" type="move" name="H"/>
    </contour>
    <contour>
      <point x="635" y="1000" type="move" name="R"/>
    </contour>
    <contour>
      <point x="578" y="1900" type="move" name="U"/>
    </contour>
    <contour>
      <point x="578" y="-100" type="move" name="L"/>
    </contour>
  </outline>
</glyph>
<glyph name="LtnSmLAcute" format="1">
  <advance width="682"/>
  <unicode hex="013A"/>
  <outline>
    <component base="LtnSmL"/>
    <component base="CombAcute" xOffset="940" yOffset="480"/>
    <contour>
      <point x="342" y="0" type="move" name="H"/>
    </contour>
    <contour>
      <point x="342" y="-100" type="move" name="L"/>
    </contour>
    <contour>
      <point x="582" y="1000" type="move" name="R"/>
    </contour>
    <contour>
      <point x="342" y="1980" type="move" name="U"/>
    </contour>
  </outline>
</glyph>
<glyph name="LtnCapLCedilla" format="1">
  <advance width="1135"/>
  <unicode hex="013B"/>
  <outline>
    <component base="LtnCapL"/>
    <component base="CombCommaBlw" xOffset="1176"/>
    <contour>
      <point x="578" y="0" type="move" name="H"/>
    </contour>
    <contour>
      <point x="578" y="-500" type="move" name="L"/>
    </contour>
    <contour>
      <point x="635" y="1000" type="move" name="R"/>
    </contour>
    <contour>
      <point x="578" y="1500" type="move" name="U"/>
    </contour>
  </outline>
</glyph>
<glyph name="LtnSmLCedilla" format="1">
  <advance width="682"/>
  <unicode hex="013C"/>
  <outline>
    <component base="LtnSmL"/>
    <component base="CombCommaBlw" xOffset="940"/>
    <contour>
      <point x="342" y="0" type="move" name="H"/>
    </contour>
    <contour>
      <point x="342" y="-500" type="move" name="L"/>
    </contour>
    <contour>
      <point x="582" y="1000" type="move" name="R"/>
    </contour>
    <contour>
      <point x="342" y="1580" type="move" name="U"/>
    </contour>
  </outline>
</glyph>
<glyph name="LtnCapLCaron" format="2">
  <advance width="1135"/>
  <unicode hex="013D"/>
  <anchor x="578" y="0" name="H"/>
  <anchor x="578" y="-100" name="L"/>
  <anchor x="578" y="1500" name="U"/>
  <outline>
    <contour>
      <point x="1102" y="0" type="line"/>
      <point x="1102" y="408" type="line"/>
      <point x="938" y="408" type="line"/>
      <point x="911" y="172" type="line" smooth="yes"/>
      <point x="909" y="156"/>
      <point x="891" y="125"/>
      <point x="862" y="125" type="curve" smooth="yes"/>
      <point x="506" y="125" type="line"/>
      <point x="506" y="1214" type="line" smooth="yes"/>
      <point x="506" y="1241"/>
      <point x="526" y="1257"/>
      <point x="551" y="1260" type="curve" smooth="yes"/>
      <point x="666" y="1270" type="line"/>
      <point x="666" y="1374" type="line"/>
      <point x="55" y="1374" type="line"/>
      <point x="55" y="1270" type="line"/>
      <point x="168" y="1260" type="line" smooth="yes"/>
      <point x="193" y="1257"/>
      <point x="213" y="1241"/>
      <point x="213" y="1214" type="curve" smooth="yes"/>
      <point x="213" y="160" type="line" smooth="yes"/>
      <point x="213" y="133"/>
      <point x="193" y="117"/>
      <point x="168" y="115" type="curve" smooth="yes"/>
      <point x="55" y="104" type="line"/>
      <point x="55" y="0" type="line"/>
    </contour>
    <contour>
      <point x="1060" y="1299" type="curve" smooth="yes"/>
      <point x="1060" y="1395"/>
      <point x="989" y="1471"/>
      <point x="884" y="1471" type="curve" smooth="yes"/>
      <point x="813" y="1471"/>
      <point x="745" y="1434"/>
      <point x="745" y="1352" type="curve" smooth="yes"/>
      <point x="745" y="1319"/>
      <point x="759" y="1286"/>
      <point x="786" y="1262" type="curve"/>
      <point x="915" y="1262" type="line"/>
      <point x="915" y="1196"/>
      <point x="849" y="1133"/>
      <point x="770" y="1110" type="curve"/>
      <point x="770" y="1028" type="line"/>
      <point x="927" y="1059"/>
      <point x="1060" y="1157"/>
    </contour>
  </outline>
</glyph>
<glyph name="LtnCapLMiddleDot" format="1">
  <advance width="1418"/>
  <unicode hex="013F"/>
  <outline>
    <component base="LtnCapL"/>
    <component base="MiddleDot" xOffset="1085"/>
    <contour>
      <point x="574" y="0" type="move" name="H"/>
    </contour>
    <contour>
      <point x="574" y="1500" type="move" name="U"/>
    </contour>
    <contour>
      <point x="574" y="-100" type="move" name="L"/>
    </contour>
  </outline>
</glyph>
<glyph name="LtnSmLMiddleDot" format="1">
  <advance width="965"/>
  <unicode hex="0140"/>
  <outline>
    <component base="LtnSmL"/>
    <component base="MiddleDot" xOffset="632"/>
    <contour>
      <point x="349" y="0" type="move" name="H"/>
    </contour>
    <contour>
      <point x="348" y="-100" type="move" name="L"/>
    </contour>
    <contour>
      <point x="348" y="1580" type="move" name="U"/>
    </contour>
  </outline>
</glyph>
<glyph name="LtnSmLStrk" format="2">
  <advance width="682"/>
  <unicode hex="0142"/>
  <anchor x="342" y="-100" name="L"/>
  <anchor x="342" y="1540" name="U"/>
  <outline>
    <contour>
      <point x="698" y="930" type="line"/>
      <point x="639" y="1026" type="line"/>
      <point x="477" y="913" type="line"/>
      <point x="477" y="1516" type="line"/>
      <point x="385" y="1516" type="line"/>
      <point x="59" y="1413" type="line"/>
      <point x="59" y="1325" type="line"/>
      <point x="205" y="1325" type="line"/>
      <point x="205" y="723" type="line"/>
      <point x="-14" y="569" type="line"/>
      <point x="43" y="471" type="line"/>
      <point x="205" y="586" type="line"/>
      <point x="205" y="150" type="line" smooth="yes"/>
      <point x="205" y="123"/>
      <point x="184" y="104"/>
      <point x="160" y="102" type="curve" smooth="yes"/>
      <point x="59" y="96" type="line"/>
      <point x="59" y="0" type="line"/>
      <point x="627" y="0" type="line"/>
      <point x="627" y="96" type="line"/>
      <point x="524" y="102" type="line" smooth="yes"/>
      <point x="500" y="104"/>
      <point x="477" y="123"/>
      <point x="477" y="150" type="curve" smooth="yes"/>
      <point x="477" y="774" type="line"/>
    </contour>
  </outline>
</glyph>
<glyph name="LtnCapNAcute" format="1">
  <advance width="1524"/>
  <unicode hex="0143"/>
  <outline>
    <component base="LtnCapN"/>
    <component base="CombAcute" xOffset="1357" yOffset="400"/>
    <contour>
      <point x="1177" y="0" type="move" name="H"/>
    </contour>
    <contour>
      <point x="759" y="-100" type="move" name="L"/>
    </contour>
    <contour>
      <point x="759" y="1900" type="move" name="U"/>
    </contour>
  </outline>
</glyph>
<glyph name="LtnCapNCedilla" format="1">
  <advance width="1524"/>
  <unicode hex="0145"/>
  <outline>
    <component base="LtnCapN"/>
    <component base="CombCommaBlw" xOffset="1357"/>
    <contour>
      <point x="1177" y="0" type="move" name="H"/>
    </contour>
    <contour>
      <point x="759" y="1500" type="move" name="U"/>
    </contour>
    <contour>
      <point x="759" y="-500" type="move" name="L"/>
    </contour>
  </outline>
</glyph>
<glyph name="LtnCapNCaron" format="1">
  <advance width="1524"/>
  <unicode hex="0147"/>
  <outline>
    <component base="LtnCapN"/>
    <component base="CombCaron" xOffset="1357" yOffset="400"/>
    <contour>
      <point x="1177" y="0" type="move" name="H"/>
    </contour>
    <contour>
      <point x="759" y="-100" type="move" name="L"/>
    </contour>
    <contour>
      <point x="759" y="1900" type="move" name="U"/>
    </contour>
  </outline>
</glyph>
<glyph name="LtnSmNCaron" format="1">
  <advance width="1280"/>
  <unicode hex="0148"/>
  <outline>
    <component base="LtnSmN"/>
    <component base="CombCaron" xOffset="1222"/>
    <contour>
      <point x="960" y="0" type="move" name="H"/>
    </contour>
    <contour>
      <point x="624" y="1500" type="move" name="U"/>
    </contour>
    <contour>
      <point x="624" y="-100" type="move" name="L"/>
    </contour>
  </outline>
</glyph>
<glyph name="LtnCapOMacron" format="1">
  <advance width="1548"/>
  <unicode hex="014C"/>
  <outline>
    <component base="LtnCapO"/>
    <component base="CombMacron" xOffset="1373" yOffset="400"/>
    <contour>
      <point x="775" y="0" type="move" name="H"/>
    </contour>
    <contour>
      <point x="1508" y="1250" type="move" name="R"/>
    </contour>
    <contour>
      <point x="775" y="1870" type="move" name="U"/>
    </contour>
    <contour>
      <point x="775" y="-100" type="move" name="L"/>
    </contour>
    <contour>
      <point x="1043" y="0" type="move" name="O"/>
    </contour>
  </outline>
</glyph>
<glyph name="LtnSmOMacron" format="1">
  <advance width="1196"/>
  <unicode hex="014D"/>
  <outline>
    <component base="LtnSmO"/>
    <component base="CombMacron" xOffset="1197"/>
    <contour>
      <point x="599" y="0" type="move" name="H"/>
    </contour>
    <contour>
      <point x="1196" y="1000" type="move" name="R"/>
    </contour>
    <contour>
      <point x="599" y="1470" type="move" name="U"/>
    </contour>
    <contour>
      <point x="599" y="-100" type="move" name="L"/>
    </contour>
    <contour>
      <point x="847" y="0" type="move" name="O"/>
    </contour>
  </outline>
</glyph>
<glyph name="LtnCapODblAcute" format="1">
  <advance width="1548"/>
  <unicode hex="0150"/>
  <outline>
    <component base="LtnCapO"/>
    <component base="DblAcuteAccent" xOffset="379" yOffset="400"/>
    <contour>
      <point x="775" y="0" type="move" name="H"/>
    </contour>
    <contour>
      <point x="775" y="-100" type="move" name="L"/>
    </contour>
    <contour>
      <point x="1043" y="0" type="move" name="O"/>
    </contour>
    <contour>
      <point x="1508" y="1250" type="move" name="R"/>
    </contour>
    <contour>
      <point x="775" y="1900" type="move" name="U"/>
    </contour>
  </outline>
</glyph>
<glyph name="LtnSmRAcute" format="1">
  <advance width="885"/>
  <unicode hex="0155"/>
  <outline>
    <component base="LtnSmR"/>
    <component base="CombAcute" xOffset="1078"/>
    <contour>
      <point x="309" y="0" type="move" name="H"/>
    </contour>
    <contour>
      <point x="309" y="-100" type="move" name="L"/>
    </contour>
    <contour>
      <point x="480" y="1500" type="move" name="U"/>
    </contour>
  </outline>
</glyph>
<glyph name="LtnCapRCedilla" format="1">
  <advance width="1442"/>
  <unicode hex="0156"/>
  <outline>
    <component base="LtnCapR"/>
    <component base="CombCommaBlw" xOffset="1243"/>
    <contour>
      <point x="360" y="0" type="move" name="H"/>
    </contour>
    <contour>
      <point x="645" y="-500" type="move" name="L"/>
    </contour>
    <contour>
      <point x="645" y="1500" type="move" name="U"/>
    </contour>
  </outline>
</glyph>
<glyph name="LtnSmRCedilla" format="1">
  <advance width="885"/>
  <unicode hex="0157"/>
  <outline>
    <component base="LtnSmR"/>
    <component base="CombCommaBlw" xOffset="907"/>
    <contour>
      <point x="309" y="0" type="move" name="H"/>
    </contour>
    <contour>
      <point x="480" y="1100" type="move" name="U"/>
    </contour>
    <contour>
      <point x="309" y="-500" type="move" name="L"/>
    </contour>
  </outline>
</glyph>
<glyph name="LtnSmRCaron" format="1">
  <advance width="885"/>
  <unicode hex="0159"/>
  <outline>
    <component base="LtnSmR"/>
    <component base="CombCaron" xOffset="1078"/>
    <contour>
      <point x="309" y="0" type="move" name="H"/>
    </contour>
    <contour>
      <point x="309" y="-100" type="move" name="L"/>
    </contour>
    <contour>
      <point x="480" y="1500" type="move" name="U"/>
    </contour>
  </outline>
</glyph>
<glyph name="LtnCapSAcute" format="1">
  <advance width="1098"/>
  <unicode hex="015A"/>
  <outline>
    <component base="LtnCapS"/>
    <component base="CombAcute" xOffset="1177" yOffset="400"/>
    <contour>
      <point x="558" y="0" type="move" name="H"/>
    </contour>
    <contour>
      <point x="558" y="-100" type="move" name="L"/>
    </contour>
    <contour>
      <point x="579" y="1900" type="move" name="U"/>
    </contour>
  </outline>
</glyph>
<glyph name="LtnSmSAcute" format="1">
  <advance width="911"/>
  <unicode hex="015B"/>
  <outline>
    <component base="LtnSmS"/>
    <component base="CombAcute" xOffset="1078"/>
    <contour>
      <point x="460" y="0" type="move" name="H"/>
    </contour>
    <contour>
      <point x="460" y="-100" type="move" name="L"/>
    </contour>
    <contour>
      <point x="480" y="1500" type="move" name="U"/>
    </contour>
  </outline>
</glyph>
<glyph name="LtnSmSCircum" format="1">
  <advance width="911"/>
  <unicode hex="015D"/>
  <outline>
    <component base="LtnSmS"/>
    <component base="CombCircum" xOffset="1078"/>
    <contour>
      <point x="460" y="0" type="move" name="H"/>
    </contour>
    <contour>
      <point x="460" y="-100" type="move" name="L"/>
    </contour>
    <contour>
      <point x="480" y="1500" type="move" name="U"/>
    </contour>
  </outline>
</glyph>
<glyph name="LtnCapSCedilla" format="1">
  <advance width="1098"/>
  <unicode hex="015E"/>
  <outline>
    <component base="LtnCapS"/>
    <component base="CombCedilla" xOffset="1156"/>
    <contour>
      <point x="579" y="1500" type="move" name="U"/>
    </contour>
    <contour>
      <point x="558" y="-600" type="move" name="L"/>
    </contour>
  </outline>
</glyph>
<glyph name="LtnSmSCedilla" format="1">
  <advance width="911"/>
  <unicode hex="015F"/>
  <outline>
    <component base="LtnSmS"/>
    <component base="CombCedilla" xOffset="1058"/>
    <contour>
      <point x="480" y="1100" type="move" name="U"/>
    </contour>
    <contour>
      <point x="460" y="-600" type="move" name="L"/>
    </contour>
  </outline>
</glyph>
<glyph name="LtnCapSCaron" format="1">
  <advance width="1098"/>
  <unicode hex="0160"/>
  <outline>
    <component base="LtnCapS"/>
    <component base="CombCaron" xOffset="1177" yOffset="400"/>
    <contour>
      <point x="558" y="0" type="move" name="H"/>
    </contour>
    <contour>
      <point x="579" y="1900" type="move" name="U"/>
    </contour>
    <contour>
      <point x="558" y="-100" type="move" name="L"/>
    </contour>
  </outline>
</glyph>
<glyph name="LtnSmSCaron" format="1">
  <advance width="911"/>
  <unicode hex="0161"/>
  <outline>
    <component base="LtnSmS"/>
    <component base="CombCaron" xOffset="1078"/>
    <contour>
      <point x="460" y="0" type="move" name="H"/>
    </contour>
    <contour>
      <point x="480" y="1500" type="move" name="U"/>
    </contour>
    <contour>
      <point x="460" y="-100" type="move" name="L"/>
    </contour>
  </outline>
</glyph>
<glyph name="LtnCapTCedilla" format="1">
  <advance width="1247"/>
  <unicode hex="0162"/>
  <outline>
    <component base="LtnCapT"/>
    <component base="CombCedilla" xOffset="1221"/>
    <contour>
      <point x="623" y="1500" type="move" name="U"/>
    </contour>
    <contour>
      <point x="623" y="-600" type="move" name="L"/>
    </contour>
  </outline>
</glyph>
<glyph name="LtnSmTCedilla" format="1">
  <advance width="768"/>
  <unicode hex="0163"/>
  <outline>
    <component base="LtnSmT"/>
    <component base="CombCedilla" xOffset="1002"/>
    <contour>
      <point x="404" y="-600" type="move" name="L"/>
    </contour>
    <contour>
      <point x="768" y="1000" type="move" name="R"/>
    </contour>
    <contour>
      <point x="392" y="1363" type="move" name="U"/>
    </contour>
  </outline>
</glyph>
<glyph name="LtnCapUTilde" format="1">
  <advance width="1493"/>
  <unicode hex="0168"/>
  <outline>
    <component base="LtnCapU"/>
    <component base="SmTilde" xOffset="401" yOffset="400"/>
    <contour>
      <point x="742" y="0" type="move" name="H"/>
    </contour>
    <contour>
      <point x="760" y="-100" type="move" name="L"/>
    </contour>
    <contour>
      <point x="1051" y="0" type="move" name="O"/>
    </contour>
    <contour>
      <point x="1543" y="1320" type="move" name="R"/>
    </contour>
    <contour>
      <point x="760" y="1900" type="move" name="U"/>
    </contour>
  </outline>
</glyph>
<glyph name="LtnCapUMacron" format="1">
  <advance width="1493"/>
  <unicode hex="016A"/>
  <outline>
    <component base="LtnCapU"/>
    <component base="CombMacron" xOffset="1358" yOffset="400"/>
    <contour>
      <point x="742" y="0" type="move" name="H"/>
    </contour>
    <contour>
      <point x="1543" y="1320" type="move" name="R"/>
    </contour>
    <contour>
      <point x="760" y="1870" type="move" name="U"/>
    </contour>
    <contour>
      <point x="760" y="-100" type="move" name="L"/>
    </contour>
    <contour>
      <point x="1051" y="0" type="move" name="O"/>
    </contour>
  </outline>
</glyph>
<glyph name="LtnCapUBreve" format="1">
  <advance width="1493"/>
  <unicode hex="016C"/>
  <outline>
    <component base="LtnCapU"/>
    <component base="CombBreve" xOffset="1358" yOffset="400"/>
    <contour>
      <point x="742" y="0" type="move" name="H"/>
    </contour>
    <contour>
      <point x="1543" y="1320" type="move" name="R"/>
    </contour>
    <contour>
      <point x="760" y="1900" type="move" name="U"/>
    </contour>
    <contour>
      <point x="760" y="-100" type="move" name="L"/>
    </contour>
    <contour>
      <point x="1051" y="0" type="move" name="O"/>
    </contour>
  </outline>
</glyph>
<glyph name="LtnCapURingAbv" format="1">
  <advance width="1493"/>
  <unicode hex="016E"/>
  <outline>
    <component base="LtnCapU"/>
    <component base="RingAbv" xOffset="501" yOffset="400"/>
    <contour>
      <point x="742" y="0" type="move" name="H"/>
    </contour>
    <contour>
      <point x="1543" y="1320" type="move" name="R"/>
    </contour>
    <contour>
      <point x="760" y="2060" type="move" name="U"/>
    </contour>
    <contour>
      <point x="760" y="-100" type="move" name="L"/>
    </contour>
    <contour>
      <point x="1051" y="0" type="move" name="O"/>
    </contour>
  </outline>
</glyph>
<glyph name="LtnSmURingAbv" format="1">
  <advance width="1270"/>
  <unicode hex="016F"/>
  <outline>
    <component base="LtnSmU"/>
    <component base="RingAbv" xOffset="378"/>
    <contour>
      <point x="637" y="0" type="move" name="H"/>
    </contour>
    <contour>
      <point x="637" y="-100" type="move" name="L"/>
    </contour>
    <contour>
      <point x="1083" y="0" type="move" name="O"/>
    </contour>
    <contour>
      <point x="1270" y="1000" type="move" name="R"/>
    </contour>
    <contour>
      <point x="637" y="1660" type="move" name="U"/>
    </contour>
  </outline>
</glyph>
<glyph name="LtnCapUDblAcute" format="1">
  <advance width="1493"/>
  <unicode hex="0170"/>
  <outline>
    <component base="LtnCapU"/>
    <component base="DblAcuteAccent" xOffset="364" yOffset="400"/>
    <contour>
      <point x="742" y="0" type="move" name="H"/>
    </contour>
    <contour>
      <point x="1543" y="1320" type="move" name="R"/>
    </contour>
    <contour>
      <point x="760" y="1900" type="move" name="U"/>
    </contour>
    <contour>
      <point x="760" y="-100" type="move" name="L"/>
    </contour>
    <contour>
      <point x="1051" y="0" type="move" name="O"/>
    </contour>
  </outline>
</glyph>
<glyph name="LtnCapUOgonek" format="1">
  <advance width="1493"/>
  <unicode hex="0172"/>
  <outline>
    <component base="LtnCapU"/>
    <component base="CombOgonek" xOffset="1336" yOffset="-10"/>
    <contour>
      <point x="742" y="0" type="move" name="H"/>
    </contour>
    <contour>
      <point x="764" y="-400" type="move" name="L"/>
    </contour>
    <contour>
      <point x="1493" y="1000" type="move" name="R"/>
    </contour>
    <contour>
      <point x="760" y="1500" type="move" name="U"/>
    </contour>
  </outline>
</glyph>
<glyph name="LtnSmUOgonek" format="1">
  <advance width="1270"/>
  <unicode hex="0173"/>
  <outline>
    <component base="LtnSmU"/>
    <component base="CombOgonek" xOffset="1368"/>
    <contour>
      <point x="628" y="-400" type="move" name="L"/>
    </contour>
    <contour>
      <point x="637" y="1100" type="move" name="U"/>
    </contour>
  </outline>
</glyph>
<glyph name="LtnSmWCircum" format="1">
  <advance width="1722"/>
  <unicode hex="0175"/>
  <outline>
    <component base="LtnSmW"/>
    <component base="CombCircum" xOffset="1490"/>
    <contour>
      <point x="862" y="-100" type="move" name="L"/>
    </contour>
    <contour>
      <point x="892" y="1500" type="move" name="U"/>
    </contour>
  </outline>
</glyph>
<glyph name="LtnCapYCircum" format="1">
  <advance width="1358"/>
  <unicode hex="0176"/>
  <outline>
    <component base="LtnCapY"/>
    <component base="CombCircum" xOffset="1276" yOffset="400"/>
    <contour>
      <point x="678" y="-100" type="move" name="L"/>
    </contour>
    <contour>
      <point x="678" y="1900" type="move" name="U"/>
    </contour>
  </outline>
</glyph>
<glyph name="LtnSmYCircum" format="1">
  <advance width="1159"/>
  <unicode hex="0177"/>
  <outline>
    <component base="LtnSmY"/>
    <component base="CombCircum" xOffset="1198"/>
    <contour>
      <point x="1159" y="1000" type="move" name="R"/>
    </contour>
    <contour>
      <point x="600" y="1500" type="move" name="U"/>
    </contour>
    <contour>
      <point x="580" y="-500" type="move" name="L"/>
    </contour>
  </outline>
</glyph>
<glyph name="LtnCapYDiaer" format="1">
  <advance width="1358"/>
  <unicode hex="0178"/>
  <outline>
    <component base="LtnCapY"/>
    <component base="CombDiaer" xOffset="1276" yOffset="400"/>
    <contour>
      <point x="678" y="1900" type="move" name="U"/>
    </contour>
    <contour>
      <point x="678" y="-100" type="move" name="L"/>
    </contour>
  </outline>
</glyph>
<glyph name="LtnSmZAcute" format="1">
  <advance width="1006"/>
  <unicode hex="017A"/>
  <outline>
    <component base="LtnSmZ"/>
    <component base="CombAcute" xOffset="1111"/>
    <contour>
      <point x="513" y="0" type="move" name="H"/>
    </contour>
    <contour>
      <point x="513" y="1500" type="move" name="U"/>
    </contour>
    <contour>
      <point x="513" y="-100" type="move" name="L"/>
    </contour>
  </outline>
</glyph>
<glyph name="LtnCapZDotAbv" format="1">
  <advance width="1190"/>
  <unicode hex="017B"/>
  <outline>
    <component base="LtnCapZ"/>
    <component base="DotAbv" xOffset="477" yOffset="400"/>
    <contour>
      <point x="616" y="-100" type="move" name="L"/>
    </contour>
    <contour>
      <point x="616" y="1900" type="move" name="U"/>
    </contour>
  </outline>
</glyph>
<glyph name="LtnSmZDotAbv" format="1">
  <advance width="1006"/>
  <unicode hex="017C"/>
  <outline>
    <component base="LtnSmZ"/>
    <component base="DotAbv" xOffset="374"/>
    <contour>
      <point x="513" y="0" type="move" name="H"/>
    </contour>
    <contour>
      <point x="513" y="-100" type="move" name="L"/>
    </contour>
    <contour>
      <point x="513" y="1500" type="move" name="U"/>
    </contour>
  </outline>
</glyph>
<glyph name="LtnSmZCaron" format="1">
  <advance width="1006"/>
  <unicode hex="017E"/>
  <outline>
    <component base="LtnSmZ"/>
    <component base="CombCaron" xOffset="1111"/>
    <contour>
      <point x="513" y="0" type="move" name="H"/>
    </contour>
    <contour>
      <point x="513" y="1500" type="move" name="U"/>
    </contour>
    <contour>
      <point x="513" y="-100" type="move" name="L"/>
    </contour>
  </outline>
</glyph>
<glyph name="LtnSmLngS" format="2">
  <advance width="711"/>
  <unicode hex="017F"/>
  <anchor x="334" y="-100" name="L"/>
  <anchor x="424" y="1540" name="U"/>
  <outline>
    <contour>
      <point x="43" y="0" type="line"/>
      <point x="637" y="0" type="line"/>
      <point x="637" y="96" type="line"/>
      <point x="512" y="102" type="line"/>
      <point x="485" y="103"/>
      <point x="467" y="125"/>
      <point x="467" y="150" type="curve" smooth="yes"/>
      <point x="467" y="1094" type="line" smooth="yes"/>
      <point x="467" y="1280"/>
      <point x="489" y="1346"/>
      <point x="530" y="1407" type="curve"/>
      <point x="598" y="1344"/>
      <point x="665" y="1280"/>
      <point x="733" y="1217" type="curve"/>
      <point x="799" y="1239"/>
      <point x="860" y="1288"/>
      <point x="860" y="1352" type="curve" smooth="yes"/>
      <point x="860" y="1468"/>
      <point x="745" y="1516"/>
      <point x="664" y="1516" type="curve" smooth="yes"/>
      <point x="496" y="1516"/>
      <point x="362" y="1418"/>
      <point x="279" y="1286" type="curve" smooth="yes"/>
      <point x="222" y="1195"/>
      <point x="190" y="1100"/>
      <point x="190" y="993" type="curve" smooth="yes"/>
      <point x="190" y="145" type="line"/>
      <point x="190" y="122"/>
      <point x="170" y="103"/>
      <point x="147" y="102" type="curve" smooth="yes"/>
      <point x="43" y="96" type="line"/>
    </contour>
  </outline>
</glyph>
<glyph name="LtnSmBBarredStem" format="2">
  <advance width="1225"/>
  <unicode hex="0180"/>
  <anchor x="649" y="-100" name="L"/>
  <anchor x="649" y="1540" name="U"/>
  <outline>
    <contour>
      <point x="1159" y="561" type="curve" smooth="yes"/>
      <point x="1159" y="854"/>
      <point x="975" y="1024"/>
      <point x="756" y="1024" type="curve" smooth="yes"/>
      <point x="602" y="1024"/>
      <point x="459" y="930"/>
      <point x="459" y="930" type="curve"/>
      <point x="459" y="1092" type="line"/>
      <point x="672" y="1092" type="line"/>
      <point x="672" y="1221" type="line"/>
      <point x="459" y="1221" type="line"/>
      <point x="459" y="1516" type="line"/>
      <point x="354" y="1516" type="line"/>
      <point x="41" y="1413" type="line"/>
      <point x="41" y="1329" type="line"/>
      <point x="184" y="1329" type="line"/>
      <point x="184" y="1221" type="line"/>
      <point x="10" y="1221" type="line"/>
      <point x="10" y="1092" type="line"/>
      <point x="184" y="1092" type="line"/>
      <point x="184" y="0" type="line"/>
      <point x="559" y="0" type="line" smooth="yes"/>
      <point x="942" y="0"/>
      <point x="1159" y="246"/>
    </contour>
    <contour>
      <point x="862" y="500" type="curve" smooth="yes"/>
      <point x="862" y="209"/>
      <point x="729" y="113"/>
      <point x="502" y="113" type="curve" smooth="yes"/>
      <point x="489" y="113"/>
      <point x="483" y="115"/>
      <point x="459" y="115" type="curve"/>
      <point x="459" y="842" type="line"/>
      <point x="459" y="842"/>
      <point x="518" y="854"/>
      <point x="567" y="854" type="curve" smooth="yes"/>
      <point x="760" y="854"/>
      <point x="862" y="721"/>
    </contour>
  </outline>
</glyph>
<glyph name="LtnCapBHook" format="2">
  <advance width="1454"/>
  <unicode hex="0181"/>
  <anchor x="668" y="-100" name="L"/>
  <anchor x="668" y="1500" name="U"/>
  <outline>
    <contour>
      <point x="203" y="0" type="line"/>
      <point x="905" y="0" type="line" smooth="yes"/>
      <point x="1108" y="0"/>
      <point x="1378" y="16"/>
      <point x="1378" y="399" type="curve" smooth="yes"/>
      <point x="1378" y="670"/>
      <point x="1159" y="727"/>
      <point x="1008" y="731" type="curve"/>
      <point x="1075" y="745"/>
      <point x="1298" y="811"/>
      <point x="1298" y="1057" type="curve" smooth="yes"/>
      <point x="1298" y="1343"/>
      <point x="1010" y="1374"/>
      <point x="862" y="1374" type="curve" smooth="yes"/>
      <point x="688" y="1374"/>
      <point x="795" y="1374"/>
      <point x="295" y="1374" type="curve" smooth="yes"/>
      <point x="78" y="1374"/>
      <point x="-41" y="1305"/>
      <point x="-41" y="1153" type="curve" smooth="yes"/>
      <point x="-41" y="1063"/>
      <point x="2" y="995"/>
      <point x="94" y="997" type="curve" smooth="yes"/>
      <point x="176" y="997"/>
      <point x="190" y="1010"/>
      <point x="244" y="1061" type="curve"/>
      <point x="160" y="1206" type="line"/>
      <point x="182" y="1245"/>
      <point x="207" y="1253"/>
      <point x="250" y="1253" type="curve" smooth="yes"/>
      <point x="315" y="1253" type="line" smooth="yes"/>
      <point x="342" y="1253"/>
      <point x="358" y="1237"/>
      <point x="358" y="1210" type="curve" smooth="yes"/>
      <point x="358" y="160" type="line" smooth="yes"/>
      <point x="358" y="133"/>
      <point x="338" y="117"/>
      <point x="313" y="115" type="curve" smooth="yes"/>
      <point x="203" y="104" type="line"/>
    </contour>
    <contour>
      <point x="748" y="117" type="curve" smooth="yes"/>
      <point x="735" y="117"/>
      <point x="651" y="121"/>
      <point x="651" y="121" type="curve"/>
      <point x="651" y="643" type="line"/>
      <point x="709" y="645"/>
      <point x="733" y="645"/>
      <point x="754" y="645" type="curve" smooth="yes"/>
      <point x="975" y="645"/>
      <point x="1071" y="561"/>
      <point x="1071" y="385" type="curve" smooth="yes"/>
      <point x="1071" y="188"/>
      <point x="958" y="117"/>
    </contour>
    <contour>
      <point x="702" y="766" type="curve" smooth="yes"/>
      <point x="696" y="766"/>
      <point x="651" y="768"/>
      <point x="651" y="768" type="curve"/>
      <point x="651" y="1255" type="line"/>
      <point x="725" y="1260"/>
      <point x="721" y="1260"/>
      <point x="735" y="1260" type="curve" smooth="yes"/>
      <point x="954" y="1260"/>
      <point x="997" y="1145"/>
      <point x="997" y="1024" type="curve" smooth="yes"/>
      <point x="997" y="879"/>
      <point x="936" y="766"/>
    </contour>
  </outline>
</glyph>
<glyph name="LtnSmBTopbar" format="2">
  <advance width="1225"/>
  <unicode hex="0183"/>
  <anchor x="671" y="-100" name="L"/>
  <anchor x="671" y="1540" name="U"/>
  <outline>
    <contour>
      <point x="184" y="0" type="line"/>
      <point x="559" y="0" type="line" smooth="yes"/>
      <point x="942" y="0"/>
      <point x="1159" y="246"/>
      <point x="1159" y="561" type="curve" smooth="yes"/>
      <point x="1159" y="854"/>
      <point x="975" y="1024"/>
      <point x="756" y="1024" type="curve" smooth="yes"/>
      <point x="602" y="1024"/>
      <point x="459" y="930"/>
      <point x="459" y="930" type="curve"/>
      <point x="459" y="1369" type="line"/>
      <point x="459" y="1381"/>
      <point x="468" y="1399"/>
      <point x="489" y="1399" type="curve" smooth="yes"/>
      <point x="848" y="1399" type="line" smooth="yes"/>
      <point x="874" y="1399"/>
      <point x="887" y="1387"/>
      <point x="893" y="1354" type="curve"/>
      <point x="920" y="1180" type="line"/>
      <point x="1067" y="1180" type="line"/>
      <point x="1067" y="1516" type="line"/>
      <point x="326" y="1516"/>
      <point x="635" y="1516"/>
      <point x="184" y="1516" type="curve"/>
    </contour>
    <contour>
      <point x="502" y="113" type="curve" smooth="yes"/>
      <point x="489" y="113"/>
      <point x="483" y="115"/>
      <point x="459" y="115" type="curve"/>
      <point x="459" y="842" type="line"/>
      <point x="459" y="842"/>
      <point x="518" y="854"/>
      <point x="567" y="854" type="curve" smooth="yes"/>
      <point x="760" y="854"/>
      <point x="862" y="721"/>
      <point x="862" y="500" type="curve" smooth="yes"/>
      <point x="862" y="209"/>
      <point x="729" y="113"/>
    </contour>
  </outline>
</glyph>
<glyph name="LtnSmTnSix" format="1">
  <advance width="1225"/>
  <unicode hex="0185"/>
  <outline>
    <contour>
      <point x="1159" y="561" type="curve" smooth="yes"/>
      <point x="1159" y="854"/>
      <point x="975" y="1024"/>
      <point x="756" y="1024" type="curve" smooth="yes"/>
      <point x="602" y="1024"/>
      <point x="459" y="930"/>
      <point x="459" y="930" type="curve"/>
      <point x="459" y="1556" type="line"/>
      <point x="11" y="1073" type="line"/>
      <point x="184" y="969" type="line"/>
      <point x="184" y="0" type="line"/>
      <point x="559" y="0" type="line" smooth="yes"/>
      <point x="942" y="0"/>
      <point x="1159" y="246"/>
    </contour>
    <contour>
      <point x="862" y="500" type="curve" smooth="yes"/>
      <point x="862" y="209"/>
      <point x="729" y="113"/>
      <point x="502" y="113" type="curve" smooth="yes"/>
      <point x="489" y="113"/>
      <point x="483" y="115"/>
      <point x="459" y="115" type="curve"/>
      <point x="459" y="842" type="line"/>
      <point x="459" y="842"/>
      <point x="518" y="854"/>
      <point x="567" y="854" type="curve" smooth="yes"/>
      <point x="760" y="854"/>
      <point x="862" y="721"/>
    </contour>
    <contour>
      <point x="585" y="-100" type="move" name="L"/>
    </contour>
    <contour>
      <point x="585" y="1540" type="move" name="U"/>
    </contour>
  </outline>
</glyph>
<glyph name="LtnCapIota" format="2">
  <advance width="915"/>
  <unicode hex="0196"/>
  <anchor x="487" y="-100" name="L"/>
  <anchor x="404" y="1500" name="U"/>
  <outline>
    <contour>
      <point x="915" y="305" type="curve"/>
      <point x="760" y="305" type="line"/>
      <point x="715" y="197"/>
      <point x="655" y="176"/>
      <point x="637" y="176" type="curve" smooth="yes"/>
      <point x="561" y="174"/>
      <point x="520" y="209"/>
      <point x="520" y="272" type="curve" smooth="yes"/>
      <point x="520" y="1374" type="line"/>
      <point x="59" y="1374" type="line"/>
      <point x="59" y="1270" type="line"/>
      <point x="182" y="1260" type="line" smooth="yes"/>
      <point x="205" y="1257"/>
      <point x="227" y="1241"/>
      <point x="227" y="1214" type="curve" smooth="yes"/>
      <point x="227" y="305" type="line" smooth="yes"/>
      <point x="227" y="70"/>
      <point x="336" y="-33"/>
      <point x="526" y="-33" type="curve" smooth="yes"/>
      <point x="653" y="-33"/>
      <point x="838" y="37"/>
    </contour>
  </outline>
</glyph>
<glyph name="LtnSmTnTwo" format="1">
  <advance width="937"/>
  <unicode hex="01A8"/>
  <outline>
    <contour>
      <point x="719" y="342" type="line"/>
      <point x="713" y="287"/>
      <point x="689" y="154"/>
      <point x="689" y="154" type="curve"/>
      <point x="683" y="141"/>
      <point x="562" y="96"/>
      <point x="496" y="96" type="curve" smooth="yes"/>
      <point x="364" y="96"/>
      <point x="326" y="163"/>
      <point x="326" y="227" type="curve" smooth="yes"/>
      <point x="326" y="340"/>
      <point x="486" y="365"/>
      <point x="625" y="451" type="curve" smooth="yes"/>
      <point x="786" y="551"/>
      <point x="870" y="611"/>
      <point x="870" y="755" type="curve" smooth="yes"/>
      <point x="870" y="927"/>
      <point x="703" y="1024"/>
      <point x="469" y="1024" type="curve" smooth="yes"/>
      <point x="286" y="1024"/>
      <point x="183" y="986"/>
      <point x="141" y="969" type="curve"/>
      <point x="131" y="686" type="line"/>
      <point x="258" y="686" type="line"/>
      <point x="286" y="850" type="line"/>
      <point x="315" y="881"/>
      <point x="374" y="901"/>
      <point x="448" y="901" type="curve" smooth="yes"/>
      <point x="542" y="901"/>
      <point x="598" y="842"/>
      <point x="598" y="772" type="curve" smooth="yes"/>
      <point x="598" y="697"/>
      <point x="478" y="652"/>
      <point x="365" y="598" type="curve" smooth="yes"/>
      <point x="176" y="507"/>
      <point x="64" y="413"/>
      <point x="64" y="266" type="curve" smooth="yes"/>
      <point x="64" y="38"/>
      <point x="273" y="-25"/>
      <point x="472" y="-25" type="curve" smooth="yes"/>
      <point x="653" y="-25"/>
      <point x="778" y="8"/>
      <point x="838" y="31" type="curve"/>
      <point x="848" y="342" type="line"/>
    </contour>
    <contour>
      <point x="467" y="1100" type="move" name="U"/>
    </contour>
    <contour>
      <point x="467" y="-100" type="move" name="L"/>
    </contour>
  </outline>
</glyph>
<glyph name="LtnRevEshLoop" format="2">
  <advance width="1122"/>
  <unicode hex="01AA"/>
  <anchor x="709" y="-500" name="L"/>
  <anchor x="709" y="1540" name="U"/>
  <outline>
    <contour>
      <point x="1352" y="-322" type="curve" smooth="yes"/>
      <point x="1352" y="-252"/>
      <point x="1323" y="-164"/>
      <point x="1202" y="-164" type="curve"/>
      <point x="1030" y="-367" type="line"/>
      <point x="995" y="-367"/>
      <point x="909" y="-221"/>
      <point x="909" y="-47" type="curve" smooth="yes"/>
      <point x="909" y="1026" type="line" smooth="yes"/>
      <point x="909" y="1255"/>
      <point x="731" y="1407"/>
      <point x="487" y="1407" type="curve" smooth="yes"/>
      <point x="242" y="1407"/>
      <point x="66" y="1255"/>
      <point x="66" y="1026" type="curve" smooth="yes"/>
      <point x="66" y="799"/>
      <point x="244" y="645"/>
      <point x="489" y="645" type="curve" smooth="yes"/>
      <point x="543" y="645"/>
      <point x="590" y="649"/>
      <point x="637" y="662" type="curve"/>
      <point x="637" y="-47" type="line" smooth="yes"/>
      <point x="637" y="-324"/>
      <point x="862" y="-473"/>
      <point x="1137" y="-473" type="curve" smooth="yes"/>
      <point x="1227" y="-473"/>
      <point x="1352" y="-426"/>
    </contour>
    <contour>
      <point x="637" y="1026" type="curve" smooth="yes"/>
      <point x="637" y="897"/>
      <point x="635" y="721"/>
      <point x="489" y="721" type="curve" smooth="yes"/>
      <point x="342" y="721"/>
      <point x="338" y="897"/>
      <point x="338" y="1026" type="curve" smooth="yes"/>
      <point x="338" y="1155"/>
      <point x="342" y="1329"/>
      <point x="487" y="1329" type="curve" smooth="yes"/>
      <point x="635" y="1329"/>
      <point x="637" y="1155"/>
    </contour>
  </outline>
</glyph>
<glyph name="LtnCapUHorn" format="2">
  <advance width="1726"/>
  <unicode hex="01AF"/>
  <anchor x="758" y="-100" name="L"/>
  <anchor x="758" y="1500" name="U"/>
  <outline>
    <contour>
      <point x="1706" y="1491" type="curve" smooth="yes"/>
      <point x="1706" y="1692"/>
      <point x="1638" y="1796"/>
      <point x="1450" y="1796" type="curve" smooth="yes"/>
      <point x="1362" y="1796"/>
      <point x="1262" y="1726"/>
      <point x="1262" y="1620" type="curve" smooth="yes"/>
      <point x="1262" y="1546"/>
      <point x="1341" y="1483"/>
      <point x="1341" y="1483" type="curve"/>
      <point x="1538" y="1483" type="line"/>
      <point x="1538" y="1223"/>
      <point x="1421" y="1128"/>
      <point x="1282" y="1069" type="curve"/>
      <point x="1282" y="1214" type="line" smooth="yes"/>
      <point x="1282" y="1241"/>
      <point x="1303" y="1257"/>
      <point x="1327" y="1260" type="curve" smooth="yes"/>
      <point x="1413" y="1270" type="line"/>
      <point x="1413" y="1374" type="line"/>
      <point x="979" y="1374" type="line"/>
      <point x="979" y="1270" type="line"/>
      <point x="1077" y="1260" type="line" smooth="yes"/>
      <point x="1102" y="1257"/>
      <point x="1122" y="1241"/>
      <point x="1122" y="1214" type="curve" smooth="yes"/>
      <point x="1122" y="504" type="line" smooth="yes"/>
      <point x="1122" y="283"/>
      <point x="1036" y="137"/>
      <point x="823" y="137" type="curve" smooth="yes"/>
      <point x="596" y="137"/>
      <point x="492" y="248"/>
      <point x="492" y="504" type="curve" smooth="yes"/>
      <point x="492" y="1214" type="line" smooth="yes"/>
      <point x="492" y="1241"/>
      <point x="512" y="1257"/>
      <point x="537" y="1260" type="curve" smooth="yes"/>
      <point x="647" y="1270" type="line"/>
      <point x="647" y="1374" type="line"/>
      <point x="45" y="1374" type="line"/>
      <point x="45" y="1270" type="line"/>
      <point x="156" y="1260" type="line" smooth="yes"/>
      <point x="180" y="1257"/>
      <point x="203" y="1241"/>
      <point x="203" y="1214" type="curve" smooth="yes"/>
      <point x="203" y="520" type="line" smooth="yes"/>
      <point x="203" y="160"/>
      <point x="367" y="-33"/>
      <point x="721" y="-33" type="curve" smooth="yes"/>
      <point x="1102" y="-33"/>
      <point x="1282" y="117"/>
      <point x="1282" y="520" type="curve" smooth="yes"/>
      <point x="1282" y="938" type="line"/>
      <point x="1573" y="1067"/>
      <point x="1706" y="1196"/>
    </contour>
  </outline>
</glyph>
<glyph name="LtnSmUHorn" format="2">
  <advance width="1417"/>
  <unicode hex="01B0"/>
  <anchor x="668" y="-100" name="L"/>
  <anchor x="668" y="1100" name="U"/>
  <outline>
    <contour>
      <point x="1397" y="1167" type="curve" smooth="yes"/>
      <point x="1397" y="1300"/>
      <point x="1325" y="1368"/>
      <point x="1225" y="1368" type="curve" smooth="yes"/>
      <point x="1153" y="1368"/>
      <point x="1067" y="1335"/>
      <point x="1067" y="1235" type="curve" smooth="yes"/>
      <point x="1067" y="1178"/>
      <point x="1112" y="1120"/>
      <point x="1112" y="1120" type="curve"/>
      <point x="1276" y="1120" type="line"/>
      <point x="1276" y="1001"/>
      <point x="1171" y="920"/>
      <point x="1085" y="885" type="curve"/>
      <point x="1085" y="1024" type="line"/>
      <point x="981" y="1024" type="line"/>
      <point x="682" y="922" type="line"/>
      <point x="682" y="838" type="line"/>
      <point x="811" y="838" type="line"/>
      <point x="811" y="197" type="line"/>
      <point x="811" y="197"/>
      <point x="733" y="162"/>
      <point x="647" y="162" type="curve" smooth="yes"/>
      <point x="473" y="162"/>
      <point x="459" y="289"/>
      <point x="459" y="389" type="curve" smooth="yes"/>
      <point x="459" y="1024" type="line"/>
      <point x="352" y="1024" type="line"/>
      <point x="51" y="922" type="line"/>
      <point x="51" y="838" type="line"/>
      <point x="184" y="838" type="line"/>
      <point x="184" y="309" type="line" smooth="yes"/>
      <point x="184" y="100"/>
      <point x="254" y="-25"/>
      <point x="487" y="-25" type="curve" smooth="yes"/>
      <point x="637" y="-25"/>
      <point x="811" y="113"/>
      <point x="811" y="113" type="curve"/>
      <point x="811" y="0" type="line"/>
      <point x="1223" y="0" type="line"/>
      <point x="1223" y="96" type="line"/>
      <point x="1133" y="102" type="line" smooth="yes"/>
      <point x="1108" y="104"/>
      <point x="1085" y="125"/>
      <point x="1085" y="150" type="curve" smooth="yes"/>
      <point x="1085" y="797" type="line"/>
      <point x="1270" y="852"/>
      <point x="1397" y="1032"/>
    </contour>
  </outline>
</glyph>
<glyph name="LtnCapEzhRev" format="2">
  <advance width="1323"/>
  <unicode hex="01B8"/>
  <anchor x="668" y="-500" name="L"/>
  <anchor x="668" y="1500" name="U"/>
  <outline>
    <contour>
      <point x="727" y="-473" type="curve" smooth="yes"/>
      <point x="1034" y="-473"/>
      <point x="1270" y="-311"/>
      <point x="1270" y="-139" type="curve" smooth="yes"/>
      <point x="1270" y="6"/>
      <point x="1173" y="45"/>
      <point x="1097" y="45" type="curve" smooth="yes"/>
      <point x="1054" y="45"/>
      <point x="1022" y="29"/>
      <point x="997" y="14" type="curve"/>
      <point x="922" y="-279" type="line"/>
      <point x="872" y="-295"/>
      <point x="793" y="-334"/>
      <point x="729" y="-334" type="curve" smooth="yes"/>
      <point x="551" y="-334"/>
      <point x="387" y="-61"/>
      <point x="387" y="142" type="curve" smooth="yes"/>
      <point x="387" y="340"/>
      <point x="483" y="518"/>
      <point x="666" y="518" type="curve" smooth="yes"/>
      <point x="725" y="518"/>
      <point x="750" y="507"/>
      <point x="761" y="499" type="curve"/>
      <point x="821" y="565" type="line"/>
      <point x="451" y="1114" type="line"/>
      <point x="969" y="1114" type="line" smooth="yes"/>
      <point x="991" y="1114"/>
      <point x="1015" y="1081"/>
      <point x="1016" y="1059" type="curve" smooth="yes"/>
      <point x="1032" y="801" type="line"/>
      <point x="1180" y="801" type="line"/>
      <point x="1180" y="1374" type="line"/>
      <point x="131" y="1374" type="line"/>
      <point x="131" y="1266" type="line"/>
      <point x="559" y="647" type="line"/>
      <point x="268" y="647"/>
      <point x="66" y="355"/>
      <point x="66" y="132" type="curve" smooth="yes"/>
      <point x="66" y="-202"/>
      <point x="365" y="-473"/>
    </contour>
  </outline>
</glyph>
<glyph name="LtnSmEzhRev" format="2">
  <advance width="1147"/>
  <unicode hex="01B9"/>
  <anchor x="590" y="-500" name="L"/>
  <anchor x="590" y="1100" name="U"/>
  <outline>
    <contour>
      <point x="641" y="-473" type="curve" smooth="yes"/>
      <point x="907" y="-473"/>
      <point x="1114" y="-322"/>
      <point x="1114" y="-186" type="curve" smooth="yes"/>
      <point x="1114" y="-72"/>
      <point x="1028" y="-41"/>
      <point x="965" y="-41" type="curve" smooth="yes"/>
      <point x="928" y="-41"/>
      <point x="899" y="-55"/>
      <point x="877" y="-66" type="curve"/>
      <point x="809" y="-295" type="line"/>
      <point x="766" y="-307"/>
      <point x="678" y="-342"/>
      <point x="623" y="-342" type="curve" smooth="yes"/>
      <point x="469" y="-342"/>
      <point x="367" y="-133"/>
      <point x="367" y="27" type="curve" smooth="yes"/>
      <point x="367" y="183"/>
      <point x="430" y="311"/>
      <point x="588" y="311" type="curve" smooth="yes"/>
      <point x="660" y="311"/>
      <point x="668" y="295"/>
      <point x="668" y="295" type="curve"/>
      <point x="723" y="348" type="line"/>
      <point x="412" y="766" type="line"/>
      <point x="836" y="766" type="line" smooth="yes"/>
      <point x="856" y="766"/>
      <point x="876" y="741"/>
      <point x="877" y="723" type="curve" smooth="yes"/>
      <point x="891" y="541" type="line"/>
      <point x="1036" y="541" type="line"/>
      <point x="1036" y="999" type="line"/>
      <point x="123" y="999" type="line"/>
      <point x="123" y="905" type="line"/>
      <point x="496" y="412" type="line"/>
      <point x="244" y="412"/>
      <point x="66" y="183"/>
      <point x="66" y="7" type="curve" smooth="yes"/>
      <point x="66" y="-255"/>
      <point x="326" y="-473"/>
    </contour>
  </outline>
</glyph>
<glyph name="LtnTwoStrk" format="2">
  <advance width="1202"/>
  <unicode hex="01BB"/>
  <anchor x="627" y="-100" name="L"/>
  <anchor x="627" y="1500" name="U"/>
  <outline>
    <contour>
      <point x="1167" y="549" type="line"/>
      <point x="1167" y="680" type="line"/>
      <point x="940" y="680" type="line"/>
      <point x="1022" y="780"/>
      <point x="1069" y="885"/>
      <point x="1069" y="1001" type="curve" smooth="yes"/>
      <point x="1069" y="1247"/>
      <point x="864" y="1399"/>
      <point x="604" y="1399" type="curve" smooth="yes"/>
      <point x="426" y="1399"/>
      <point x="104" y="1337"/>
      <point x="104" y="1079" type="curve" smooth="yes"/>
      <point x="104" y="989"/>
      <point x="158" y="928"/>
      <point x="258" y="928" type="curve" smooth="yes"/>
      <point x="324" y="928"/>
      <point x="397" y="967"/>
      <point x="397" y="967" type="curve"/>
      <point x="397" y="1243" type="line"/>
      <point x="442" y="1257"/>
      <point x="459" y="1262"/>
      <point x="514" y="1262" type="curve" smooth="yes"/>
      <point x="670" y="1262"/>
      <point x="768" y="1145"/>
      <point x="768" y="983" type="curve" smooth="yes"/>
      <point x="768" y="877"/>
      <point x="723" y="774"/>
      <point x="655" y="680" type="curve"/>
      <point x="129" y="680" type="line"/>
      <point x="129" y="549" type="line"/>
      <point x="547" y="549" type="line"/>
      <point x="385" y="381"/>
      <point x="180" y="248"/>
      <point x="88" y="170" type="curve"/>
      <point x="88" y="0" type="line"/>
      <point x="1112" y="0" type="line"/>
      <point x="1112" y="401" type="line"/>
      <point x="981" y="401" type="line"/>
      <point x="942" y="221" type="line"/>
      <point x="360" y="221" type="line"/>
      <point x="535" y="336"/>
      <point x="690" y="442"/>
      <point x="811" y="549" type="curve"/>
    </contour>
  </outline>
</glyph>
<glyph name="LtnCapTnFive" format="2">
  <advance width="1194"/>
  <unicode hex="01BC"/>
  <anchor x="578" y="-100" name="L"/>
  <anchor x="578" y="1500" name="U"/>
  <outline>
    <contour>
      <point x="515" y="-33" type="curve" smooth="yes"/>
      <point x="911" y="-33"/>
      <point x="1112" y="176"/>
      <point x="1112" y="454" type="curve" smooth="yes"/>
      <point x="1112" y="756"/>
      <point x="815" y="940"/>
      <point x="506" y="940" type="curve"/>
      <point x="506" y="1214" type="line" smooth="yes"/>
      <point x="506" y="1230"/>
      <point x="521" y="1257"/>
      <point x="551" y="1257" type="curve" smooth="yes"/>
      <point x="838" y="1257" type="line" smooth="yes"/>
      <point x="857" y="1257"/>
      <point x="880" y="1233"/>
      <point x="883" y="1212" type="curve" smooth="yes"/>
      <point x="908" y="1038" type="line"/>
      <point x="1055" y="1038" type="line"/>
      <point x="1055" y="1374" type="line"/>
      <point x="45" y="1374" type="line"/>
      <point x="45" y="1270" type="line"/>
      <point x="169" y="1260" type="line"/>
      <point x="199" y="1256"/>
      <point x="214" y="1233"/>
      <point x="214" y="1217" type="curve" smooth="yes"/>
      <point x="214" y="794" type="line"/>
      <point x="657" y="794"/>
      <point x="816" y="589"/>
      <point x="816" y="405" type="curve" smooth="yes"/>
      <point x="816" y="260"/>
      <point x="734" y="93"/>
      <point x="551" y="93" type="curve" smooth="yes"/>
      <point x="501" y="93"/>
      <point x="434" y="94"/>
      <point x="398" y="106" type="curve"/>
      <point x="317" y="328" type="line"/>
      <point x="303" y="336"/>
      <point x="251" y="348"/>
      <point x="224" y="348" type="curve" smooth="yes"/>
      <point x="136" y="348"/>
      <point x="75" y="288"/>
      <point x="75" y="209" type="curve" smooth="yes"/>
      <point x="75" y="63"/>
      <point x="267" y="-33"/>
    </contour>
  </outline>
</glyph>
<glyph name="LtnLateralClick" format="1">
  <advance width="753"/>
  <unicode hex="01C1"/>
  <outline>
    <contour>
      <point x="609" y="-440" type="line"/>
      <point x="609" y="1507" type="line"/>
      <point x="444" y="1507" type="line"/>
      <point x="444" y="-440" type="line"/>
    </contour>
    <contour>
      <point x="309" y="-440" type="line"/>
      <point x="309" y="1507" type="line"/>
      <point x="144" y="1507" type="line"/>
      <point x="144" y="-440" type="line"/>
    </contour>
    <contour>
      <point x="376" y="-500" type="move" name="L"/>
    </contour>
    <contour>
      <point x="376" y="1540" type="move" name="U"/>
    </contour>
  </outline>
</glyph>
<glyph name="LtnAlveolarClick" format="1">
  <advance width="853"/>
  <unicode hex="01C2"/>
  <outline>
    <contour>
      <point x="50" y="599" type="line"/>
      <point x="803" y="599" type="line"/>
      <point x="803" y="743" type="line"/>
      <point x="50" y="743" type="line"/>
    </contour>
    <contour>
      <point x="50" y="323" type="line"/>
      <point x="803" y="323" type="line"/>
      <point x="803" y="467" type="line"/>
      <point x="50" y="467" type="line"/>
    </contour>
    <component base="LtnDentalClick" xOffset="200"/>
    <contour>
      <point x="426" y="-500" type="move" name="L"/>
    </contour>
    <contour>
      <point x="426" y="1540" type="move" name="U"/>
    </contour>
  </outline>
</glyph>
<glyph name="LtnCapDzCaron" format="1">
  <advance width="2673"/>
  <unicode hex="01C4"/>
  <outline>
    <component base="LtnCapD"/>
    <component base="LtnCapZ" xOffset="1483"/>
    <component base="CombCaron" xOffset="2697" yOffset="400"/>
    <contour>
      <point x="2099" y="1900" type="move" name="U"/>
    </contour>
    <contour>
      <point x="2099" y="-100" type="move" name="L"/>
    </contour>
  </outline>
</glyph>
<glyph name="LtnCapDSmZCaron" format="1">
  <advance width="2489"/>
  <unicode hex="01C5"/>
  <outline>
    <component base="LtnCapD"/>
    <component base="LtnSmZ" xOffset="1483"/>
    <component base="CombCaron" xOffset="2594"/>
    <contour>
      <point x="1996" y="0" type="move" name="H"/>
    </contour>
    <contour>
      <point x="1996" y="1500" type="move" name="U"/>
    </contour>
    <contour>
      <point x="1996" y="-100" type="move" name="L"/>
    </contour>
  </outline>
</glyph>
<glyph name="LtnSmDzCaron" format="1">
  <advance width="2253"/>
  <unicode hex="01C6"/>
  <outline>
    <component base="LtnSmD"/>
    <component base="LtnSmZ" xOffset="1247"/>
    <component base="CombCaron" xOffset="2358"/>
    <contour>
      <point x="1760" y="0" type="move" name="H"/>
    </contour>
    <contour>
      <point x="1760" y="1500" type="move" name="U"/>
    </contour>
    <contour>
      <point x="1760" y="-100" type="move" name="L"/>
    </contour>
  </outline>
</glyph>
<glyph name="LtnCapLj" format="1">
  <advance width="2184"/>
  <unicode hex="01C7"/>
  <outline>
    <component base="LtnCapL"/>
    <component base="LtnCapJ" xOffset="1135"/>
    <contour>
      <point x="578" y="0" type="move" name="H"/>
    </contour>
    <contour>
      <point x="1569" y="-100" type="move" name="L"/>
    </contour>
    <contour>
      <point x="1854" y="1500" type="move" name="U"/>
    </contour>
  </outline>
</glyph>
<glyph name="LtnCapLSmJ" format="1">
  <advance width="1799"/>
  <unicode hex="01C8"/>
  <outline>
    <component base="LtnCapL"/>
    <component base="LtnSmJ" xOffset="1135"/>
    <contour>
      <point x="1292" y="-500" type="move" name="L"/>
    </contour>
    <contour>
      <point x="578" y="0" type="move" name="H"/>
    </contour>
    <contour>
      <point x="1509" y="1500" type="move" name="U"/>
    </contour>
  </outline>
</glyph>
<glyph name="LtnSmLj" format="1">
  <advance width="1346"/>
  <unicode hex="01C9"/>
  <outline>
    <component base="LtnSmL"/>
    <component base="LtnSmJ" xOffset="682"/>
    <contour>
      <point x="342" y="0" type="move" name="H"/>
    </contour>
    <contour>
      <point x="839" y="-500" type="move" name="L"/>
    </contour>
    <contour>
      <point x="1056" y="1500" type="move" name="U"/>
    </contour>
  </outline>
</glyph>
<glyph name="LtnCapNj" format="1">
  <advance width="2573"/>
  <unicode hex="01CA"/>
  <outline>
    <component base="LtnCapN"/>
    <component base="LtnCapJ" xOffset="1524"/>
    <contour>
      <point x="1177" y="0" type="move" name="H"/>
    </contour>
    <contour>
      <point x="2243" y="1500" type="move" name="U"/>
    </contour>
    <contour>
      <point x="1958" y="-100" type="move" name="L"/>
    </contour>
  </outline>
</glyph>
<glyph name="LtnCapNSmJ" format="1">
  <advance width="2188"/>
  <unicode hex="01CB"/>
  <outline>
    <component base="LtnCapN"/>
    <component base="LtnSmJ" xOffset="1524"/>
    <contour>
      <point x="759" y="0" type="move" name="H"/>
    </contour>
    <contour>
      <point x="1681" y="-500" type="move" name="L"/>
    </contour>
    <contour>
      <point x="1898" y="1500" type="move" name="U"/>
    </contour>
  </outline>
</glyph>
<glyph name="LtnSmNj" format="1">
  <advance width="1944"/>
  <unicode hex="01CC"/>
  <outline>
    <component base="LtnSmN"/>
    <component base="LtnSmJ" xOffset="1280"/>
    <contour>
      <point x="939" y="0" type="move" name="H"/>
    </contour>
    <contour>
      <point x="1437" y="-500" type="move" name="L"/>
    </contour>
    <contour>
      <point x="1654" y="1500" type="move" name="U"/>
    </contour>
  </outline>
</glyph>
<glyph name="LtnCapACaron" format="1">
  <advance width="1405"/>
  <unicode hex="01CD"/>
  <outline>
    <component base="LtnCapA"/>
    <component base="CombCaron" xOffset="1293" yOffset="400"/>
    <contour>
      <point x="695" y="0" type="move" name="H"/>
    </contour>
    <contour>
      <point x="695" y="-100" type="move" name="L"/>
    </contour>
    <contour>
      <point x="1290" y="0" type="move" name="O"/>
    </contour>
    <contour>
      <point x="695" y="1900" type="move" name="U"/>
    </contour>
  </outline>
</glyph>
<glyph name="LtnSmICaron" format="1">
  <advance width="682"/>
  <unicode hex="01D0"/>
  <outline>
    <component base="LtnSmDotlessI"/>
    <component base="CombCaron" xOffset="942"/>
    <contour>
      <point x="344" y="0" type="move" name="H"/>
    </contour>
    <contour>
      <point x="682" y="1000" type="move" name="R"/>
    </contour>
    <contour>
      <point x="344" y="1500" type="move" name="U"/>
    </contour>
    <contour>
      <point x="344" y="-100" type="move" name="L"/>
    </contour>
    <contour>
      <point x="525" y="0" type="move" name="O"/>
    </contour>
  </outline>
</glyph>
<glyph name="LtnCapOCaron" format="1">
  <advance width="1548"/>
  <unicode hex="01D1"/>
  <outline>
    <component base="LtnCapO"/>
    <component base="CombCaron" xOffset="1373" yOffset="400"/>
    <contour>
      <point x="775" y="0" type="move" name="H"/>
    </contour>
    <contour>
      <point x="1508" y="1250" type="move" name="R"/>
    </contour>
    <contour>
      <point x="775" y="1900" type="move" name="U"/>
    </contour>
    <contour>
      <point x="775" y="-100" type="move" name="L"/>
    </contour>
    <contour>
      <point x="1043" y="0" type="move" name="O"/>
    </contour>
  </outline>
</glyph>
<glyph name="LtnCapUDiaerMacron" format="1">
  <advance width="1493"/>
  <unicode hex="01D5"/>
  <outline>
    <component base="LtnCapU"/>
    <component base="CombDiaer" xOffset="1358" yOffset="400"/>
    <component base="CombMacron" xOffset="1358" yOffset="800"/>
    <contour>
      <point x="742" y="0" type="move" name="H"/>
    </contour>
    <contour>
      <point x="1543" y="1320" type="move" name="R"/>
    </contour>
    <contour>
      <point x="760" y="2270" type="move" name="U"/>
    </contour>
    <contour>
      <point x="760" y="-100" type="move" name="L"/>
    </contour>
    <contour>
      <point x="1051" y="0" type="move" name="O"/>
    </contour>
  </outline>
</glyph>
<glyph name="LtnSmUDiaerMacron" format="1">
  <advance width="1270"/>
  <unicode hex="01D6"/>
  <outline>
    <component base="LtnSmU"/>
    <component base="CombDiaer" xOffset="1235"/>
    <component base="CombMacron" xOffset="1235" yOffset="400"/>
    <contour>
      <point x="637" y="0" type="move" name="H"/>
    </contour>
    <contour>
      <point x="1270" y="1000" type="move" name="R"/>
    </contour>
    <contour>
      <point x="637" y="1870" type="move" name="U"/>
    </contour>
    <contour>
      <point x="637" y="-100" type="move" name="L"/>
    </contour>
    <contour>
      <point x="1083" y="0" type="move" name="O"/>
    </contour>
  </outline>
</glyph>
<glyph name="LtnCapUDiaerAcute" format="1">
  <advance width="1493"/>
  <unicode hex="01D7"/>
  <outline>
    <component base="LtnCapU"/>
    <component base="CombDiaer" xOffset="1358" yOffset="400"/>
    <component base="CombAcute" xOffset="1358" yOffset="800"/>
    <contour>
      <point x="742" y="0" type="move" name="H"/>
    </contour>
    <contour>
      <point x="1543" y="1320" type="move" name="R"/>
    </contour>
    <contour>
      <point x="760" y="2300" type="move" name="U"/>
    </contour>
    <contour>
      <point x="760" y="-100" type="move" name="L"/>
    </contour>
    <contour>
      <point x="1051" y="0" type="move" name="O"/>
    </contour>
  </outline>
</glyph>
<glyph name="LtnCapUDiaerCaron" format="1">
  <advance width="1493"/>
  <unicode hex="01D9"/>
  <outline>
    <component base="LtnCapU"/>
    <component base="CombDiaer" xOffset="1358" yOffset="400"/>
    <component base="CombCaron" xOffset="1358" yOffset="800"/>
    <contour>
      <point x="742" y="0" type="move" name="H"/>
    </contour>
    <contour>
      <point x="1543" y="1320" type="move" name="R"/>
    </contour>
    <contour>
      <point x="760" y="2300" type="move" name="U"/>
    </contour>
    <contour>
      <point x="760" y="-100" type="move" name="L"/>
    </contour>
    <contour>
      <point x="1051" y="0" type="move" name="O"/>
    </contour>
  </outline>
</glyph>
<glyph name="LtnSmUDiaerCaron" format="1">
  <advance width="1270"/>
  <unicode hex="01DA"/>
  <outline>
    <component base="LtnSmU"/>
    <component base="CombDiaer" xOffset="1235"/>
    <component base="CombCaron" xOffset="1235" yOffset="400"/>
    <contour>
      <point x="637" y="0" type="move" name="H"/>
    </contour>
    <contour>
      <point x="1270" y="1000" type="move" name="R"/>
    </contour>
    <contour>
      <point x="637" y="1900" type="move" name="U"/>
    </contour>
    <contour>
      <point x="637" y="-100" type="move" name="L"/>
    </contour>
    <contour>
      <point x="1083" y="0" type="move" name="O"/>
    </contour>
  </outline>
</glyph>
<glyph name="LtnCapUDiaerGrave" format="1">
  <advance width="1493"/>
  <unicode hex="01DB"/>
  <outline>
    <component base="LtnCapU"/>
    <component base="CombDiaer" xOffset="1358" yOffset="400"/>
    <component base="CombGrave" xOffset="1358" yOffset="800"/>
    <contour>
      <point x="742" y="0" type="move" name="H"/>
    </contour>
    <contour>
      <point x="760" y="-100" type="move" name="L"/>
    </contour>
    <contour>
      <point x="1051" y="0" type="move" name="O"/>
    </contour>
    <contour>
      <point x="1543" y="1320" type="move" name="R"/>
    </contour>
    <contour>
      <point x="760" y="2300" type="move" name="U"/>
    </contour>
  </outline>
</glyph>
<glyph name="LtnSmUDiaerGrave" format="1">
  <advance width="1270"/>
  <unicode hex="01DC"/>
  <outline>
    <component base="LtnSmU"/>
    <component base="CombDiaer" xOffset="1235"/>
    <component base="CombGrave" xOffset="1235" yOffset="400"/>
    <contour>
      <point x="637" y="0" type="move" name="H"/>
    </contour>
    <contour>
      <point x="637" y="-100" type="move" name="L"/>
    </contour>
    <contour>
      <point x="1083" y="0" type="move" name="O"/>
    </contour>
    <contour>
      <point x="1270" y="1000" type="move" name="R"/>
    </contour>
    <contour>
      <point x="637" y="1900" type="move" name="U"/>
    </contour>
  </outline>
</glyph>
<glyph name="LtnSmTurnedE" format="1">
  <advance width="1083"/>
  <unicode hex="01DD"/>
  <outline>
    <component base="LtnSmSchwa"/>
    <contour>
      <point x="518" y="1100" type="move" name="U"/>
    </contour>
    <contour>
      <point x="518" y="-100" type="move" name="L"/>
    </contour>
  </outline>
</glyph>
<glyph name="LtnCapADiaerMacron" format="1">
  <advance width="1405"/>
  <unicode hex="01DE"/>
  <outline>
    <component base="LtnCapA"/>
    <component base="CombDiaer" xOffset="1293" yOffset="400"/>
    <component base="CombMacron" xOffset="1293" yOffset="800"/>
    <contour>
      <point x="695" y="0" type="move" name="H"/>
    </contour>
    <contour>
      <point x="695" y="2270" type="move" name="U"/>
    </contour>
    <contour>
      <point x="695" y="-100" type="move" name="L"/>
    </contour>
    <contour>
      <point x="1290" y="0" type="move" name="O"/>
    </contour>
  </outline>
</glyph>
<glyph name="LtnSmADiaerMacron" format="1">
  <advance width="1133"/>
  <unicode hex="01DF"/>
  <outline>
    <component base="LtnSmA"/>
    <component base="CombDiaer" xOffset="1148"/>
    <component base="CombMacron" xOffset="1148" yOffset="400"/>
    <contour>
      <point x="826" y="0" type="move" name="H"/>
    </contour>
    <contour>
      <point x="550" y="-100" type="move" name="L"/>
    </contour>
    <contour>
      <point x="983" y="0" type="move" name="O"/>
    </contour>
    <contour>
      <point x="1133" y="1000" type="move" name="R"/>
    </contour>
    <contour>
      <point x="550" y="1870" type="move" name="U"/>
    </contour>
  </outline>
</glyph>
<glyph name="LtnCapADotAbvMacron" format="1">
  <advance width="1405"/>
  <unicode hex="01E0"/>
  <outline>
    <component base="LtnCapA"/>
    <component base="CombMacron" xOffset="1293" yOffset="800"/>
    <component base="DotAbv" xOffset="556" yOffset="400"/>
    <contour>
      <point x="1129" y="0" type="move" name="H"/>
    </contour>
    <contour>
      <point x="695" y="-100" type="move" name="L"/>
    </contour>
    <contour>
      <point x="1290" y="0" type="move" name="O"/>
    </contour>
    <contour>
      <point x="695" y="2270" type="move" name="U"/>
    </contour>
  </outline>
</glyph>
<glyph name="LtnSmADotAbvMacron" format="1">
  <advance width="1133"/>
  <unicode hex="01E1"/>
  <outline>
    <component base="LtnSmA"/>
    <component base="CombMacron" xOffset="1148" yOffset="400"/>
    <component base="DotAbv" xOffset="411"/>
    <contour>
      <point x="550" y="1870" type="move" name="U"/>
    </contour>
    <contour>
      <point x="983" y="0" type="move" name="O"/>
    </contour>
    <contour>
      <point x="1133" y="1000" type="move" name="R"/>
    </contour>
    <contour>
      <point x="826" y="0" type="move" name="H"/>
    </contour>
    <contour>
      <point x="550" y="-100" type="move" name="L"/>
    </contour>
  </outline>
</glyph>
<glyph name="LtnCapAeMacron" format="1">
  <advance width="1985"/>
  <unicode hex="01E2"/>
  <outline>
    <component base="LtnCapAe"/>
    <component base="CombMacron" xOffset="1744" yOffset="400"/>
    <contour>
      <point x="1146" y="1870" type="move" name="U"/>
    </contour>
    <contour>
      <point x="1146" y="-100" type="move" name="L"/>
    </contour>
  </outline>
</glyph>
<glyph name="LtnSmAeMacron" format="1">
  <advance width="1579"/>
  <unicode hex="01E3"/>
  <outline>
    <component base="LtnSmAe"/>
    <component base="CombMacron" xOffset="1421"/>
    <contour>
      <point x="823" y="-100" type="move" name="L"/>
    </contour>
    <contour>
      <point x="847" y="0" type="move" name="O"/>
    </contour>
    <contour>
      <point x="823" y="1500" type="move" name="U"/>
    </contour>
    <contour>
      <point x="823" y="0" type="move" name="H"/>
    </contour>
    <contour>
      <point x="1579" y="1000" type="move" name="R"/>
    </contour>
  </outline>
</glyph>
<glyph name="LtnSmGStrk" format="2">
  <advance width="1137"/>
  <unicode hex="01E5"/>
  <anchor x="568" y="-500" name="L"/>
  <anchor x="568" y="1100" name="U"/>
  <outline>
    <contour>
      <point x="1118" y="840" type="line"/>
      <point x="1118" y="961" type="line"/>
      <point x="852" y="961" type="line"/>
      <point x="784" y="983"/>
      <point x="688" y="1024"/>
      <point x="559" y="1024" type="curve" smooth="yes"/>
      <point x="309" y="1024"/>
      <point x="106" y="911"/>
      <point x="106" y="666" type="curve" smooth="yes"/>
      <point x="106" y="453"/>
      <point x="287" y="375"/>
      <point x="358" y="358" type="curve"/>
      <point x="281" y="289"/>
      <point x="244" y="238"/>
      <point x="244" y="168" type="curve" smooth="yes"/>
      <point x="244" y="141"/>
      <point x="252" y="96"/>
      <point x="270" y="59" type="curve"/>
      <point x="215" y="68"/>
      <point x="66" y="14"/>
      <point x="66" y="-156" type="curve" smooth="yes"/>
      <point x="66" y="-375"/>
      <point x="289" y="-473"/>
      <point x="504" y="-473" type="curve" smooth="yes"/>
      <point x="772" y="-473"/>
      <point x="1057" y="-319"/>
      <point x="1057" y="-82" type="curve" smooth="yes"/>
      <point x="1057" y="90"/>
      <point x="883" y="184"/>
      <point x="434" y="221" type="curve"/>
      <point x="410" y="279"/>
      <point x="440" y="311"/>
      <point x="489" y="344" type="curve"/>
      <point x="682" y="332"/>
      <point x="979" y="410"/>
      <point x="979" y="684" type="curve" smooth="yes"/>
      <point x="979" y="768"/>
      <point x="938" y="840"/>
      <point x="938" y="840" type="curve"/>
    </contour>
    <contour>
      <point x="709" y="688" type="curve" smooth="yes"/>
      <point x="709" y="567"/>
      <point x="662" y="440"/>
      <point x="551" y="440" type="curve" smooth="yes"/>
      <point x="438" y="440"/>
      <point x="389" y="565"/>
      <point x="389" y="686" type="curve" smooth="yes"/>
      <point x="389" y="803"/>
      <point x="432" y="924"/>
      <point x="555" y="924" type="curve" smooth="yes"/>
      <point x="657" y="924"/>
      <point x="709" y="801"/>
    </contour>
    <contour>
      <point x="399" y="33" type="curve"/>
      <point x="502" y="23"/>
      <point x="793" y="2"/>
      <point x="793" y="-141" type="curve" smooth="yes"/>
      <point x="793" y="-274"/>
      <point x="670" y="-360"/>
      <point x="561" y="-360" type="curve" smooth="yes"/>
      <point x="453" y="-360"/>
      <point x="334" y="-258"/>
      <point x="336" y="-127" type="curve"/>
      <point x="336" y="-51"/>
      <point x="373" y="-6"/>
    </contour>
    <contour>
      <point x="1137" y="-208" type="line"/>
      <point x="1137" y="-97" type="line"/>
      <point x="0" y="-97" type="line"/>
      <point x="0" y="-208" type="line"/>
    </contour>
  </outline>
</glyph>
<glyph name="LtnCapGCaron" format="1">
  <advance width="1466"/>
  <unicode hex="01E6"/>
  <outline>
    <component base="LtnCapG"/>
    <component base="CombCaron" xOffset="1387" yOffset="400"/>
    <contour>
      <point x="789" y="0" type="move" name="H"/>
    </contour>
    <contour>
      <point x="789" y="-100" type="move" name="L"/>
    </contour>
    <contour>
      <point x="789" y="1900" type="move" name="U"/>
    </contour>
  </outline>
</glyph>
<glyph name="LtnSmGCaron" format="1">
  <advance width="1137"/>
  <unicode hex="01E7"/>
  <outline>
    <component base="LtnSmG"/>
    <component base="CombCaron" xOffset="1150"/>
    <contour>
      <point x="552" y="-432" type="move" name="H"/>
    </contour>
    <contour>
      <point x="1137" y="1000" type="move" name="R"/>
    </contour>
    <contour>
      <point x="552" y="1500" type="move" name="U"/>
    </contour>
    <contour>
      <point x="552" y="-500" type="move" name="L"/>
    </contour>
  </outline>
</glyph>
<glyph name="LtnSmKCaron" format="1">
  <advance width="1212"/>
  <unicode hex="01E9"/>
  <outline>
    <component base="LtnSmK"/>
    <component base="CombCaron" xOffset="1215" yOffset="440"/>
    <contour>
      <point x="321" y="0" type="move" name="H"/>
    </contour>
    <contour>
      <point x="617" y="-100" type="move" name="L"/>
    </contour>
    <contour>
      <point x="1212" y="1000" type="move" name="R"/>
    </contour>
    <contour>
      <point x="617" y="1940" type="move" name="U"/>
    </contour>
  </outline>
</glyph>
<glyph name="LtnCapOOgonek" format="1">
  <advance width="1548"/>
  <unicode hex="01EA"/>
  <outline>
    <component base="LtnCapO"/>
    <component base="CombOgonek" xOffset="1393"/>
    <contour>
      <point x="775" y="0" type="move" name="H"/>
    </contour>
    <contour>
      <point x="1508" y="1250" type="move" name="R"/>
    </contour>
    <contour>
      <point x="775" y="1500" type="move" name="U"/>
    </contour>
    <contour>
      <point x="731" y="-500" type="move" name="L"/>
    </contour>
  </outline>
</glyph>
<glyph name="LtnCapOOgonekMacron" format="1">
  <advance width="1548"/>
  <unicode hex="01EC"/>
  <outline>
    <component base="LtnCapO"/>
    <component base="CombMacron" xOffset="1373" yOffset="400"/>
    <component base="CombOgonek" xOffset="1393"/>
    <contour>
      <point x="775" y="0" type="move" name="H"/>
    </contour>
    <contour>
      <point x="1508" y="1250" type="move" name="R"/>
    </contour>
    <contour>
      <point x="775" y="1870" type="move" name="U"/>
    </contour>
    <contour>
      <point x="731" y="-500" type="move" name="L"/>
    </contour>
  </outline>
</glyph>
<glyph name="LtnSmOOgonekMacron" format="1">
  <advance width="1196"/>
  <unicode hex="01ED"/>
  <outline>
    <contour>
      <point x="962" y="-362" type="curve"/>
      <point x="898" y="-256" type="line"/>
      <point x="886" y="-264"/>
      <point x="835" y="-307"/>
      <point x="808" y="-307" type="curve" smooth="yes"/>
      <point x="741" y="-307"/>
      <point x="706" y="-260"/>
      <point x="706" y="-201" type="curve" smooth="yes"/>
      <point x="706" y="-121"/>
      <point x="780" y="-21"/>
      <point x="895" y="49" type="curve"/>
      <point x="706" y="2" type="line"/>
      <point x="644" y="-41"/>
      <point x="540" y="-133"/>
      <point x="540" y="-254" type="curve" smooth="yes"/>
      <point x="540" y="-362"/>
      <point x="638" y="-426"/>
      <point x="767" y="-426" type="curve" smooth="yes"/>
      <point x="829" y="-426"/>
      <point x="962" y="-362"/>
    </contour>
    <component base="LtnSmO"/>
    <component base="CombMacron" xOffset="1197"/>
    <contour>
      <point x="599" y="0" type="move" name="H"/>
    </contour>
    <contour>
      <point x="670" y="-400" type="move" name="L"/>
    </contour>
    <contour>
      <point x="1196" y="1000" type="move" name="R"/>
    </contour>
    <contour>
      <point x="599" y="1470" type="move" name="U"/>
    </contour>
  </outline>
</glyph>
<glyph name="LtnCapEzhCaron" format="1">
  <advance width="1331"/>
  <unicode hex="01EE"/>
  <outline>
    <component base="LtnCapEzh"/>
    <component base="CombCaron" xOffset="1253" yOffset="400"/>
    <contour>
      <point x="655" y="1900" type="move" name="U"/>
    </contour>
    <contour>
      <point x="655" y="-500" type="move" name="L"/>
    </contour>
  </outline>
</glyph>
<glyph name="LtnSmEzhCaron" format="1">
  <advance width="1147"/>
  <unicode hex="01EF"/>
  <outline>
    <component base="LtnSmEzh"/>
    <component base="CombCaron" xOffset="1155"/>
    <contour>
      <point x="557" y="-500" type="move" name="L"/>
    </contour>
    <contour>
      <point x="557" y="1500" type="move" name="U"/>
    </contour>
  </outline>
</glyph>
<glyph name="LtnCapDz" format="1">
  <advance width="2673"/>
  <unicode hex="01F1"/>
  <outline>
    <component base="LtnCapD"/>
    <component base="LtnCapZ" xOffset="1483"/>
    <contour>
      <point x="2099" y="-100" type="move" name="L"/>
    </contour>
    <contour>
      <point x="2099" y="1500" type="move" name="U"/>
    </contour>
  </outline>
</glyph>
<glyph name="LtnCapDSmZ" format="1">
  <advance width="2489"/>
  <unicode hex="01F2"/>
  <outline>
    <component base="LtnCapD"/>
    <component base="LtnSmZ" xOffset="1483"/>
    <contour>
      <point x="1996" y="0" type="move" name="H"/>
    </contour>
    <contour>
      <point x="1996" y="-100" type="move" name="L"/>
    </contour>
    <contour>
      <point x="1996" y="1100" type="move" name="U"/>
    </contour>
  </outline>
</glyph>
<glyph name="LtnSmDz" format="1">
  <advance width="2253"/>
  <unicode hex="01F3"/>
  <outline>
    <component base="LtnSmD"/>
    <component base="LtnSmZ" xOffset="1247"/>
    <contour>
      <point x="1760" y="0" type="move" name="H"/>
    </contour>
    <contour>
      <point x="1760" y="-100" type="move" name="L"/>
    </contour>
    <contour>
      <point x="1760" y="1100" type="move" name="U"/>
    </contour>
  </outline>
</glyph>
<glyph name="LtnCapGAcute" format="1">
  <advance width="1466"/>
  <unicode hex="01F4"/>
  <outline>
    <component base="LtnCapG"/>
    <component base="CombAcute" xOffset="1387" yOffset="400"/>
    <contour>
      <point x="789" y="0" type="move" name="H"/>
    </contour>
    <contour>
      <point x="789" y="-100" type="move" name="L"/>
    </contour>
    <contour>
      <point x="789" y="1900" type="move" name="U"/>
    </contour>
  </outline>
</glyph>
<glyph name="LtnCapWynn" format="2">
  <advance width="1288"/>
  <unicode hex="01F7"/>
  <anchor x="643" y="-100" name="L"/>
  <anchor x="643" y="1500" name="U"/>
  <outline>
    <contour>
      <point x="59" y="-446" type="line"/>
      <point x="625" y="-446" type="line"/>
      <point x="625" y="-350" type="line"/>
      <point x="525" y="-344" type="line"/>
      <point x="497" y="-344"/>
      <point x="477" y="-323"/>
      <point x="477" y="-296" type="curve" smooth="yes"/>
      <point x="477" y="30" type="line"/>
      <point x="804" y="258"/>
      <point x="1228" y="614"/>
      <point x="1228" y="1039" type="curve" smooth="yes"/>
      <point x="1228" y="1220"/>
      <point x="1104" y="1407"/>
      <point x="863" y="1407" type="curve" smooth="yes"/>
      <point x="695" y="1407"/>
      <point x="584" y="1340"/>
      <point x="477" y="1239" type="curve"/>
      <point x="477" y="1374" type="line"/>
      <point x="373" y="1374" type="line"/>
      <point x="59" y="1270" type="line"/>
      <point x="59" y="1186" type="line"/>
      <point x="205" y="1186" type="line"/>
      <point x="205" y="-296" type="line" smooth="yes"/>
      <point x="205" y="-323"/>
      <point x="185" y="-340"/>
      <point x="160" y="-344" type="curve"/>
      <point x="59" y="-350" type="line"/>
    </contour>
    <contour>
      <point x="477" y="221" type="curve"/>
      <point x="477" y="1061" type="line"/>
      <point x="552" y="1132"/>
      <point x="654" y="1193"/>
      <point x="759" y="1193" type="curve" smooth="yes"/>
      <point x="861" y="1193"/>
      <point x="911" y="1083"/>
      <point x="911" y="960" type="curve" smooth="yes"/>
      <point x="911" y="782"/>
      <point x="756" y="428"/>
    </contour>
  </outline>
</glyph>
<glyph name="LtnCapNGrave" format="1">
  <advance width="1524"/>
  <unicode hex="01F8"/>
  <outline>
    <component base="LtnCapN"/>
    <component base="CombGrave" xOffset="1357" yOffset="400"/>
    <contour>
      <point x="1177" y="0" type="move" name="H"/>
    </contour>
    <contour>
      <point x="759" y="1900" type="move" name="U"/>
    </contour>
    <contour>
      <point x="759" y="-100" type="move" name="L"/>
    </contour>
  </outline>
</glyph>
<glyph name="LtnSmNGrave" format="1">
  <advance width="1280"/>
  <unicode hex="01F9"/>
  <outline>
    <component base="LtnSmN"/>
    <component base="CombGrave" xOffset="1222"/>
    <contour>
      <point x="960" y="0" type="move" name="H"/>
    </contour>
    <contour>
      <point x="624" y="1500" type="move" name="U"/>
    </contour>
    <contour>
      <point x="624" y="-100" type="move" name="L"/>
    </contour>
  </outline>
</glyph>
<glyph name="LtnCapARingAbvAcute" format="1">
  <advance width="1405"/>
  <unicode hex="01FA"/>
  <outline>
    <component base="LtnCapA"/>
    <component base="RingAbv" xOffset="436" yOffset="400"/>
    <component base="CombAcute" xOffset="1293" yOffset="960"/>
    <contour>
      <point x="695" y="0" type="move" name="H"/>
    </contour>
    <contour>
      <point x="695" y="2460" type="move" name="U"/>
    </contour>
    <contour>
      <point x="695" y="-100" type="move" name="L"/>
    </contour>
    <contour>
      <point x="1290" y="0" type="move" name="O"/>
    </contour>
  </outline>
</glyph>
<glyph name="LtnSmARingAbvAcute" format="1">
  <advance width="1133"/>
  <unicode hex="01FB"/>
  <outline>
    <component base="LtnSmA"/>
    <component base="RingAbv" xOffset="291"/>
    <component base="CombAcute" xOffset="1148" yOffset="560"/>
    <contour>
      <point x="550" y="0" type="move" name="H"/>
    </contour>
    <contour>
      <point x="1133" y="1000" type="move" name="R"/>
    </contour>
    <contour>
      <point x="550" y="2060" type="move" name="U"/>
    </contour>
    <contour>
      <point x="550" y="-100" type="move" name="L"/>
    </contour>
    <contour>
      <point x="983" y="0" type="move" name="O"/>
    </contour>
  </outline>
</glyph>
<glyph name="LtnCapAeAcute" format="1">
  <advance width="1985"/>
  <unicode hex="01FC"/>
  <outline>
    <component base="LtnCapAe"/>
    <component base="CombAcute" xOffset="1744" yOffset="400"/>
    <contour>
      <point x="1146" y="1900" type="move" name="U"/>
    </contour>
    <contour>
      <point x="1146" y="-100" type="move" name="L"/>
    </contour>
  </outline>
</glyph>
<glyph name="LtnSmAeAcute" format="1">
  <advance width="1579"/>
  <unicode hex="01FD"/>
  <outline>
    <component base="LtnSmAe"/>
    <component base="CombAcute" xOffset="1421"/>
    <contour>
      <point x="823" y="0" type="move" name="H"/>
    </contour>
    <contour>
      <point x="823" y="-100" type="move" name="L"/>
    </contour>
    <contour>
      <point x="1365" y="0" type="move" name="O"/>
    </contour>
    <contour>
      <point x="1579" y="1000" type="move" name="R"/>
    </contour>
    <contour>
      <point x="823" y="1500" type="move" name="U"/>
    </contour>
  </outline>
</glyph>
<glyph name="LtnSmOStrkAcute" format="1">
  <advance width="1196"/>
  <unicode hex="01FF"/>
  <outline>
    <component base="LtnSmOStrk"/>
    <component base="CombAcute" xOffset="1197"/>
    <contour>
      <point x="599" y="0" type="move" name="H"/>
    </contour>
    <contour>
      <point x="599" y="-100" type="move" name="L"/>
    </contour>
    <contour>
      <point x="841" y="0" type="move" name="O"/>
    </contour>
    <contour>
      <point x="1196" y="1000" type="move" name="R"/>
    </contour>
    <contour>
      <point x="599" y="1500" type="move" name="U"/>
    </contour>
  </outline>
</glyph>
<glyph name="LtnSmAInvBreve" format="1">
  <advance width="1133"/>
  <unicode hex="0203"/>
  <outline>
    <component base="LtnSmA"/>
    <component base="CombInvBreve" xOffset="1148"/>
    <contour>
      <point x="550" y="0" type="move" name="H"/>
    </contour>
    <contour>
      <point x="1133" y="1000" type="move" name="R"/>
    </contour>
    <contour>
      <point x="550" y="1500" type="move" name="U"/>
    </contour>
    <contour>
      <point x="550" y="-100" type="move" name="L"/>
    </contour>
    <contour>
      <point x="983" y="0" type="move" name="O"/>
    </contour>
  </outline>
</glyph>
<glyph name="LtnCapEDblGrave" format="1">
  <advance width="1225"/>
  <unicode hex="0204"/>
  <outline>
    <component base="LtnCapE"/>
    <component base="CombDblGrave" xOffset="1206" yOffset="400"/>
    <contour>
      <point x="608" y="0" type="move" name="H"/>
    </contour>
    <contour>
      <point x="608" y="-100" type="move" name="L"/>
    </contour>
    <contour>
      <point x="1008" y="0" type="move" name="O"/>
    </contour>
    <contour>
      <point x="1225" y="1200" type="move" name="R"/>
    </contour>
    <contour>
      <point x="608" y="1900" type="move" name="U"/>
    </contour>
  </outline>
</glyph>
<glyph name="LtnSmEDblGrave" format="1">
  <advance width="1083"/>
  <unicode hex="0205"/>
  <outline>
    <component base="LtnSmE"/>
    <component base="CombDblGrave" xOffset="1168"/>
    <contour>
      <point x="543" y="0" type="move" name="H"/>
    </contour>
    <contour>
      <point x="1083" y="1000" type="move" name="R"/>
    </contour>
    <contour>
      <point x="570" y="1500" type="move" name="U"/>
    </contour>
    <contour>
      <point x="570" y="-100" type="move" name="L"/>
    </contour>
    <contour>
      <point x="863" y="0" type="move" name="O"/>
    </contour>
  </outline>
</glyph>
<glyph name="LtnSmEInvBreve" format="1">
  <advance width="1083"/>
  <unicode hex="0207"/>
  <outline>
    <component base="LtnSmE"/>
    <component base="CombInvBreve" xOffset="1168"/>
    <contour>
      <point x="543" y="0" type="move" name="H"/>
    </contour>
    <contour>
      <point x="570" y="-100" type="move" name="L"/>
    </contour>
    <contour>
      <point x="863" y="0" type="move" name="O"/>
    </contour>
    <contour>
      <point x="1083" y="1000" type="move" name="R"/>
    </contour>
    <contour>
      <point x="570" y="1500" type="move" name="U"/>
    </contour>
  </outline>
</glyph>
<glyph name="LtnCapIDblGrave" format="1">
  <advance width="735"/>
  <unicode hex="0208"/>
  <outline>
    <component base="LtnCapI"/>
    <component base="CombDblGrave" xOffset="964" yOffset="400"/>
    <contour>
      <point x="366" y="0" type="move" name="H"/>
    </contour>
    <contour>
      <point x="735" y="1200" type="move" name="R"/>
    </contour>
    <contour>
      <point x="366" y="1900" type="move" name="U"/>
    </contour>
    <contour>
      <point x="366" y="-100" type="move" name="L"/>
    </contour>
    <contour>
      <point x="551" y="0" type="move" name="O"/>
    </contour>
  </outline>
</glyph>
<glyph name="LtnSmIDblGrave" format="1">
  <advance width="682"/>
  <unicode hex="0209"/>
  <outline>
    <component base="LtnSmDotlessI"/>
    <component base="CombDblGrave" xOffset="942"/>
    <contour>
      <point x="344" y="0" type="move" name="H"/>
    </contour>
    <contour>
      <point x="344" y="-100" type="move" name="L"/>
    </contour>
    <contour>
      <point x="525" y="0" type="move" name="O"/>
    </contour>
    <contour>
      <point x="682" y="1000" type="move" name="R"/>
    </contour>
    <contour>
      <point x="344" y="1500" type="move" name="U"/>
    </contour>
  </outline>
</glyph>
<glyph name="LtnCapIInvBreve" format="1">
  <advance width="735"/>
  <unicode hex="020A"/>
  <outline>
    <component base="LtnCapI"/>
    <component base="CombInvBreve" xOffset="964" yOffset="400"/>
    <contour>
      <point x="366" y="0" type="move" name="H"/>
    </contour>
    <contour>
      <point x="735" y="1200" type="move" name="R"/>
    </contour>
    <contour>
      <point x="366" y="1900" type="move" name="U"/>
    </contour>
    <contour>
      <point x="366" y="-100" type="move" name="L"/>
    </contour>
    <contour>
      <point x="551" y="0" type="move" name="O"/>
    </contour>
  </outline>
</glyph>
<glyph name="LtnCapODblGrave" format="1">
  <advance width="1548"/>
  <unicode hex="020C"/>
  <outline>
    <component base="LtnCapO"/>
    <component base="CombDblGrave" xOffset="1373" yOffset="400"/>
    <contour>
      <point x="775" y="0" type="move" name="H"/>
    </contour>
    <contour>
      <point x="775" y="-100" type="move" name="L"/>
    </contour>
    <contour>
      <point x="1043" y="0" type="move" name="O"/>
    </contour>
    <contour>
      <point x="1508" y="1250" type="move" name="R"/>
    </contour>
    <contour>
      <point x="775" y="1900" type="move" name="U"/>
    </contour>
  </outline>
</glyph>
<glyph name="LtnSmODblGrave" format="1">
  <advance width="1196"/>
  <unicode hex="020D"/>
  <outline>
    <component base="LtnSmO"/>
    <component base="CombDblGrave" xOffset="1197"/>
    <contour>
      <point x="599" y="0" type="move" name="H"/>
    </contour>
    <contour>
      <point x="1196" y="1000" type="move" name="R"/>
    </contour>
    <contour>
      <point x="599" y="1500" type="move" name="U"/>
    </contour>
    <contour>
      <point x="599" y="-100" type="move" name="L"/>
    </contour>
    <contour>
      <point x="847" y="0" type="move" name="O"/>
    </contour>
  </outline>
</glyph>
<glyph name="LtnCapOInvBreve" format="1">
  <advance width="1548"/>
  <unicode hex="020E"/>
  <outline>
    <component base="LtnCapO"/>
    <component base="CombInvBreve" xOffset="1373" yOffset="400"/>
    <contour>
      <point x="775" y="0" type="move" name="H"/>
    </contour>
    <contour>
      <point x="1508" y="1250" type="move" name="R"/>
    </contour>
    <contour>
      <point x="775" y="1900" type="move" name="U"/>
    </contour>
    <contour>
      <point x="775" y="-100" type="move" name="L"/>
    </contour>
    <contour>
      <point x="1043" y="0" type="move" name="O"/>
    </contour>
  </outline>
</glyph>
<glyph name="LtnSmOInvBreve" format="1">
  <advance width="1196"/>
  <unicode hex="020F"/>
  <outline>
    <component base="LtnSmO"/>
    <component base="CombInvBreve" xOffset="1197"/>
    <contour>
      <point x="599" y="0" type="move" name="H"/>
    </contour>
    <contour>
      <point x="599" y="-100" type="move" name="L"/>
    </contour>
    <contour>
      <point x="847" y="0" type="move" name="O"/>
    </contour>
    <contour>
      <point x="1196" y="1000" type="move" name="R"/>
    </contour>
    <contour>
      <point x="599" y="1500" type="move" name="U"/>
    </contour>
  </outline>
</glyph>
<glyph name="LtnSmRDblGrave" format="1">
  <advance width="885"/>
  <unicode hex="0211"/>
  <outline>
    <component base="LtnSmR"/>
    <component base="CombDblGrave" xOffset="1078"/>
    <contour>
      <point x="309" y="0" type="move" name="H"/>
    </contour>
    <contour>
      <point x="480" y="1500" type="move" name="U"/>
    </contour>
    <contour>
      <point x="309" y="-100" type="move" name="L"/>
    </contour>
  </outline>
</glyph>
<glyph name="LtnCapRInvBreve" format="1">
  <advance width="1442"/>
  <unicode hex="0212"/>
  <outline>
    <component base="LtnCapR"/>
    <component base="CombInvBreve" xOffset="1243" yOffset="400"/>
    <contour>
      <point x="360" y="0" type="move" name="H"/>
    </contour>
    <contour>
      <point x="645" y="-100" type="move" name="L"/>
    </contour>
    <contour>
      <point x="645" y="1900" type="move" name="U"/>
    </contour>
  </outline>
</glyph>
<glyph name="LtnSmRInvBreve" format="1">
  <advance width="885"/>
  <unicode hex="0213"/>
  <outline>
    <component base="LtnSmR"/>
    <component base="CombInvBreve" xOffset="1078"/>
    <contour>
      <point x="309" y="0" type="move" name="H"/>
    </contour>
    <contour>
      <point x="309" y="-100" type="move" name="L"/>
    </contour>
    <contour>
      <point x="480" y="1500" type="move" name="U"/>
    </contour>
  </outline>
</glyph>
<glyph name="LtnCapSCommaBlw" format="1">
  <advance width="1098"/>
  <unicode hex="0218"/>
  <outline>
    <component base="LtnCapS"/>
    <component base="CombCommaBlw" xOffset="1156"/>
    <contour>
      <point x="558" y="0" type="move" name="H"/>
    </contour>
    <contour>
      <point x="579" y="1500" type="move" name="U"/>
    </contour>
    <contour>
      <point x="558" y="-500" type="move" name="L"/>
    </contour>
  </outline>
</glyph>
<glyph name="LtnSmSCommaBlw" format="1">
  <advance width="911"/>
  <unicode hex="0219"/>
  <outline>
    <component base="LtnSmS"/>
    <component base="CombCommaBlw" xOffset="1058"/>
    <contour>
      <point x="460" y="0" type="move" name="H"/>
    </contour>
    <contour>
      <point x="480" y="1100" type="move" name="U"/>
    </contour>
    <contour>
      <point x="460" y="-500" type="move" name="L"/>
    </contour>
  </outline>
</glyph>
<glyph name="LtnCapTCommaBlw" format="1">
  <advance width="1247"/>
  <unicode hex="021A"/>
  <outline>
    <component base="LtnCapT"/>
    <component base="CombCommaBlw" xOffset="1221"/>
    <contour>
      <point x="623" y="0" type="move" name="H"/>
    </contour>
    <contour>
      <point x="623" y="1500" type="move" name="U"/>
    </contour>
    <contour>
      <point x="623" y="-500" type="move" name="L"/>
    </contour>
  </outline>
</glyph>
<glyph name="LtnSmTCommaBlw" format="1">
  <advance width="768"/>
  <unicode hex="021B"/>
  <outline>
    <component base="LtnSmT"/>
    <component base="CombCommaBlw" xOffset="1002"/>
    <contour>
      <point x="404" y="0" type="move" name="H"/>
    </contour>
    <contour>
      <point x="404" y="-500" type="move" name="L"/>
    </contour>
    <contour>
      <point x="768" y="1000" type="move" name="R"/>
    </contour>
    <contour>
      <point x="392" y="1363" type="move" name="U"/>
    </contour>
  </outline>
</glyph>
<glyph name="LtnCapYogh" format="2">
  <advance width="1122"/>
  <unicode hex="021C"/>
  <anchor x="557" y="-220" name="L"/>
  <anchor x="557" y="1500" name="U"/>
  <outline>
    <contour>
      <point x="121" y="-329" type="line"/>
      <point x="575" y="-213"/>
      <point x="1041" y="36"/>
      <point x="1041" y="339" type="curve" smooth="yes"/>
      <point x="1041" y="548"/>
      <point x="834" y="681"/>
      <point x="583" y="681" type="curve"/>
      <point x="534" y="577" type="line"/>
      <point x="676" y="577"/>
      <point x="720" y="439"/>
      <point x="720" y="320" type="curve" smooth="yes"/>
      <point x="720" y="130"/>
      <point x="469" y="-82"/>
      <point x="121" y="-188" type="curve"/>
    </contour>
    <contour>
      <point x="262" y="465" type="line"/>
      <point x="740" y="632"/>
      <point x="1003" y="803"/>
      <point x="1003" y="1065" type="curve" smooth="yes"/>
      <point x="1003" y="1274"/>
      <point x="786" y="1407"/>
      <point x="535" y="1407" type="curve" smooth="yes"/>
      <point x="395" y="1407"/>
      <point x="257" y="1391"/>
      <point x="74" y="1305" type="curve"/>
      <point x="74" y="993" type="line"/>
      <point x="223" y="993" type="line"/>
      <point x="256" y="1180" type="line"/>
      <point x="308" y="1247"/>
      <point x="369" y="1263"/>
      <point x="486" y="1263" type="curve" smooth="yes"/>
      <point x="593" y="1263"/>
      <point x="688" y="1182"/>
      <point x="688" y="1036" type="curve" smooth="yes"/>
      <point x="688" y="867"/>
      <point x="519" y="697"/>
      <point x="262" y="606" type="curve"/>
    </contour>
  </outline>
</glyph>
<glyph name="LtnCapHCaron" format="1">
  <advance width="1575"/>
  <unicode hex="021E"/>
  <outline>
    <component base="LtnCapH"/>
    <component base="CombCaron" xOffset="1385" yOffset="400"/>
    <contour>
      <point x="360" y="0" type="move" name="H"/>
    </contour>
    <contour>
      <point x="787" y="-100" type="move" name="L"/>
    </contour>
    <contour>
      <point x="787" y="1900" type="move" name="U"/>
    </contour>
  </outline>
</glyph>
<glyph name="LtnSmDCurl" format="2">
  <advance width="1395"/>
  <unicode hex="0221"/>
  <anchor x="750" y="-320" name="L"/>
  <anchor x="750" y="1540" name="U"/>
  <outline>
    <contour>
      <point x="649" y="-262" type="line"/>
      <point x="690" y="-166"/>
      <point x="758" y="-37"/>
      <point x="844" y="72" type="curve"/>
      <point x="907" y="-18"/>
      <point x="1018" y="-33"/>
      <point x="1102" y="-33" type="curve" smooth="yes"/>
      <point x="1268" y="-33"/>
      <point x="1434" y="45"/>
      <point x="1434" y="246" type="curve" smooth="yes"/>
      <point x="1434" y="336"/>
      <point x="1366" y="416"/>
      <point x="1249" y="416" type="curve" smooth="yes"/>
      <point x="1186" y="416"/>
      <point x="1122" y="399"/>
      <point x="1063" y="375" type="curve"/>
      <point x="1063" y="1516" type="line"/>
      <point x="958" y="1516" type="line"/>
      <point x="639" y="1413" type="line"/>
      <point x="639" y="1329" type="line"/>
      <point x="791" y="1329" type="line"/>
      <point x="791" y="999" type="line"/>
      <point x="791" y="999"/>
      <point x="678" y="1024"/>
      <point x="600" y="1024" type="curve" smooth="yes"/>
      <point x="291" y="1024"/>
      <point x="66" y="825"/>
      <point x="66" y="473" type="curve" smooth="yes"/>
      <point x="66" y="186"/>
      <point x="217" y="-25"/>
      <point x="467" y="-25" type="curve" smooth="yes"/>
      <point x="543" y="-25"/>
      <point x="623" y="12"/>
      <point x="684" y="49" type="curve"/>
      <point x="623" y="-41"/>
      <point x="573" y="-137"/>
      <point x="545" y="-223" type="curve"/>
    </contour>
    <contour>
      <point x="631" y="168" type="curve" smooth="yes"/>
      <point x="453" y="168"/>
      <point x="365" y="307"/>
      <point x="365" y="520" type="curve" smooth="yes"/>
      <point x="365" y="733"/>
      <point x="455" y="901"/>
      <point x="645" y="901" type="curve" smooth="yes"/>
      <point x="707" y="901"/>
      <point x="791" y="870"/>
      <point x="791" y="870" type="curve"/>
      <point x="791" y="270" type="line" smooth="yes"/>
      <point x="791" y="246"/>
      <point x="793" y="225"/>
      <point x="795" y="205" type="curve"/>
      <point x="750" y="184"/>
      <point x="688" y="168"/>
    </contour>
    <contour>
      <point x="1145" y="68" type="curve" smooth="yes"/>
      <point x="1087" y="68"/>
      <point x="1071" y="168"/>
      <point x="1067" y="262" type="curve"/>
      <point x="1108" y="283"/>
      <point x="1153" y="293"/>
      <point x="1200" y="293" type="curve" smooth="yes"/>
      <point x="1260" y="293"/>
      <point x="1300" y="268"/>
      <point x="1300" y="213" type="curve" smooth="yes"/>
      <point x="1300" y="141"/>
      <point x="1225" y="68"/>
    </contour>
  </outline>
</glyph>
<glyph name="LtnSmOu" format="2">
  <advance width="1149"/>
  <unicode hex="0223"/>
  <anchor x="576" y="-100" name="L"/>
  <anchor x="576" y="1580" name="U"/>
  <outline>
    <contour>
      <point x="575" y="-25" type="curve" smooth="yes"/>
      <point x="866" y="-25"/>
      <point x="1086" y="166"/>
      <point x="1086" y="398" type="curve" smooth="yes"/>
      <point x="1086" y="597"/>
      <point x="929" y="746"/>
      <point x="726" y="789" type="curve"/>
      <point x="877" y="816"/>
      <point x="1042" y="940"/>
      <point x="1042" y="1132" type="curve" smooth="yes"/>
      <point x="1042" y="1346"/>
      <point x="832" y="1516"/>
      <point x="575" y="1516" type="curve" smooth="yes"/>
      <point x="324" y="1516"/>
      <point x="109" y="1364"/>
      <point x="109" y="1132" type="curve" smooth="yes"/>
      <point x="109" y="931"/>
      <point x="274" y="810"/>
      <point x="422" y="789" type="curve"/>
      <point x="220" y="752"/>
      <point x="66" y="598"/>
      <point x="66" y="398" type="curve" smooth="yes"/>
      <point x="66" y="165"/>
      <point x="265" y="-25"/>
    </contour>
    <contour>
      <point x="740" y="1136" type="curve" smooth="yes"/>
      <point x="740" y="985"/>
      <point x="703" y="855"/>
      <point x="574" y="855" type="curve" smooth="yes"/>
      <point x="448" y="855"/>
      <point x="410" y="982"/>
      <point x="410" y="1136" type="curve" smooth="yes"/>
      <point x="410" y="1274"/>
      <point x="436" y="1413"/>
      <point x="575" y="1413" type="curve" smooth="yes"/>
      <point x="693" y="1413"/>
      <point x="740" y="1296"/>
    </contour>
    <contour>
      <point x="575" y="84" type="curve" smooth="yes"/>
      <point x="404" y="84"/>
      <point x="373" y="246"/>
      <point x="373" y="415" type="curve" smooth="yes"/>
      <point x="373" y="593"/>
      <point x="429" y="722"/>
      <point x="574" y="722" type="curve" smooth="yes"/>
      <point x="721" y="722"/>
      <point x="779" y="597"/>
      <point x="779" y="415" type="curve" smooth="yes"/>
      <point x="779" y="252"/>
      <point x="737" y="84"/>
    </contour>
  </outline>
</glyph>
<glyph name="LtnSmZHook" format="2">
  <advance width="1006"/>
  <unicode hex="0225"/>
  <anchor x="529" y="-100" name="L"/>
  <anchor x="529" y="1100" name="U"/>
  <outline>
    <contour>
      <point x="730" y="-294" type="curve"/>
      <point x="816" y="-294" type="line"/>
      <point x="916" y="-216"/>
      <point x="992" y="-82"/>
      <point x="992" y="0" type="curve" smooth="yes"/>
      <point x="992" y="48"/>
      <point x="986" y="96"/>
      <point x="964" y="121" type="curve"/>
      <point x="375" y="121" type="line"/>
      <point x="911" y="885" type="line"/>
      <point x="911" y="999" type="line"/>
      <point x="82" y="999" type="line"/>
      <point x="82" y="682" type="line"/>
      <point x="227" y="682" type="line"/>
      <point x="242" y="840" type="line"/>
      <point x="242" y="858"/>
      <point x="260" y="883"/>
      <point x="281" y="883" type="curve" smooth="yes"/>
      <point x="590" y="883" type="line"/>
      <point x="66" y="133" type="line"/>
      <point x="66" y="0" type="line"/>
      <point x="787" y="0" type="line"/>
      <point x="799" y="-18"/>
      <point x="807" y="-42"/>
      <point x="807" y="-91" type="curve" smooth="yes"/>
      <point x="807" y="-168"/>
      <point x="775" y="-244"/>
    </contour>
  </outline>
</glyph>
<glyph name="LtnCapADotAbv" format="1">
  <advance width="1405"/>
  <unicode hex="0226"/>
  <outline>
    <component base="LtnCapA"/>
    <component base="DotAbv" xOffset="556" yOffset="400"/>
    <contour>
      <point x="695" y="0" type="move" name="H"/>
    </contour>
    <contour>
      <point x="695" y="-100" type="move" name="L"/>
    </contour>
    <contour>
      <point x="1290" y="0" type="move" name="O"/>
    </contour>
    <contour>
      <point x="695" y="1900" type="move" name="U"/>
    </contour>
  </outline>
</glyph>
<glyph name="LtnCapECedilla" format="1">
  <advance width="1225"/>
  <unicode hex="0228"/>
  <outline>
    <component base="LtnCapE"/>
    <component base="CombCedilla" xOffset="1206"/>
    <contour>
      <point x="1225" y="1200" type="move" name="R"/>
    </contour>
    <contour>
      <point x="608" y="1500" type="move" name="U"/>
    </contour>
    <contour>
      <point x="608" y="-600" type="move" name="L"/>
    </contour>
    <contour>
      <point x="1008" y="0" type="move" name="O"/>
    </contour>
  </outline>
</glyph>
<glyph name="LtnSmECedilla" format="1">
  <advance width="1083"/>
  <unicode hex="0229"/>
  <outline>
    <component base="LtnSmE"/>
    <component base="CombCedilla" xOffset="1141"/>
    <contour>
      <point x="1083" y="1000" type="move" name="R"/>
    </contour>
    <contour>
      <point x="570" y="1100" type="move" name="U"/>
    </contour>
    <contour>
      <point x="543" y="-600" type="move" name="L"/>
    </contour>
    <contour>
      <point x="863" y="0" type="move" name="O"/>
    </contour>
  </outline>
</glyph>
<glyph name="LtnSmODiaerMacron" format="1">
  <advance width="1196"/>
  <unicode hex="022B"/>
  <outline>
    <component base="LtnSmO"/>
    <component base="CombDiaer" xOffset="1197"/>
    <component base="CombMacron" xOffset="1197" yOffset="400"/>
    <contour>
      <point x="599" y="0" type="move" name="H"/>
    </contour>
    <contour>
      <point x="599" y="-100" type="move" name="L"/>
    </contour>
    <contour>
      <point x="847" y="0" type="move" name="O"/>
    </contour>
    <contour>
      <point x="1196" y="1000" type="move" name="R"/>
    </contour>
    <contour>
      <point x="599" y="1870" type="move" name="U"/>
    </contour>
  </outline>
</glyph>
<glyph name="LtnCapODotAbv" format="1">
  <advance width="1548"/>
  <unicode hex="022E"/>
  <outline>
    <component base="LtnCapO"/>
    <component base="DotAbv" xOffset="636" yOffset="400"/>
    <contour>
      <point x="775" y="0" type="move" name="H"/>
    </contour>
    <contour>
      <point x="1508" y="1250" type="move" name="R"/>
    </contour>
    <contour>
      <point x="775" y="1900" type="move" name="U"/>
    </contour>
    <contour>
      <point x="775" y="-100" type="move" name="L"/>
    </contour>
    <contour>
      <point x="1043" y="0" type="move" name="O"/>
    </contour>
  </outline>
</glyph>
<glyph name="LtnSmYMacron" format="1">
  <advance width="1159"/>
  <unicode hex="0233"/>
  <outline>
    <component base="LtnSmY"/>
    <component base="CombMacron" xOffset="1198"/>
    <contour>
      <point x="1159" y="1000" type="move" name="R"/>
    </contour>
    <contour>
      <point x="600" y="1470" type="move" name="U"/>
    </contour>
    <contour>
      <point x="580" y="-500" type="move" name="L"/>
    </contour>
  </outline>
</glyph>
<glyph name="LtnSmNCurl" format="2">
  <advance width="1417"/>
  <unicode hex="0235"/>
  <anchor x="617" y="-320" name="L"/>
  <anchor x="617" y="1100" name="U"/>
  <outline>
    <contour>
      <point x="1438" y="225" type="curve" smooth="yes"/>
      <point x="1438" y="322"/>
      <point x="1352" y="397"/>
      <point x="1253" y="397" type="curve" smooth="yes"/>
      <point x="1196" y="397"/>
      <point x="1145" y="389"/>
      <point x="1096" y="375" type="curve"/>
      <point x="1096" y="668" type="line" smooth="yes"/>
      <point x="1096" y="846"/>
      <point x="1053" y="1024"/>
      <point x="817" y="1024" type="curve" smooth="yes"/>
      <point x="641" y="1024"/>
      <point x="459" y="899"/>
      <point x="459" y="899" type="curve"/>
      <point x="459" y="1024" type="line"/>
      <point x="352" y="1024" type="line"/>
      <point x="43" y="920" type="line"/>
      <point x="43" y="836" type="line"/>
      <point x="184" y="836" type="line"/>
      <point x="184" y="150" type="line" smooth="yes"/>
      <point x="184" y="125"/>
      <point x="164" y="104"/>
      <point x="139" y="102" type="curve" smooth="yes"/>
      <point x="66" y="96" type="line"/>
      <point x="66" y="0" type="line"/>
      <point x="567" y="0" type="line"/>
      <point x="567" y="96" type="line"/>
      <point x="506" y="102" type="line" smooth="yes"/>
      <point x="481" y="104"/>
      <point x="459" y="125"/>
      <point x="459" y="150" type="curve" smooth="yes"/>
      <point x="459" y="809" type="line"/>
      <point x="459" y="809"/>
      <point x="543" y="836"/>
      <point x="655" y="836" type="curve" smooth="yes"/>
      <point x="778" y="836"/>
      <point x="823" y="735"/>
      <point x="823" y="631" type="curve" smooth="yes"/>
      <point x="823" y="184" type="line"/>
      <point x="700" y="45"/>
      <point x="633" y="-129"/>
      <point x="598" y="-209" type="curve"/>
      <point x="721" y="-252" type="line"/>
      <point x="750" y="-190"/>
      <point x="811" y="-70"/>
      <point x="893" y="41" type="curve"/>
      <point x="948" y="-4"/>
      <point x="1030" y="-25"/>
      <point x="1118" y="-25" type="curve" smooth="yes"/>
      <point x="1276" y="-25"/>
      <point x="1438" y="68"/>
    </contour>
    <contour>
      <point x="1321" y="201" type="curve" smooth="yes"/>
      <point x="1321" y="135"/>
      <point x="1260" y="86"/>
      <point x="1194" y="86" type="curve" smooth="yes"/>
      <point x="1118" y="86"/>
      <point x="1100" y="156"/>
      <point x="1096" y="238" type="curve"/>
      <point x="1139" y="264"/>
      <point x="1186" y="279"/>
      <point x="1235" y="279" type="curve" smooth="yes"/>
      <point x="1280" y="279"/>
      <point x="1321" y="246"/>
    </contour>
  </outline>
</glyph>
<glyph name="LtnSmQPDigraph" format="2">
  <advance width="1829"/>
  <unicode hex="0239"/>
  <anchor x="914" y="-500" name="L"/>
  <anchor x="914" y="1100" name="U"/>
  <outline>
    <contour>
      <point x="618" y="-449" type="line"/>
      <point x="1180" y="-449" type="line"/>
      <point x="1180" y="-352" type="line"/>
      <point x="1096" y="-346" type="line"/>
      <point x="1071" y="-346"/>
      <point x="1051" y="-326"/>
      <point x="1051" y="-299" type="curve"/>
      <point x="1051" y="-4" type="line"/>
      <point x="1051" y="-4"/>
      <point x="1129" y="-25"/>
      <point x="1210" y="-25" type="curve" smooth="yes"/>
      <point x="1548" y="-25"/>
      <point x="1763" y="197"/>
      <point x="1763" y="528" type="curve" smooth="yes"/>
      <point x="1763" y="772"/>
      <point x="1630" y="1024"/>
      <point x="1380" y="1024" type="curve" smooth="yes"/>
      <point x="1215" y="1024"/>
      <point x="1051" y="895"/>
      <point x="1051" y="895" type="curve"/>
      <point x="1051" y="999" type="line"/>
      <point x="1051" y="999"/>
      <point x="866" y="1024"/>
      <point x="727" y="1024" type="curve" smooth="yes"/>
      <point x="340" y="1024"/>
      <point x="66" y="856"/>
      <point x="66" y="469" type="curve" smooth="yes"/>
      <point x="66" y="205"/>
      <point x="221" y="-25"/>
      <point x="467" y="-25" type="curve" smooth="yes"/>
      <point x="633" y="-25"/>
      <point x="776" y="80"/>
      <point x="776" y="80" type="curve"/>
      <point x="776" y="-299" type="line" smooth="yes"/>
      <point x="776" y="-326"/>
      <point x="758" y="-346"/>
      <point x="731" y="-346" type="curve"/>
      <point x="618" y="-352" type="line"/>
    </contour>
    <contour>
      <point x="645" y="154" type="curve" smooth="yes"/>
      <point x="469" y="154"/>
      <point x="365" y="293"/>
      <point x="365" y="516" type="curve" smooth="yes"/>
      <point x="365" y="735"/>
      <point x="451" y="903"/>
      <point x="694" y="903" type="curve" smooth="yes"/>
      <point x="741" y="903"/>
      <point x="776" y="895"/>
      <point x="776" y="895" type="curve"/>
      <point x="776" y="162" type="line"/>
      <point x="776" y="162"/>
      <point x="705" y="154"/>
    </contour>
    <contour>
      <point x="1163" y="86" type="curve" smooth="yes"/>
      <point x="1120" y="86"/>
      <point x="1051" y="111"/>
      <point x="1051" y="111" type="curve"/>
      <point x="1051" y="807" type="line"/>
      <point x="1051" y="807"/>
      <point x="1131" y="838"/>
      <point x="1202" y="838" type="curve" smooth="yes"/>
      <point x="1380" y="838"/>
      <point x="1460" y="678"/>
      <point x="1460" y="498" type="curve" smooth="yes"/>
      <point x="1460" y="268"/>
      <point x="1360" y="86"/>
    </contour>
  </outline>
</glyph>
<glyph name="LtnCapAStrk" format="1">
  <advance width="1405"/>
  <unicode hex="023A"/>
  <outline>
    <contour>
      <point x="1096" y="1532" type="line"/>
      <point x="154" y="-117" type="line"/>
      <point x="258" y="-178" type="line"/>
      <point x="1202" y="1473" type="line"/>
    </contour>
    <component base="LtnCapA"/>
    <contour>
      <point x="702" y="1500" type="move" name="U"/>
    </contour>
    <contour>
      <point x="702" y="-100" type="move" name="L"/>
    </contour>
    <contour>
      <point x="1290" y="0" type="move" name="O"/>
    </contour>
    <contour>
      <point x="1129" y="0" type="move" name="H"/>
    </contour>
  </outline>
</glyph>
<glyph name="LtnCapCStrk" format="1">
  <advance width="1303"/>
  <unicode hex="023B"/>
  <outline>
    <contour>
      <point x="1066" y="1532" type="line"/>
      <point x="124" y="-117" type="line"/>
      <point x="228" y="-178" type="line"/>
      <point x="1172" y="1473" type="line"/>
    </contour>
    <component base="LtnCapC"/>
    <contour>
      <point x="700" y="1500" type="move" name="U"/>
    </contour>
    <contour>
      <point x="700" y="-100" type="move" name="L"/>
    </contour>
    <contour>
      <point x="652" y="0" type="move" name="H"/>
    </contour>
  </outline>
</glyph>
<glyph name="LtnCapTDiagStrk" format="1">
  <advance width="1247"/>
  <unicode hex="023E"/>
  <outline>
    <contour>
      <point x="1036" y="1532" type="line"/>
      <point x="94" y="-117" type="line"/>
      <point x="198" y="-178" type="line"/>
      <point x="1142" y="1473" type="line"/>
    </contour>
    <component base="LtnCapT"/>
    <contour>
      <point x="623" y="0" type="move" name="H"/>
    </contour>
    <contour>
      <point x="623" y="-100" type="move" name="L"/>
    </contour>
    <contour>
      <point x="623" y="1500" type="move" name="U"/>
    </contour>
  </outline>
</glyph>
<glyph name="LtnCapBBarredLowStem" format="2">
  <advance width="1309"/>
  <unicode hex="0243"/>
  <anchor x="635" y="-100" name="L"/>
  <anchor x="635" y="1500" name="U"/>
  <outline>
    <contour>
      <point x="1233" y="399" type="curve" smooth="yes"/>
      <point x="1233" y="670"/>
      <point x="1014" y="727"/>
      <point x="862" y="731" type="curve"/>
      <point x="928" y="745"/>
      <point x="1153" y="811"/>
      <point x="1153" y="1057" type="curve" smooth="yes"/>
      <point x="1153" y="1343"/>
      <point x="864" y="1374"/>
      <point x="717" y="1374" type="curve" smooth="yes"/>
      <point x="57" y="1374" type="line"/>
      <point x="57" y="1270" type="line"/>
      <point x="168" y="1260" type="line" smooth="yes"/>
      <point x="193" y="1257"/>
      <point x="213" y="1241"/>
      <point x="213" y="1214" type="curve" smooth="yes"/>
      <point x="213" y="500" type="line"/>
      <point x="37" y="500" type="line"/>
      <point x="37" y="371" type="line"/>
      <point x="213" y="371" type="line"/>
      <point x="213" y="160" type="line" smooth="yes"/>
      <point x="213" y="133"/>
      <point x="193" y="117"/>
      <point x="168" y="115" type="curve" smooth="yes"/>
      <point x="57" y="104" type="line"/>
      <point x="57" y="0" type="line"/>
      <point x="760" y="0" type="line" smooth="yes"/>
      <point x="963" y="0"/>
      <point x="1233" y="16"/>
    </contour>
    <contour>
      <point x="852" y="1024" type="curve" smooth="yes"/>
      <point x="852" y="879"/>
      <point x="791" y="766"/>
      <point x="557" y="766" type="curve" smooth="yes"/>
      <point x="549" y="766"/>
      <point x="506" y="768"/>
      <point x="506" y="768" type="curve"/>
      <point x="506" y="1255" type="line"/>
      <point x="578" y="1260"/>
      <point x="575" y="1260"/>
      <point x="590" y="1260" type="curve" smooth="yes"/>
      <point x="809" y="1260"/>
      <point x="852" y="1145"/>
    </contour>
    <contour>
      <point x="926" y="385" type="curve" smooth="yes"/>
      <point x="926" y="188"/>
      <point x="811" y="117"/>
      <point x="602" y="117" type="curve" smooth="yes"/>
      <point x="590" y="117"/>
      <point x="506" y="121"/>
      <point x="506" y="121" type="curve"/>
      <point x="506" y="371" type="line"/>
      <point x="743" y="371" type="line"/>
      <point x="743" y="500" type="line"/>
      <point x="506" y="500" type="line"/>
      <point x="506" y="643" type="line"/>
      <point x="563" y="645"/>
      <point x="588" y="645"/>
      <point x="608" y="645" type="curve" smooth="yes"/>
      <point x="829" y="645"/>
      <point x="926" y="561"/>
    </contour>
  </outline>
</glyph>
<glyph name="LtnCapUBar" format="2">
  <advance width="1493"/>
  <unicode hex="0244"/>
  <anchor x="767" y="-100" name="L"/>
  <anchor x="767" y="1500" name="U"/>
  <outline>
    <contour>
      <point x="1460" y="653" type="line"/>
      <point x="1460" y="786" type="line"/>
      <point x="1286" y="786" type="line"/>
      <point x="1286" y="1214" type="line" smooth="yes"/>
      <point x="1286" y="1241"/>
      <point x="1309" y="1257"/>
      <point x="1331" y="1260" type="curve" smooth="yes"/>
      <point x="1440" y="1270" type="line"/>
      <point x="1440" y="1374" type="line"/>
      <point x="969" y="1374" type="line"/>
      <point x="969" y="1270" type="line"/>
      <point x="1085" y="1260" type="line" smooth="yes"/>
      <point x="1110" y="1257"/>
      <point x="1130" y="1241"/>
      <point x="1130" y="1214" type="curve" smooth="yes"/>
      <point x="1130" y="786" type="line"/>
      <point x="496" y="786" type="line"/>
      <point x="496" y="1214" type="line" smooth="yes"/>
      <point x="496" y="1241"/>
      <point x="518" y="1257"/>
      <point x="541" y="1260" type="curve" smooth="yes"/>
      <point x="651" y="1270" type="line"/>
      <point x="651" y="1374" type="line"/>
      <point x="45" y="1374" type="line"/>
      <point x="45" y="1270" type="line"/>
      <point x="156" y="1260" type="line" smooth="yes"/>
      <point x="180" y="1257"/>
      <point x="203" y="1241"/>
      <point x="203" y="1214" type="curve" smooth="yes"/>
      <point x="203" y="786" type="line"/>
      <point x="31" y="786" type="line"/>
      <point x="31" y="653" type="line"/>
      <point x="203" y="653" type="line"/>
      <point x="203" y="520" type="line" smooth="yes"/>
      <point x="203" y="160"/>
      <point x="373" y="-33"/>
      <point x="725" y="-33" type="curve" smooth="yes"/>
      <point x="1108" y="-33"/>
      <point x="1286" y="117"/>
      <point x="1286" y="520" type="curve" smooth="yes"/>
      <point x="1286" y="653" type="line"/>
    </contour>
    <contour>
      <point x="1130" y="504" type="line"/>
      <point x="1130" y="283"/>
      <point x="1042" y="137"/>
      <point x="827" y="137" type="curve" smooth="yes"/>
      <point x="602" y="137"/>
      <point x="496" y="248"/>
      <point x="496" y="504" type="curve" smooth="yes"/>
      <point x="496" y="653" type="line"/>
      <point x="1130" y="653" type="line"/>
    </contour>
  </outline>
</glyph>
